<?xml version="1.0" encoding="utf-8"?>
<!-- Generator: Adobe Illustrator 23.0.0, SVG Export Plug-In . SVG Version: 6.00 Build 0)  -->
<svg version="1.1" id="Layer_1" xmlns="http://www.w3.org/2000/svg" xmlns:xlink="http://www.w3.org/1999/xlink" x="0px" y="0px"
	 viewBox="0 0 752.4 600" style="enable-background:new 0 0 752.4 600;" xml:space="preserve">
<style type="text/css">
	.st0{fill:#8B0021;}
</style>
<g>
	<path class="st0" d="M722.1,205c7.9,1.5,14.3,2.6,16-0.6c0.3-0.6,0.3-0.9,0.3-1.5c0-2.3-1.7-5.2-5.8-9.9
		c-11.1-12.5-30.9-41.6-37-51.8c5.8,1.7,11.9,3.2,16.3,2.6c3.2-0.3,7.3-0.9,7.9-3.5c0-0.3,0-0.6,0-0.9c0-2.6-2.9-6.1-9.9-11.1
		c-8.2-6.1-17.2-18.9-22.7-26.5l-2-3.2c-4.4-6.1-9.3-9.3-14.3-12.8c6.1,0.6,10.5,0.3,11.6-2.3c1.2-2.3-1.2-4.7-2.9-6.4
		c-9.9-9-34.9-27.1-56.5-30.9c3.8-4.4,4.4-10.8,4.1-14.6v-1.2l-3.2,0.6l-14,1.2c-4.9,0-10.8-2.6-17.2-5.5
		c-7.6-3.5-16.3-7.6-25.3-7.6c-10.5-0.3-21.8,2.9-34.1,9l-5.5,0.3l-9.6,0.3c-6.1,1.7-16,7.6-24.2,18.3c-3.8,5.2-2.3,12.5-1.2,18.3
		c0.9,4.1,1.5,7.6,0.3,9c-1.7,1.7-3.5,1.7-4.9,1.5c-2.9-0.3-5.5-2-7-4.4l-1.2-2l-0.9,2c-0.6,1.2-0.9,2.3-0.9,3.5
		c0,2.9,1.7,5.8,4.9,9.9c-6.1,0-12.5,2.6-16.9,7c-3.8,3.8-5.5,8.2-4.9,12.2l0.3,2l1.5-1.2c4.9-3.8,10.5-6.4,15.7-7l6.1,0.6l11.1,1.7
		c9,0.3,12.8-2.6,16.3-5.8l3.5-2.6c0.9,1.5,6.7,4.9,7.9,9.9c0,0.6,0.3,1.2,0.3,1.7c0,1.7-0.6,3.5-1.7,5.2c-5.2,8.2-5.8,9-9.3,20.1
		c-3.2,10.5-13.1,14.3-19.2,14.6c0.9-2.6,1.5-6.4,1.7-11.1l0.9-8.4c0.9-5.2,2.3-6.4,4.9-9l4.4-4.4l-2-0.6
		c-5.5-1.2-16.3,5.2-21.8,11.6c-2-3.5-5.2-8.4-12.8-8.4h-1.7l0.6,1.5c1.5,3.8,3.2,11.4,0,15.4l-3.8,4.1
		c-4.9,5.2-11.4,11.1-12.8,18.3c-2.3,0.3-7.6,1.2-13.4,1.2c0.3-1.5,0.6-2.9,0.6-4.7c0-0.3,0-0.3,0-0.6c0,0-0.3-7.6-0.6-11.6
		c2.3,2.3,2,2.9,6.7,7.6l0.6-1.2c1.7-2.6,2.6-5.8,2.6-8.7c0-1.5-0.3-2.9-0.6-4.4c0,0-1.5-6.4-2-9l8.2-1.7l4.1-4.4l1.7-2.9l-0.9-0.6
		c-5.5-3.2-8.2-7.9-11.6-14.8l-0.9-1.7c-1.5-2.6-2.6-8.7-2.6-11.9c0.3,0,1.2-0.3,1.2-0.3c2.6-1.5,6.1-3.2,7.9-8.2
		c1.7-4.9,1.5-8.7-0.9-11.9l-0.6-0.9l-0.9,0.6c-1.7,1.2-4.4,2-6.7,1.5l-2.6-2l-0.3-4.1l0.6-3.8c-0.3-2.3-2.6-4.4-3.8-5.5
		c1.2-1.2,3.5-3.2,3.5-3.2l7.3-7.9c0.9-1.5,1.5-4.7,1.5-8.2c0-5.5-1.5-12.2-5.5-16.9l-2.6-2.9l-6.4-2l0.6,2c0,3.2,0,10.5-2,13.4l0,0
		c-0.6-3.5-0.9-7.9-5.5-7.6l-3.2,1.2l-4.7,2.9l-2,0.6c-4.9,0-9-1.7-13.4-4.4c-6.1-3.5-13.4-7.6-25.9-7.3
		c-19.5,0.6-27.1,7.9-30.3,11.1l-1.5,0.9c-1.7,0-1.7,0-2.3-0.6c-0.6-1.2-1.5-2.6-4.4-2.6c-3.2,0-4.4,2-5.2,3.8l-1.7,2.3
		c-7,2.3-24.2,10.2-24.5,27.1c-0.3,11.9,9,17.5,14,18.6l1.5,0.3v-1.5c0-3.5,1.5-9.3,9.3-9.6c2.9,0,4.9,1.5,6.1,2.9
		c2,2.3,2.9,4.9,2.6,6.1l-0.3,0.9l9,3.2c0,0-10.2-1.2-17.5-0.6c-5.2,0.3-13.7,2.3-13.7,2.3c-5.8,1.5-11.6,2.6-14.8,2
		c-9.9-1.2-11.9-8.2-12.5-15.4l-0.3-4.4l-1.7,3.8c-3.8,8.4,0,24.2,9.9,29.7c4.9,2.6,10.2,4.1,15.1,4.4c4.9,0,10.2-1.7,15.7-4.1
		c5.8-2.3,12.2-4.9,18.6-4.9c11.9,0,16.3,0.6,19.8,1.7c0.3,0.6,0.3,0.3,0.6,0.9c-2.3,0.6-7.3,2-7.3,2l-6.7,4.7
		c-3.8,2.6-7.9,5.8-10.8,6.1l-12.2,0.3l1.2,1.7c2,2.9,10.8,9.9,19.8,9.9l8.2-1.2c2.9-0.6,4.4-1.2,5.2-0.3c1.2,0.9,1.5,2.6,1.2,4.1
		c-0.3,3.5-3.2,8.2-8.2,10.5L359,125l2,2.6l4.7,3.8c-5.5,2.9-11.4,3.8-16.3,2l-2.3-0.9l2,5.5c0,0,2,5.2,2.6,7
		c-0.9,0.6-6.1,2.6-6.1,2.6l-5.8,3.8c-1.5,1.5-5.2,5.5-6.4,7.3c-4.7-7.3-10.2-12.5-17.2-16.6l-5.8-3.5l-7.9-3.5l-4.1-9.6l-1.7-4.7
		l-2.6-4.9l-2-3.8l-2,0.3c0,0-0.3,4.1-1.5,9c-0.9,3.8-2.3,7.9-3.2,10.2c-1.2-3.2-2.6-7.9-2.6-7.9l-1.2-4.9l-3.5-4.4l-4.1-3.2
		l-2,12.2l-1.5,4.1c-1.2,2.9-1.7,6.1-1.7,8.7c0,6.4,2.6,10.8,4.4,13.4l1.2,2.3c0-0.3-2.3,0-2.3,0c-2.9-0.3-8.2-0.6-17.2,2l-11.9,5.2
		l-3.5,1.5l-2.6-1.2l-2-4.4l1.2-3.5l2-9l-3.2-7.3l-3.2-7.6c0-0.3,0-0.3,0-0.6c0-4.1,4.9-9.9,8.2-13.4c0,0,1.2-1.5,2-2.3
		c4.1,3.5,13.1,4.4,18.3,2.9c2.6-0.6,4.1-1.7,4.4-2.9l0.3-1.2l-1.2-0.3c-2.6-0.6-7.3-4.4-8.2-8.4c0-0.9,0-1.7,0-2
		c0.3,0.3,2,0.3,2,0.3c6.4-0.3,8.4-0.6,13.4-8.2l0.9-1.5l-1.5-0.3c-11.9-2.9-14.3-4.1-15.4-14V65.6l0,0v-1.2l-0.6-0.6
		c-1.2-14.6-5.8-24.7-14.6-30.9c-9.9-6.7-12.2-7-27.9-6.1L200.1,31l-16.6,7c-5.2,1.7-19.2,2.9-28.2-0.9l-0.9-0.3l-0.6,0.6
		c-3.5,4.4-4.7,8.4-4.7,11.9c0,4.7,2,8.4,4.1,11.4c-1.7,0.9-7.3,3.5-7.3,3.5c-1.2,0.6-3.8,2-3.8,2L130.5,72l0,0
		c-2,0.6-20.1,7-20.1,7l-14.6,5.2l-12.8,2.3c-0.9,0-2.3,1.5-2.9,2.3l-0.3,0.6l0.6,1.5c5.2,6.1,13.1,7,21,7.9
		c1.7,0.3,2.9,0.9,2.9,1.2c0,0.6-1.2,1.2-2.3,1.7c-1.2,0.6-10.2,6.1-10.2,6.1l-34.1,20.1c-2.6,1.2-8.2,3.8-8.2,3.8l-17.2,7.6
		l-8.2,3.5c-1.7,0.9-1.7,2-1.7,2.6c0,1.7,1.7,3.5,2.9,3.8c6.4,2.3,29.4,2.3,34.9,1.5l24.2-4.9l4.7-2l9.6-2.6h1.2
		c0.3,0,0.3,0.3,0.3,0.3c-4.1,5.8-11.1,13.1-22.1,21l-22.7,14l-4.1,2.3l-21,10.8L19,194.3c-3.2,1.2-5.2,5.5-4.9,9.3
		c0.3,1.7,1.7,6.1,8.7,7c15.4,1.5,37.3-4.7,65.5-18.3l0,0c1.5-0.9,2.6-1.5,3.8-2c-16.9,19.8-34.4,34.9-52.7,51.2l-16,14.3
		c-4.7,4.1-5.2,11.4-1.2,16.6l4.7,2.6c10.8,4.1,20.1-2.3,28.2-8.2l2-1.5c11.4-7.9,20.7-17.8,29.4-27.1l1.5-1.7
		c-6.1,10.5-11.1,18.9-11.1,18.9l-8.4,17.8l-2.9,6.4c-9.9,22.1-13.4,41.6-15.4,59.1c-1.7,14-0.9,24.7,2.3,28.2l2.6,1.5
		c6.1,0.3,9.9-3.8,11.6-7.6l7.3-20.7l5.8-17.5c2.6-7,16.6-42.5,16.3-42.8c1.7-3.2,4.4-9.3,4.4-9.3l3.2-7.3l3.2-6.7
		c-2.3,17.2-4.9,46.6-3.2,69.6c-6.4,9-15.7,19.5-21,22.4c-3.8,2-4.9,2.9-4.4,4.4c0.3,1.2,2,1.2,3.2,0.9c0.3,0,23.6-4.7,23.6-4.7
		l0.6-0.3c2.3,23.9,4.9,36.1,6.7,42.2c6.1,21,22.7,65.2,43.1,82.4c9.9,8.2,15.7,11.1,18.6,8.7c4.9-3.5-1.5-18.9-9.3-35.8l-1.5-3.5
		c-7.6-17.2-10.2-25.9-13.4-38.4c7.9,2.3,27.7,7,34.6,8.4c0,0,46.9,7,50.7,7.6c-0.3,0.3-0.6,0.6-0.6,0.6l-10.5,9
		c-1.7,1.5-2.6,2.6-2.6,4.1c0,0.3,0,0.6,0.3,0.9c1.7,4.9,16.3,6.1,20.7,6.4c6.7,0.3,19.2-2.6,28.5-4.7c0,0,4.4-0.9,6.7-1.5l-2.3,6.7
		c-0.6,2-0.9,3.5-0.9,4.9c0,4.4,2.6,6.7,4.9,9.3l0.9,0.9c-7.3-0.9-11.9-2.3-17.5-6.7l-1.5-0.9l-0.6,1.7c-1.2,3.8-1.7,6.4-1.7,9
		c0,2.6,0.6,5.5,1.7,9.3c-3.2-2.6-8.4-7.3-8.4-7.3c-8.4-7.9-17.2-16-21.8-17.2c-7.6-2-17.5-3.2-23.6-0.3l-1.7,0.9l1.5,1.2
		c5.8,4.7,11.6,13.1,15.1,21.3c6.4,14.8,21.3,25.3,32.3,27.1c-1.5,0.9-4.1,2.6-4.1,2.6l-0.9,0.9l1.5,0.9c2.6,1.7,15.7,9.3,32.6,5.5
		l3.5,5.2c0.3,0.6,0.9,1.7,1.2,2.9c0.3,1.5,0.3,2.9,0.3,4.1c0,3.2-0.9,6.7-2,9.3c0,0,0,0.3-0.3,1.2c-6.4-0.9-9-2.3-12.2-5.8l-2-2
		c-16.3-16.9-16.9-16.9-32.6-16.9c-3.2,0-6.7,0.6-7,2.9c0,0.3,0,0.3,0,0.6c0,2,2.9,3.5,3.8,4.1c8.4,4.7,14,14,18.3,21.3
		c0,0,3.5,5.2,4.7,7c-0.9,0.9-11.6,9.6-11.6,9.6h3.2l8.4-0.3l5.5-0.6l4.1-0.9c0.3,0,0.6,0.9,0.6,0.9c0.9,1.2,2.3,2.9,7.9,3.5
		l2.6,0.9l0.9,0.6l-0.9,0.6l-1.7,2l-2.3,2c-2,1.5-3.5,2.9-2.9,4.4c0.6,2,3.5,2.3,10.5,3.2l3.5,0.3c9.9,1.2,14.6,3.2,18.6,4.9
		c4.1,1.7,7.6,3.2,15.1,3.5c16.9,0.9,28.5-2.9,37-8.2c4.9,3.2,8.4,6.1,10.5,10.8c1.7,4.1,6.7,7.9,10.5,10.5
		c6.7,4.1,20.4,4.1,23.6,0.6l0.3-0.3c9-3.2,17.2-14.6,16-22.1c-1.2-7.3-4.4-12.5-7-16.6c-3.8-5.8-6.1-9.6-1.2-15.1
		c1.7-1.7,4.4-4.4,7.9-4.1c3.8,0.3,7.6,4.1,11.1,9.9c5.5,9.6,15.1,15.7,27.1,18.3c12.8,2.6,26.5,0.3,34.9-6.1
		c1.7-1.2,3.5-3.2,5.8-5.8c20.1,3.2,30.3-9,38.1-21c2.9-4.4,4.4-11.6,5.8-18.9l1.5-6.7l1.7-6.1l0.9-2.3c0.9-2.6,1.5-4.4,7.3-10.5
		l1.7-2l-2.9-0.3c-18.6-2-25.9,9.3-32.9,28.8c-4.1,11.4-6.1,15.4-9.3,18.6c0.9-2.3,1.5-4.7,1.5-7c0.3-2.9,2.3-8.2,4.7-13.1l3.5-8.7
		l-1.2-0.3c-4.7-1.7-9-1.7-13.4,0c-8.2,3.5-13.4,12.2-15.1,16.6c-4.9,12.8-9.3,22.4-21.3,27.9c-3.2,1.5-3.2,2.9-2.9,3.8
		c0.3,1.2,2,1.5,4.4,0.9c3.5-0.9,14.6-11.1,18-19.2c6.4-14.6,11.6-23.9,20.4-25.6l4.7-0.6c0,0-0.3,1.5-3.5,5.5l-2.9,4.7l-2.6,6.4
		c-3.2,8.2-7,18.6-16.9,26.5c-7,5.5-15.1,8.2-23.9,7c-10.2-1.5-20.1-7.6-26.8-17.2c-4.7-6.7-9.9-10.8-15.4-11.1s-11.1,2.9-16.6,9
		c-5.8,6.4-1.5,14.6,2.6,22.1c2.6,4.9,5.5,9.9,4.9,14c-0.9,9.9-3.5,11.1-7.6,13.1l-2.3,1.2l0,0c-2.6,1.5-4.9,1.5-8.2-4.4
		c-2-3.5-2.6-6.4-2-9c1.2-4.4,5.8-7.3,9.3-9.3l1.7-0.9l0.9-0.6l-1.5-1.2c-4.7-2.9-10.2-0.3-13.4,1.2l-2,0.9
		c-2.9-2.6-4.4-11.6-2.3-17.5c0.6-1.7,0.9-3.2,1.2-4.1l0.9-1.2c4.4-4.7,6.4-8.7,6.1-11.9c-0.3-3.5-3.8-5.5-7.3-7.6l-2.9-2
		c-7.6-5.8-25.9,0.9-33.5,6.1l-5.5,4.1c-5.2,4.1-10.5,7.6-16,9c0-1.5,0.9-7.6,0.9-7.6l-0.6-5.2c18.3-18.6,41-24.2,55.3-13.7
		c0.3,0.3,0.6,0,0.6,0.3l2,3.2l2-0.9c-0.3-1.5-0.6-2.9-1.2-4.4c0,0,0-0.3-0.3-0.3c-3.5-10.8-13.7-27.7-44-27.9
		c-23.3-0.3-36.4,7.6-46,13.4l-7.6,4.4c-9.3,4.4-22.1,4.1-27.4,2.9c2.6-1.5,10.5-5.5,10.5-5.5l-3.8-0.3c-16.3-1.2-25-4.1-38.1-25.6
		l-4.4-10.2c0,0-2-4.7-2.9-7c9.6,0,17.5,7.6,25.6,15.4c6.1,6.1,12.5,12.2,19.5,14.8l2.6,0.9l-1.2-2.6c-2.6-6.1-4.1-12.2-4.1-18
		c0-0.6,0-1.5,0-2c17.2,9.6,29.7,5.8,48.6-0.3l9-2.9c5.8-1.7,19.5,0.6,27.1,2.9l5.5,1.7c8.2,2.6,15.4,4.9,17.5,6.4l0,0l1.2-2l0,0
		c-0.9-0.6-19.8-11.6-35.2-14.8c-0.3,0-0.9-0.3-1.2-0.3c-18.6-6.7-39-5.2-55.3,3.2c-1.2-1.7-2-3.8-2-6.4c0-2.9,0.9-6.1,2.6-9.3
		c1.2-2,6.4-1.7,10.8-1.2l9.9,0.6l-3.5-2.3c-6.7-4.7-22.1-3.2-29.4-1.5l-5.8,0.6l-9.3,1.5c-7.3,2-23.9-0.3-25.6-1.7
		c0.3-1.2,8.2-7.3,16.3-9.9c3.8-1.2,14.8-1.2,44.3,5.5l0.9-2c-4.7-2.9-23.9-9.6-38.4-9.9c-12.5-0.3-58.5-7-68.4-8.7
		c-11.6-2-30.9-7-35.8-9.6v-0.3c0.6,0,26.5-7.9,26.5-7.9l-1.5-1.5c-4.4-5.2-12.5-18.3-12.5-31.2c0-1.2,0-2.3,0.3-3.5l0.6-20.1
		l-0.3-2.9c-0.3-3.2-0.9-6.7-0.9-9.3c0-0.6,0-1.2,0.3-1.7c5.8,2.9,10.5,8.2,13.1,14.8c1.7,4.7,4.9,20.1,5.5,25.6
		c1.2,11.1,9.9,25.6,15.1,27.4l1.7,0.6l0.3-1.7l-1.2-4.4l-2-5.8l1.2-2.9c0.6-1.5,2-4.7,3.5-6.7c3.2,6.1,10.8,15.1,14.3,18
		c2.6,2.3,16.6,10.2,24.2,10.2l0.3-2.3c-2.9-1.2-10.2-10.5-13.7-21c-2-5.8-4.1-22.1-4.1-30.6v-9.6c0,0,0.3-6.4,0.3-10.2
		c2.6,4.1,6.4,10.5,7.6,13.4l13.1,31.2c4.7,11.4,10.5,19.2,17.2,24.2c0.9,0.9,2.3,1.7,3.5,2.3c0,0,0,0,0.3,0l0,0l3.2,1.2l-1.7-2.9
		l0,0l0,0c-4.1-6.7-6.7-11.1-6.7-17.8c0-4.4,1.2-10.2,3.5-18.3c0-0.3,0.3-0.3,0.3-0.6v-0.3c0-0.3,0-0.3,0-0.6c0-0.3,0-0.6,0.3-0.9
		c1.2-4.4,1.7-9,1.7-13.4c0-4.1-0.3-7.3-0.9-9.3c6.4,4.1,10.8,13.4,12.5,17.5c4.4,11.4,5.2,24.2,5.2,33.2c0,2.3,0,4.4,0,6.1
		c0,0.3,0,0.3,0,0.6c0,8.7,4.4,15.1,13.7,20.1l0,0c0.3,0,0.3,0.3,0.3,0.3l1.5-1.7l-0.9-1.2c-6.4-7.3-8.4-9.6-7.9-15.1
		c0.3-3.5,1.7-6.1,3.5-8.2c3.5,16.3,6.7,27.1,21.3,36.4c9,5.5,19.8,8.7,29.1,11.4l18.3,6.7c11.1,6.1,15.7,10.8,19.2,14.6l4.4,4.4
		l-0.6-3.5c-2-11.9-9-21.8-20.1-28.5l-12.2-7c-14.8-8.2-27.4-15.1-33.5-30l-6.4-18.3l-5.5-11.4c-6.4-8.4-14.3-24.2-16-30
		c-0.9-3.8-1.5-7-1.5-9.6c0-0.3,0-0.3,0-0.6l0.3,0.6c2.6,4.1,5.8,9.3,10.2,11.9c2.3,1.5,14.6,9,19.5,17.5l4.4,6.1
		c1.5,2,2.3,2.9,2.3,3.8c0,0.3-0.3,0.9-0.6,1.5l-1.7,9.3l1.2,1.2c0.6,0.3,0.9,0.9,0.9,0.9l1.5-2.6c2-4.1,3.8-7.6,9.3-7.3l15.7,4.1
		l4.4,1.2c-1.2,4.4-1.7,8.2-1.7,11.6c0,11.6,5.8,19.2,10.8,25.9l2.6,3.5l4.4,5.8c10.5,14.3,17.8,23.6,25,49.8c0,5.5-0.6,10.5-2,14.6
		c-9-14-18.3-21.8-24.7-26.2c-5.5-3.8-13.7-8.2-19.8-9c0,0,0,0-0.3,0l0,0h-0.3l-0.6,2.3c5.2,2,16.6,7.9,25.3,16.3
		c6.7,6.1,18,24.2,21.3,33.8l2.3-0.3l0.3-5.2l0.6-6.1l0.3-2.3c3.8-21.3,5.2-29.1-2-58.8l-2.9-21v-1.7c-0.3-7-0.3-15.1,1.5-22.1
		c0,0,0.6-3.5,1.7-7.9l3.5-4.4l9.3-11.6c0,0,7.6-9.3,10.5-12.8c2.3,5.8,6.4,22.7,6.4,27.7c0,0,0,4.1,0,4.7
		c0,10.8-0.6,12.8-11.6,40.5c-3.5,9-7.3,28.5-7.3,41c0,3.8,0.3,7,1.2,8.7l1.5,3.2l1.7-7.3c0.3-0.3,8.7-15.1,9.9-16
		c5.8-5.2,7.9-11.4,6.7-20.4c-0.6-5.2,0-11.4,1.5-16.9c2.6,4.9,4.9,12.5,3.5,19.8l-2,8.7l-1.5,4.1l-2,4.4l5.2-2.3
		c0,0,4.7-4.1,5.2-4.7c0,0,0.6-0.9,0.6-1.2l0.9-1.5l2.9-7.9c2.6-9,3.2-14.8,4.4-23c0.9-6.4,4.4-14.8,7.6-20.4c0.3,0.3,1.2,2,1.7,3.2
		l0.9,2.3c1.7,4.1,0,25.9-0.6,29.7l-0.9,3.5l5.8-6.4l5.5-6.7l2.9-4.4c1.5-3.5,2.3-6.4,2.3-9.6c0-4.4-1.2-9.3-3.5-17.2
		c-1.5-5.2-2-9.6-2-13.1c0-3.2,0.6-5.8,0.9-7.6c1.5,1.7,3.8,4.1,5.2,5.8c3.8,4.9,7,11.4,7.3,16.3v3.8l2.3-1.2
		c4.1-2.3,7.3-7.9,8.2-14.3v-9.3c0-2,0-4.1,0-6.4c0-7.6,0.3-15.7,2-18.6c2.9-4.7,4.1-5.2,6.7-5.2c-0.9,2.9-1.7,5.8-1.7,8.4
		c0,0.9,0.3,1.7,0.6,2.6V348v13.1l-0.9,11.6l1.7-0.9c0,0,18-10.8,18.3-10.8c0,0,1.2,1.2,1.7,2c-7.9,3.5-18.9,13.4-23,20.4l-6.4,10.8
		c-5.8,9.9-14,23.6-20.1,32.6l-2.6,2.6l-4.1,5.2c-1.7,2-2.6,2.9-2,4.1l0.3,0.6l0.3,0.3l1.7-0.3c4.9-1.7,9-4.1,12.2-7.6
		c11.1-11.6,16-20.4,20.4-28.5l3.5-6.4l4.9-7.3c4.7-6.7,15.1-15.4,21.8-19.2c-0.6,0.3,9,8.2,11.4,9.9c-9.6,14-21.3,25.3-30,30.3
		c-0.9-5.2-1.2-8.2-4.1-9.6l-1.5-0.9l-0.6,1.2c-16.6,27.7-21.3,30.6-29.4,36.1l-8.2,5.8c-1.5,0.9-2,2-1.7,2.9v0.6v0.3l0.6,0.3
		c0.9,0.3,2,0,3.2-0.9l2.6-1.7c5.5-3.8,17.2-11.9,20.4-17.2l3.5-4.9l4.1-5.2c0,0,2.6-3.2,4.4-5.8c0,0.3,0.3,2.3,0.3,4.1
		s-0.6,2.6-0.6,2.6l-1.2,2c-1.5,2.6-2.9,4.4-2.9,6.7c0,0.3,0,1.5,0.3,2l0.6,1.7l1.2-1.5c5.5-7.6,14.6-14,19.8-17.5l2.6-1.7
		c3.8-2.9,24.2-21.5,28.5-41.9l0.6-2.3c3.2-15.1,7-32.3,13.4-36.1c0,0.9,0.3,2.6,0.3,2.6l0.6,13.1l-0.6,12.2
		c-1.7,18-16.9,39.3-21,44l1.5,1.7l13.1-6.7l24.5-11.1c9-5.5,16.3-11.6,20.4-17.5c4.4-5.8,7.3-12.2,9-18.9h0.3v-0.6
		c1.7-6.7,2.6-13.1,2.6-18.6c2.9,4.1,5.8,9.6,5.8,11.4h2.3c0.3-10.2,6.1-17.2,11.1-21.3c5.2-4.7,11.4-7.3,16-8.4
		c-3.5,5.2-5.5,12.2-5.8,16.6c-0.9,7.6-4.1,20.7-11.1,32.3l-1.5,2.3l7-2c4.1-1.2,8.4-2.3,11.1-1.7c-19.8,24.2-35.2,31.7-42.5,35.2
		c-9.9,4.7-18.3,5.8-26.8,6.7l-9.3,1.5c-14.3,2.6-27.4,8.2-42.2,18.3c-0.6,0.3-4.7,3.2-4.7,3.2l-2.9,2c-5.8,4.4-14.3,12.2-14.3,12.2
		c-8.2,7.3-14,12.5-24.7,16c-4.9,1.5-14,6.4-18.6,11.4c0,0,0.3,0.3,0.9,0.9c0,0.6,0,1.2,0,1.2l22.1-1.5c0,0,13.4-1.2,15.7-1.5
		c-0.3,2.3-2.3,5.8-4.1,7.9c-10.8,2.9-29.1,6.4-33.8,6.7l-14.8,0.9c-13.7,0.6-24.7,0.9-34.4,11.9l1.2,1.7
		c11.9-5.5,25.6-8.7,36.1-8.4c10.2,0.3,49.8-7.9,55.3-11.6l12.5-10.2c7.9-7.3,15.7-14.6,27.4-15.4c-4.7,7.3-16.9,23-25.9,29.4
		l-9,6.1l0,0c-11.9,7.6-24.7,13.4-39.9,7.6l-1.2,2c0,0,9.3,5.5,9.6,5.8l-8.7,0.6l-6.7-0.9c-10.8-2-23.9-4.7-33.2-2
		c-5.5,1.5-16.6,7.6-17.8,12.5l-0.6,2.6l5.8-3.2c2.9-2,5.5-3.8,13.7,0.9c12.8,7.3,19.5,16,23.9,21.5c2.6,3.2,4.4,5.2,6.4,6.1
		c-0.6,0.3-4.7,2.9-4.7,2.9l-2.6,0.6v2.3c7.6,1.5,20.1-1.2,23-11.9l0.3-1.5l-4.9,0.3c-7.6,0.6-9,0.9-13.7-4.9
		c-4.9-6.4-20.4-18.6-27.4-22.1c7-1.5,14.8,0.9,22.4,3.2c7.9,2.3,16,5.2,23.3,3.2c7.9-2,14.6-4.9,17.2-7l1.5-1.7
		c0,0-3.8-1.5-5.2-2.3c1.5-0.6,2.9-0.9,2.9-0.9c7.6-2.9,22.1-8.4,30.6-13.4l3.5-2l2-2l13.4-14.3l25.9-27.7h-2
		c-14,0.3-28.5,4.9-38.4,11.9c-13.7,9.6-18.9,14.6-24.7,20.4c2-4.9,2.6-8.7,2.3-11.1c-0.9-0.9-13.1,1.5-13.1,1.5s-4.4,0.6-8.4,1.2
		c13.4-7.3,23.3-15.4,33.5-24.2l5.5-4.9c0,0,6.4-4.7,10.2-7.6c14.8-9.3,33.2-15.4,50.4-16.6c11.9-0.9,20.4-4.1,24.2-5.8
		c12.2-5.5,19.8-11.1,25.3-16c-3.8,27.4-18.6,59.4-27.9,79.2l-5.5,12.2c-0.6,1.2,0.3,2.9,2,4.4c1.2,1.2,4.7,3.2,9.9,0
		c32.6-19.5,55.6-68.7,62.3-128.4c1.5,0,2.9-0.6,4.1-1.7c3.2-3.5,3.5-11.6-2.3-19.2c0.3-4.4,0.3-8.7,0.3-13.1c2-0.3,2.9-1.2,3.5-2
		c2-3.2,1.2-9.3-3.8-14.8c0-2,0-4.1-0.3-6.1c-2-34.4-5.8-56.8-12.2-78.6c19.5,46.6,27.1,98.7,32.3,142.4l0.6,4.4
		c0.6,3.8,1.5,5.5,2.9,6.1c1.7,0.6,3.8-0.9,4.9-2.3c14.6-14.6,17.5-36.4,17.2-52.4c0-17.5-3.8-33.5-8.4-44.5c4.1,2,7.6,3.5,10.5,3.2
		c8.2-0.3,12.5-1.7,13.7-4.7c0.3-0.6,0.6-1.2,0.6-2c0-1.2-0.6-2.6-1.5-4.1c-3.8-5.8-38.7-62.6-54.4-89.7
		C692.7,187.3,708.4,202.7,722.1,205 M98.8,344.5c-1.7,0.9-2.9,1.2-2.9,1.2c2-1.2,7.3-3.8,9.9-5.2c0,0.3,0,0.6,0,0.9
		C104,342.2,100.8,343.6,98.8,344.5 M503.7,536.3c8.4-5.8,21-15.1,24.7-36.7c0.9-4.7,3.8-6.1,6.7-7.6c0,0.3,0,0.3,0,0.6
		c0,8.4-3.5,31.4-14.8,42.2c-7.3,7-14.3,7-19.8,5.8C502,539.3,502.9,537.8,503.7,536.3 M280.4,546.2l-5.8-1.5c0,0-0.9-0.3-1.5-0.6
		l0.6-0.3l2.9-1.5l-7-1.5c-0.6,0-5.5,0.6-9.3,1.2c1.7-1.5,4.4-3.8,4.4-3.8l-0.9-0.9l-6.7-10.2c-3.2-5.5-7-11.9-14.6-18.9
		c0,0-0.9-0.9-1.5-1.5c0.9,0.6,3.8,1.2,12.2,4.9c4.7,2,7.9,5.2,11.4,9c4.9,5.2,10.5,10.8,20.4,12.5c-0.3,1.5,0.3,7,0.3,7l2.3,6.4
		l0.9,1.5c-0.3,0-1.5,0.9-2.3,1.2c-0.3-0.3-2-1.7-2.3-1.7L280.4,546.2z M381.5,569.5c1.7-1.7,3.8-4.1,6.7-5.8
		c-1.2,1.7-2.3,4.1-2.3,7.3c0,2.9,0.9,6.4,3.2,10.5c1.2,1.7,2.3,2.9,3.8,4.1c-3.8,0.3-9.3-0.6-11.4-2c-4.1-2.9-8.2-5.8-9.6-9.6
		c0,0-1.2-2.6-2.9-5.2c-1.5-2-3.8-4.1-3.8-4.1l-2.3-2.9c0.3-0.3,0.6-0.3,0.9-0.6c4.4,1.5,16,7.3,15.7,8.7l-0.3,1.2L381.5,569.5z
		 M381.2,518.9c0.6,0.6,0.9,1.7,0.6,3.2c-0.3,1.2-1.2,2.9-2.3,4.4c-1.7-1.7-3.5-5.8-4.7-8.7C378.5,517.4,380.3,518.3,381.2,518.9
		 M377.7,546v5.2l0.9,8.2l0.3,4.1c-3.5-2-8.2-4.1-11.1-5.5C371.3,554.1,374.5,550,377.7,546 M329.6,541.6l4.1-2.3l9-6.7
		c5.2-4.7,11.4-9.9,23-13.4c1.2-0.3,2-0.6,3.2-0.9c2.6,2.3,5.2,9,5.8,14.3c-4.1,4.9-8.7,9.9-11.1,11.9c-5.5,5.5-21,15.1-33.2,8.2
		c-3.8-2-4.9-4.9-4.9-9.3c0-0.3,0-0.3,0-0.6C327.3,542.5,329.6,541.6,329.6,541.6 M378.5,499.1c-1.2-0.6-2.3-0.6-3.5-0.9l-3.2-3.8
		c-2.3-3.2-4.4-6.4-12.5-9l-4.9-1.5c-2.9-0.9-4.7-1.5-6.1-2.3C366.3,482.5,373.6,490.6,378.5,499.1 M340.1,481.6
		c2.6,3.5,9,6.7,14.3,7.3c4.4,0.6,10.2,4.4,13.1,7.9c-4.1,0-8.2,0.3-12.5,1.2l-7-2.3c-8.4-2.6-19.5-5.8-22.7-10.5
		C329.9,483.4,334.9,481.9,340.1,481.6 M311.3,492.7c2.6-1.5,5.2-2.9,7.9-4.4c5.5,5.2,14.3,8.4,25,11.9l2.3,0.9
		c-7,3.2-14,7.9-20.4,14c0-1.2-0.3-2-0.3-3.2c0-3.8,1.2-6.4,4.7-11.9l0.6-1.2l-1.2-0.6c-4.1-2-11.4,4.1-18.9,10.8
		c0,0-0.6,0.6-1.2,0.9C309,509,297,499.7,297,499.7c-0.3-0.3-0.3-0.3-0.6-0.3L311.3,492.7z M289.2,503.4l0.9-0.6
		c0.9,0.6,2,1.2,3.8,1.5c6.7,1.2,11.4,12.8,13.4,17.8l1.7,4.1l1.2-2.6c0.9-1.7,6.4-9.3,9.3-11.4c0,1.7,0.3,4.1,0.3,4.1
		c0.3,2.3,0.6,4.7,0.6,7.6c0,2.3-0.3,5.2-0.9,8.2c-0.6,2-0.6,4.4-0.6,6.1c0,4.9,1.2,9,2,11.1c-0.3,0-0.3-0.3-0.3-0.3
		c-1.5-0.6-4.9-2.6-7-5.8c-1.5-2.3-2-2.9-2.9-2.6c-1.2,0.6-0.9,0.9,0.9,5.5c1.7,4.1,6.1,6.7,11.6,9.6l4.4,2.6
		c11.4,7,27.1,0.3,33.2-4.1c4.1-2.9,8.2-6.7,11.4-9.9c-6.7,9.6-19.2,17.5-25.9,19.5c-8.4,2.6-25.3,3.8-34.1-0.9
		c-8.7-4.4-16.3-7.3-26.2-6.7c0,0-1.7-0.3-2-0.3c0.6,0,2.3-1.7,2.3-1.7c2.9-2,6.4-2.9,10.8-2.6c0.9,0,2.6,0,2.9-1.2
		c0.6-1.2-0.6-2.3-2.6-4.1l-3.2-3.2c-3.5-3.8-1.2-15.4,0.3-21.5c1.2-5.5-2.6-14-5.2-18.9C288.6,503.7,288.9,503.4,289.2,503.4
		 M322.6,449.3c-3.8,1.2-9,2.9-9,2.9c-8.4,2.9-18,6.1-23,5.8c-2.3,0-4.7-0.3-6.4-0.3C295.6,448.1,311.6,447.6,322.6,449.3
		 M704.3,163.7l3.8,5.5c2.3,3.5,15.1,20.7,21.5,28.5c-21.5-15.1-43.7-49.5-48-58.8c-4.7-9.9-41.6-36.7-51.8-38.7h-0.3l-2.6-6.4
		l-4.7-9.9c9.3,3.5,26.2,16,30,20.4c8.2,9.3,15.7,16.6,26.5,25C687.1,136.6,697.9,153.5,704.3,163.7 M610.6,80.7
		c2.9,1.2,7.6,2.9,9,10.8c0.3,0.6,0.3,1.2,0.3,1.7c0,1.5-0.3,2.3-1.2,2.9c-1.2,0.9-2.9,0.3-4.9-0.9c-2.6-1.7-14.6-10.5-16.6-13.4
		l-2.9-4.9c0,0.3,4.9,0.6,4.9,0.6l1.5,0.3l7,2c0,0,0.6,0.3,1.2,0.3l0,0L610.6,80.7z M616.1,77.8c-1.5-1.2-2.9-2.3-2.9-2.3
		s-1.5-0.9-2-1.2c0-1.7,0.3-3.2,0.3-4.4c21.8,10.8,52.7,28.2,67.8,48.6l-5.5-4.1L657.1,102C645.2,92.1,631.5,81,616.1,77.8
		 M667.6,84.5L667.6,84.5L667.6,84.5L667.6,84.5 M667.3,78.1c-7.6-0.9-22.7-7-24.7-12.2l-2.3,0.6l0,0l0,0c0,0,0,0,0,0.3
		c2,7.9,10.2,13.7,17.5,18c11.6,6.7,28.8,24.5,34.1,33.8c1.7,2.9,8.7,8.4,14.6,13.1c0,0,2.6,2.3,4.9,4.1
		c-15.1-2.6-17.5-4.1-21.5-8.2l-5.8-4.4c-14-23.9-50.1-44.3-73.7-55.3l-1.2-2l-1.5-2.3l1.5-11.6c2.6,0.3,4.7,0.3,6.7-0.3
		C629.2,54,656,65,667.3,78.1 M600.7,96.2l0.6,3.2c0,0.3,0,0.6,0,0.9c0,1.7-0.9,3.5-2.3,4.4s-2.9,0.6-4.1-0.3l-6.1-8.2l-5.2-7v3.5
		c0,2.6,4.4,13.1,7,14.8c7.3,5.8,12.8,10.8,15.1,20.7c1.2,4.9,1.5,7.3,1.5,8.4c0,0.6,0,0.9-0.3,0.9l-4.4-2.3
		c-3.2-2-10.8-11.6-13.4-16.3c-2-3.8-7-22.1-7.9-26.2l-1.7-4.1l-6.4-7.3c-0.3-0.3-3.8-4.7-3.8-4.7l-2.3-1.7l-0.3,1.7
		C566,88.9,561.1,93,555,95.3c-2.6-2.9-7.3-6.1-11.1-7l0,0l0,0c0,0-0.3,0-0.3-0.3l-0.6,2c1.5,0.9,6.7,9.6,9,15.7
		c1.7,4.4,2,7.3,1.2,9c-0.6,0.9-1.5,1.5-3.2,1.7c-1.7,0.3-6.4-3.5-7-5.2c-0.3-0.3-0.3-0.3-0.6-0.6l0,0c-0.3-0.6-0.9-1.5-1.5-1.2
		c-1.2,0.3-0.9,0.9-0.6,3.2c0,0.3,2.9,6.4,2.9,6.4l5.2,11.4c1.7,5.8,1.7,9.6,0.6,10.8c-0.6,0.9-1.7,1.2-3.8,0.9
		c-4.1-0.3-7.3-2.9-9-4.4l-2.6-2v2.3l1.5,6.7l1.2,4.4c0,2-0.3,4.7-1.7,6.1l-3.5,0.9c-2.3-0.3-4.7-2.6-6.1-4.4l-3.8-3.5l-0.3,2.6
		l-1.2,10.2c-0.6,3.2-2.9,9.6-4.4,10.5c0,0-1.5,0.6-6.1-4.7l-1.7-3.5l-4.1-7.3l-0.3,2.9l-0.6,3.2l-0.3,2.9l-4.4,11.1L497,178
		l-4.4,4.9l-2.6,2.3c0,0-0.6,0.6-0.9,0.6c0.3,0,0.3-1.2,0.3-2.3v-1.7v-3.2c0-0.3,0-0.3,0-0.6c0-3.2,1.5-7.9,2.9-9.6l0.9-1.5
		l-1.7-0.3c-5.8-1.2-9.9,11.1-10.8,13.7c-1.2,3.5-3.2,6.4-5.2,7.6l-2.6,0.3c-0.9-0.6-1.5-6.7-1.5-8.7l-0.3-2.9l-0.9-2.3l-1.5,1.7
		l-0.9,1.7l-0.6,3.5l-0.9,4.1c-1.2,4.1-4.4,9.6-6.1,9.3c-3.2-0.3-4.7-4.7-5.8-8.4c-1.2-4.1,0.3-11.1,1.7-13.1l1.7-1.5l-2.9,0.6
		c-0.3,0-4.9,5.8-5.5,7.6l-2.6,8.4l-1.5,4.9c-0.6,1.5-2.6,2.3-4.4,2.6c-0.6-0.9-0.9-1.5-0.9-1.5c-4.4-5.8-9-11.9-10.8-16.9
		c2.6,1.2,9,4.1,9,4.1l-0.9-2.6l-1.7-4.1c-1.2-2.3-2-4.4-2-6.4v-0.3c1.2-5.8,6.7-6.4,17.8-7l8.4-0.6l0.6-4.4
		c0.9-7.3,1.7-13.1,10.8-19.2c4.4-2.9,4.7-8.2,5.2-13.7c1.7,2,2.6,5.5,2.6,9.3v1.2l2.3,0.3c0.9-3.8,7.3-11.6,14.8-16.6
		c-2.3,4.1-4.4,9.9-5.2,17.5c-1.5,11.6-4.9,13.1-10.2,14.8l-5.2,2.3c-5.2,2.9-11.4,6.7-11.4,10.5c0,0.3,0,0.6,0,0.9l0.3,1.7l5.5-4.1
		l10.2-6.7l12.8-4.1l13.4-4.1c9.6-4.7,14.6-12.5,15.7-25.6c0.3-3.2,2.3-5.2,4.7-7.6c3.2-3.2,6.4-6.7,4.1-13.4l-2.6-4.9L520,84.2
		l-2.3-6.7l-1.2,3.8c-1.7,6.7-13.1,13.4-18.9,12.8l-4.9-0.9c-4.4-0.9-9.6-1.7-16.9-0.9c2.9-2,7-2.9,12.2-3.2l4.7-0.3
		c7-0.6,11.6-5.2,11.9-11.9c0,0,0-0.3,0.3-0.3l0,0c0-0.3,0.3-0.3,0.3-0.3l-2.3-0.3c-1.5,3.8-5.5,7-8.7,7.9c-2.6,0.9-5.5-1.5-7.6-4.9
		c6.1,0.6,9.9,0,12.2-2.3c2.9-2.9,2.9-8.7,1.7-16.9c-1.5-11.1,7-17.8,12.8-22.1l2.9-2.3c4.1-3.8,11.6-2.3,15.7,0
		c6.1-4.1,19.5-9.6,33.2-9.6c12.5,0,23.6,4.7,31.4,8.2l6.1,2.3l3.2,0.9h1.2l9.3,0.6c0,0,3.5,0,5.2,0c-0.6,1.7-2,3.8-8.7,4.7
		c-6.7,0.9-9,0.3-14.3-1.7l-2.6-0.9l2,4.4c0.9,2,1.7,3.2,3.5,4.4v0.9c-0.3,2-0.6,3.8-0.6,5.8c0,0.3,0,0.6,0.3,0.9
		c-2-1.7-4.1-3.5-5.8-4.9l-2-1.7c-0.6-0.3-1.2-0.3-1.7,0.3c-0.3,0.6-0.3,1.2,0.3,1.7l2.3,1.7c2.6,2,5.8,4.4,8.2,7.3
		c0.3,1.5,0.9,3.8,0.9,3.8s1.5,4.1,2,6.1c-2,0-6.1,0.3-6.1,0.3l-7,0.3l-5.2-4.7l-1.7-1.5l-2,0.6l2.3,4.4c2,3.5,4.9,8.4,4.9,13.1v0.3
		c-9.3-1.5-12.2-4.4-17.8-12.2l-1.7,0.6c0,0.3,0.3,0.9,0.3,0.9c2,7.9,9.9,13.7,13.4,14.8l4.9,2l2.9,2l2.9,2.3l0.6-2
		c0,0,0.3-1.2,0.6-2.3c0.3-1.2,0.6-2.3,0.9-2.6c0.6,0.6,1.5,1.2,1.5,1.2c3.8,3.8,10.2,10.2,16,13.1c3.5,3.5,7.9,9.6,9.6,14.3
		c2,5.2,0,15.7-1.7,18.6c0,0.3-0.3,0.3-0.3,0.3c-1.5,0-4.4-3.5-5.5-5.8l-1.2-2.9l-2.9-5.2l-1.5-1.7c0,0-1.2,2.6-0.9,4.1
		c-2-4.1-4.1-6.1-6.1-8.2c0,0-0.3-0.6-0.6-0.6c1.2,0.3,4.4,1.2,4.4,1.2l0.3-1.2c0.6-3.5-0.6-14-2.6-16.6l-1.2-1.7L603,93l-2.6-1.7
		c0,0-3.2-2.3-3.5-1.7L600.7,96.2z M556.4,152.4c1.7-3.5,2.3-7.9,2.3-11.4c0-2.6-0.3-4.7-0.6-6.1l-1.2-3.8c0,0-0.6-1.7-0.9-3.2
		c0.3,0.6,0.9,1.2,0.9,1.2l3.5,5.5c27.7,68.4,55,109.5,74.2,134.5c0.6,4.7,0.9,9,1.5,13.1C615.8,261.8,570.1,191.4,556.4,152.4
		 M636.5,290.1c0,1.5,0.3,2.6,0.3,4.1c-24.5-19.8-55.6-68.1-72.2-109.2C582.3,221.1,610,265,636.5,290.1 M573.3,97
		c3.8,7.3,3.2,7.9,1.2,9.6l-0.9,0.9l0.9,0.9c1.7,1.7,4.7,6.7,4.1,12.8c-0.3,3.5-1.2,5.5-2.3,5.8c-0.9,0.3-2.9-0.9-4.7-4.1l-5.5-14
		c-2-4.1-3.8-6.1-5.2-7.3c1.2-0.9,2.3-1.7,2.3-1.7l4.7-2.6l0.6-0.3c0,0,0.3-0.3,0.3-0.6c0.6-0.9,2.3-3.2,2.3-3.2l3.5-3.8
		c0.3,0,1.7,1.2,3.5,6.4c0,0,0,0.6,0,0.9c-0.3-0.3-1.2-1.5-1.2-1.5l-1.7-0.3l-2,0.6L573.3,97z M562,132.6v-3.2l-0.6-13.4h0.3
		c0.6,3.5,2.6,11.1,4.7,14.3l7.9,7.3l4.4,3.8c1.5,1.7,3.5,7.6,4.9,12.2l2.6,7.3l12.8,25.9l1.2,6.1l0.6,5.5c0.9,2,2.6,2.3,3.8,2.6
		l2.3,1.2l11.9,19.5l7,10.5l4.9,7.3c1.2,8.4,2.3,16.9,3.2,25C614.9,239.1,588.4,198.6,562,132.6 M598.6,157.9
		c1.2,3.8,2.3,11.1,2.3,15.7c0,0.6,0,0.9,0,1.2c-2-3.2-5.2-9.6-7.3-14l-4.4-8.2c-1.5-2-7-19.5-7.6-22.1v-0.3c0-0.6,0.6-1.2,0.9-1.7
		c0,0.6,0.6,2.9,0.6,2.9s2.3-1.7,3.2-2.3c1.2,1.7,8.7,11.1,8.7,11.1c0.9,0.9,2.6,0.9,3.8,1.5c-0.6,2.3-1.2,5.8-1.2,9.9
		C597.8,153.8,598,156.1,598.6,157.9 M614.1,200.4c-0.3-0.3-0.3-0.9-0.3-1.5c0-1.7,0.9-4.1,1.5-6.1c1.5,0.9,3.2,1.5,4.4,1.2
		c1.2-0.6,2-1.2,2.9-2.6c1.7,7.9,4.1,19.5,6.1,32.6C623.1,215.8,615.5,203.6,614.1,200.4 M614.4,134.3l1.7,2.9
		c0.6,7.6,1.7,10.5,3.2,14c0.3,0.6,1.7,2.9,1.7,2.9c1.2,2,2.3,4.1,2.3,6.4c0,0.6,0,0.9,0,1.5c0,0.6-0.3,2.6-0.9,4.7
		c-0.9,2-2.3,3.8-2.3,3.8l-0.6,1.5l-0.3,6.7l-0.9,4.7c0,0-0.6,2.3-1.2,2.9V185l-1.5-4.7l-2-7.3l-1.5,4.4l-1.5,7L610,187l-1.2,2
		c-1.5,2.3-2,2.3-2,2.3s0-1.2,0.6-2.9c0.9-2.3,1.2-7,1.2-12.8c0-1.5,0-3.2,0-4.9v-4.4l-0.9-6.7c-0.9-3.8-1.7-8.7-1.7-12.8
		c0-1.2,0-2,0.3-2.9c2.6,0.6,5.8,0.6,7.6,0.9h1.2v-1.2c0.3-1.2,0.3-2.3,0.3-3.5L614.4,134.3z M508.7,186.7c-0.6-1.5-0.9-3.5-0.9-4.9
		c0-1.2,0.3-1.7,0.3-2h1.2c1.5,0.6,3.8,3.5,5.5,7.9l0.9,2.3l2-4.4c1.2-2.3,2.3-4.9,3.5-7.3c17.2,47.5,55.6,109.8,81.5,138
		c0.6,3.8,0.9,8.4,0.9,13.1c-37-30.6-78-94.9-94-138.6l0,0L508.7,186.7z M526.1,174.2c0-0.3-0.9-2-1.7-3.8c0.3-0.9,0.6-2,0.6-2.6
		c0.3-4.4,0.9-4.7,2.6-5.2h0.3c0,0.9,0.3,2,0.3,3.2C528.2,168.9,527.6,172.1,526.1,174.2 M429.8,244.6c1.5,7,4.9,16.6,8.4,21
		l-1.7,4.4c-0.6,2-1.2,3.8-1.5,5.5c-2-1.2-5.2-2.9-5.2-2.9l-5.5-2.9c-0.9-0.6-1.2-0.6-1.7-0.6l-0.6-4.1l-1.2-5.2
		c-1.7-4.9-4.1-11.9-2.9-15.1l1.5-3.8l5.2-13.1c0.6-2.3,3.2-13.7,2.9-18.9c0,0.3,0.3,0.9,0.3,0.9c1.7,4.4,3.5,9.3,3.5,12.5v0.3
		l-0.9,4.4c-0.6,3.2-1.5,7-1.5,11.6C429.2,240.6,429.5,242.6,429.8,244.6 M435,235.9l0.9-12.2v-1.7c2.9,2,7,7,8.2,18.3
		c0,0.9,0.3,2,0.3,2.9c0,4.7-1.2,9.3-2.9,13.7C437.3,252.5,435,245.8,435,235.9 M443.2,272.6c0-0.3,0.3-0.6,0.6-1.2
		c1.2,1.7,1.7,3.8,1.7,7c0,1.2,0,2.6-0.3,4.1c-0.6,4.7-1.5,7.3-2.3,9l-0.9-2.9C440,281.3,441.4,277,443.2,272.6 M359.6,20.8
		c2-2,13.4-3.2,20.7-3.5c13.7-0.3,21.8,3.2,27.9,5.8l4.1,1.7l2.3,0.6l2.6,0.3l2-0.3l1.5-0.3l3.8-1.5c0,0,2-0.9,2.3-0.9
		c-0.3,0-0.6,1.5-0.6,1.5l-0.3,0.9l-1.7,0.9c-2.9,1.7-5.2,2.9-13.1,2.9l-13.4-3.2c-6.4-2-13.7-4.4-20.1-4.4l-6.4,0.9l-5.8,1.5
		c-4.9,1.5-8.4,2.3-10.8,0.3C356.4,23.1,358.5,21.9,359.6,20.8 M390.2,31l-0.3,1.5l-0.6,1.5l-0.9,1.2l-1.2,0.9l-1.5,0.9l-1.7,0.6
		l-1.5,0.3l-1.5,0.3h-2l2.3-0.3l2-0.6l1.7-1.2l1.2-1.5l0.9-1.5l0.3-1.5l0.3-1.2L390.2,31z M370.1,32.1l0.6,1.5l0.9,1.5l1.5,1.2
		l1.5,0.9l2.9,0.6l-3.5-0.6l-1.2-0.3l-1.5-0.6l-0.6-0.3l-1.2-0.9l-1.2-1.2l-0.9-1.2l-0.6-1.5l-0.3-1.2l2.9-0.6v0.9L370.1,32.1z
		 M373.9,31.8c-1.5,0-1.5-1.7-1.2-3.2c1.2,0,2,0,3.5,0.6C375.9,30.4,375.6,31.8,373.9,31.8 M351.8,77.8h-2.6c-2.9,0-9.9,2-17.2,4.4
		l-15.4,4.1c-9.6,0.3-14.8-3.5-18-8.4c6.1,3.8,12.8,3.2,24.2,0.3c10.8-2.6,13.4-2.9,22.7-2.3l16.9,1.2c0.3,0.3,0.3,0.3,0.9,0.9
		L351.8,77.8z M425.4,201.8c-1.7-4.1-6.1-9.6-7.3-11.4l0.6,4.1l1.5,5.5l1.7,10.5c0,6.1-3.2,19.2-4.9,22.4l-1.2,2.3
		c-0.9,2-2,4.7-2.9,4.7c0,0-1.2,0-3.2-3.8c-3.8-6.7-4.1-17.8-3.2-21.5l0.9-3.5l1.5-6.4l-1.7,0.3c-0.3,0-0.6,0.9-0.9,1.2l0,0l0,0
		c-2,1.5-3.5,4.7-4.1,11.6c-0.3,1.5-0.3,3.8-0.3,6.4c0,5.8,1.2,14,7,21.3l0,0c5.5,5.5,8.4,18.9,9.6,25.6c-0.3,0.3-0.6,0.6-0.6,0.6
		l0,0c0-0.3-1.2-2.3-1.2-2.3c-0.9-2-2.3-4.1-4.1-4.4c-2,1.2-0.9,2.6,0.3,5.2l1.7,6.4c0,2.3-2.9,8.4-5.5,10.2
		c-0.3,0.3-0.9,0.6-1.2,0.3c-2.6-1.2-7.3-12.5-8.2-16.6l-0.6-3.8v-4.7l-0.3-4.7l-1.5-0.3l-1.2,0.3l-0.6,0.6l-0.6,0.9l-0.3,3.5
		c0,0-0.3,2.3-0.3,3.5c-0.6-1.7-1.5-4.9-1.5-7.3l-0.3-1.5l-0.6-1.2l-1.5-0.3L389,256l0.3,3.2v2.6l0.9,2.6c1.5,4.1,2.9,9.9,0.3,14.6
		c-0.6,1.5-1.5,2-2.3,2c-1.7,0-4.1-1.7-5.2-3.5c-1.7-2.6-2-9.9-2.3-14.3c0-0.6,0-2.6,0-2.6c0-3.2,0-4.4-2.3-5.8l-1.7-0.9
		c0,0-0.3,2.6,0,5.2c0,2.6,0.6,5.5,0.6,5.5c0,3.5-4.9,8.2-7.9,10.2c-1.5-2-3.2-6.7-3.2-10.8c0-0.6,0-0.9,0-1.2c0,0,0.3-6.4,0.3-9.3
		l0.3-4.9l1.2-4.7c0.9-2.3,4.1-9.3,7-9.3c0.6,0,0.6,1.5,0.9,3.8l0.9,5.8c0,0,0.6,2.9,1.5,5.5l0.9,2.3l0.9,1.7
		c1.7,3.5,3.2,5.2,4.9,4.9c1.5,0,2.9-1.5,5.2-4.9l1.5-2l3.8-6.1c1.7-4.1,4.4-9.3,4.4-9.3c1.7-4.7,3.2-22.1,0.6-25.9l-1.7-2.9l-2-2.6
		l-4.1-2.3l0.9,2.6l0.9,3.2l1.5,5.5c1.5,3.8-0.9,18.6-2.6,21.5l-1.5,2.9c-1.7,3.5-5.5,11.4-8.2,11.1c-1.2,0-1.7-3.5-2-6.1
		c0-0.9,0-6.1,0-6.1c0.3-5.8,0.6-14.3-1.5-19.5l-1.5-3.5l-2.3-4.4l-3.2-2.3v1.7v2.6v6.7c-0.3,7.3-2.3,9.9-5.5,13.7l-3.5,4.9
		c-1.5,2-2.3,2.6-2.9,2.6c-0.9,0-2-2.9-2.3-4.1c-0.9-2.6-1.5-14.8-0.9-18.6c0.3-0.9,0.6-3.2-0.9-3.5l0.9-10.5c0,0,10.5-7.9,12.5-9.6
		c3.2,7,6.1,10.8,9.6,10.5c7-0.6,12.2-11.4,13.7-16.6c3.5,4.4,5.2,9,5.5,14.8v1.7l1.5-0.6c4.4-2,10.5-9.6,11.4-13.7l1.5-10.8
		l-0.6-5.8l-0.6-6.1c0-1.7,1.2-5.2,3.8-9.9c6.1-10.8,6.7-32.6,6.4-36.1v-1.7l-1.5,0.9c-2.3,1.2-2.9,1.2-3.5,0.6l-2-1.7l0.3,2.6
		c0.3,2.3,0.3,4.9,0.3,8.2c0,9.3-0.9,20.1-3.8,25.3l-1.7,2.6c-2.3,3.8-3.5,6.1-3.5,14.6c0,2.6,0,5.8,0.3,9.9c0,0.3,0,0.6,0,0.9
		c0,4.9-2.3,10.8-4.7,13.1c-2-4.9-2.9-8.4-7.9-14.3c-0.3-0.3-0.3-0.3-0.3-0.3c0.3-4.7,0.3-10.2,0-12.2l-0.3-1.2l-1.5,0.3l-3.2,0.9
		v1.2c1.5,7.9-0.9,22.1-5.8,27.7c-1.5,1.5-2.9,2-4.4,2c-1.7-0.3-3.5-3.8-4.4-9.9v-6.7l1.2-9.6l-1.7,0.9c-3.8,2-8.4,11.1-9,14.6
		c-0.3,2.6-5.5,8.4-7.9,9.6c-0.6-4.1-1.2-7-1.2-9.3c0.3-1.2,0.6-2.3,0.6-3.5v-0.3c0.3-0.9,0.3-1.7,0.9-2.6
		c2.6-6.4,6.1-12.2,10.5-15.7c0.3-0.6,0.6-1.2,0-1.7c-0.3-0.6-1.2-0.6-1.7,0c-4.4,4.1-8.2,9.9-10.8,16.6c-0.6,1.2-0.9,2.6-1.2,3.8
		c-3.2,4.1-9.6,10.5-14.3,10.8h-1.7c-7.3-1.7,4.9-18,7.9-19.5c7.6-4.1,10.8-6.4,13.4-13.4c0-0.3,0.3-0.3,0.3-0.3l-1.7-1.2l-7,4.7
		c-3.2,1.7-6.7,4.4-10.2,7.3c1.5-6.4,4.9-14.3,11.6-18.9c5.8-4.1,11.6-6.7,25.3-6.7v-2.3c-11.4-0.6-12.5-2.9-12.8-4.7
		c5.5-0.9,17.2-9,20.7-12.2c4.4-1.2,7.6-4.1,9.3-7.9c1.2-2.3,1.7-4.9,1.7-7.6c0-2.9-0.6-6.4-1.7-9.9l-0.9-2.6l-1.2,2.6
		c-0.6,0.9-0.9,1.5-3.5,0.9l-2.3-0.6l1.2,2c1.2,2.3,1.5,4.1,1.5,5.5c0,2-0.6,3.5-1.5,5.2c0,0-0.3,0.6-0.3,0.9c-0.3-1.2-0.9-2-0.9-2
		l-1.2-4.1l-2.3,0.3c0,3.8-1.5,7.6-4.1,11.1l-4.4,0.9c-0.3,0-0.3,0.3-0.3,0.3c0-0.3-0.3-0.3-0.3-0.6c0-0.9,0.6-2,0.9-2.6l1.7-6.1
		c-0.3-3.5-1.2-11.4-8.2-11.9l-7,1.2c-2.9,0.9-6.1,1.5-8.7,0.3c2.9-1.7,12.8-7.9,12.8-7.9c2-1.5,5.5-2.9,14.8-2.6
		c5.8,0.3,15.1,6.4,17.2,10.2l0.9,0.9l0.9,0.3c2,0.3,1.5-2.3,1.5-2.3c-1.7-4.4-7.3-8.4-11.4-11.6c0,0-0.9-0.6-1.2-0.9
		c0.3,0.3,1.5,0.6,2.3,0.9c2.9,1.5,9.3,5.8,11.4,11.1c0.6,1.5,1.5,1.7,2.3,1.7c0.6,0,1.5-0.6,1.2-2.6c-0.9-4.1-5.8-10.2-13.4-13.7
		l-4.7-1.5l-5.8-2.9l-4.4-4.1l-10.8-9l-0.6-0.3l0,0l-9-4.7l-6.7-3.5c-3.8-5.8-6.7-10.2-13.4-9.9c-10.5,0.3-13.4,5.5-15.1,9.6
		c-1.2-0.6-5.5-4.9-5.2-9.3c0.6-7.9,9.9-16,16-17.8c1.2-0.3,3.2-0.9,4.4,0.3l-2.6,4.4l-7,3.2l-1.5,0.6c-2.3,0.9-2,2-1.7,2.3
		c0.3,0.9,1.7,1.5,2.9,1.2l5.2-1.5c0,0,0.6-0.3,0.9-0.3c-0.6,0.3-1.5,0.9-1.7,1.2c0,0.3,0,0.6,0,0.9c0,1.2,0.9,2.6,1.7,3.2
		c1.2,0.9,3.5,2,5.2,1.2c0.6-0.3,1.5-1.2,1.2-3.2c0-0.6,0-1.2,0.6-1.5c0.6-0.9,2.3-1.5,4.4-1.5l4.4,4.9c4.9,4.4,10.5,8.2,16.3,9
		l4.1,0.3c6.4,0.6,18,1.5,22.1,3.8l6.1,3.5l4.1,2.6l0.6,0.3c0.9,0.6,2.6-1.2,2-1.7l-0.6-1.2l-5.5-3.5l-4.9-3.2
		c-3.2-2.6-11.6-3.5-18.3-4.4l-7-1.2c-3.8-1.2-15.7-8.2-18.6-12.5l-1.5-2.3c-2.3-3.2-6.1-8.7-5.2-11.4c0.3-0.6,1.2-1.2,2.6-1.5
		c1.2,0,1.7-0.3,2.6-0.6c3.5,3.5,10.5,6.4,13.7,6.4c2.6,4.4,5.2,7.6,8.4,8.4c9.9,3.5,12.2,2.3,19.2-0.9l2.6-1.2l3.5-2.9l2-1.7
		l8.7-0.3h2.9c7.9,0,12.8-1.5,16.6-2.9c0,0.6-0.3,1.2-0.3,1.7c0,0.9,0.3,1.7,0.9,2.3c0.9,0.9,2,1.5,4.1,1.2c3.5-0.3,8.2-4.9,9.9-8.4
		l1.7-3.2l1.2-2.6c0.6,1.5,1.2,3.2,1.2,5.5c0,7-3.2,12.5-8.7,15.1c-6.1,2.6-10.2,2.9-13.4,2.6l0.6,2.6c4.9,1.5,13.4,4.1,13.7,7.6
		c0,0-0.3,2.6-0.3,2.9c-0.9-0.3-2.3-0.9-2.3-0.9c-3.2-3.2-8.7-6.1-11.1-4.9c-0.3,0.6-0.3,0.9-0.3,1.5c0,1.7,1.7,2.3,3.5,3.2l4.1,2.3
		l9,8.7l3.8,2.6c0,0,0.9,0.6,1.7,1.2c-2.9,0-5.2-0.3-7-2.3l-1.5-1.2l-1.2,3.2l-2.6,3.2l0.3,0.9c3.8,6.1,6.4,12.8,8.4,19.8l4.9,12.2
		c0,0,1.7,4.4,2.6,6.7c-4.4-3.2-8.7-10.2-9.3-12.5l-0.6-2.6c-1.7-6.7-3.5-11.9-6.4-14l-0.3-0.3c-0.3,0-0.3-0.6-0.6-0.6l-2-0.6
		l0.9,2.3l4.4,12.5l0.6,2.3l1.5,5.2c1.7,5.8,5.2,16.9,5.5,23c-2-4.1-4.7-10.5-6.1-15.4L435,111l-2.3,0.6c0,0,0.6,11.4,1.2,16.6
		c-0.3-0.6-0.9-1.5-0.9-1.5l-1.5-2.3l-2,0.9l1.7,5.5l2,7.9l0.3,1.5c0.3,2.3,0.6,5.5,0.6,9c0,1.5-0.6,2.3-0.6,3.8
		c-1.7-4.1-3.2-7.3-4.9-9l-1.7,1.2c1.7,4.4,2.6,8.2,2.6,11.4c0,1.5-0.6,2.6-0.9,3.8l-2.6-5.8l-0.3,7.9c-1.5-0.9-5.5-3.2-5.5-3.2
		l2.3,7.9c-0.6,4.9,1.7,14.8,3.8,18.9l6.7,9c4.1,4.9,9,11.1,9.6,14l2,7.3c0.6,1.7,0.9,2.3,0,5.2c-0.9-0.9-1.5-1.7-2.3-2.3
		c-2.9-2.3-4.4-3.5-5.5-4.1l-2-4.7l-3.8-7.9l-2.3,0.3l-0.3,0.6v-1.5C428.3,201.8,425.4,201.8,425.4,201.8z M371.3,292.4l-1.7,2
		l-3.2,4.9l-3.2,9.3c-0.3,0.9-1.7,2.6-2.3,2.9c-0.3,0-0.3-0.3-0.6-0.6c-1.7-3.8-0.6-7.6,0.6-11.4l1.5-4.9l0.6-3.5l-2.6,2.6
		c-2.3,2.6-9.6,11.9-2.9,22.7c0.3,0.6,0.9,1.2,1.5,1.5c0.6,5.8-0.3,13.4-2,18c-2.3-2.9-4.7-6.7-5.2-13.1c-0.6-7.6,2.3-21.3,3.8-24.7
		s1.5-11.4-1.5-13.1l-1.7-1.2v4.7l-1.2,7c-1.5,2-6.4,5.5-9.6,5.2c-5.2-0.3-6.1-4.9-6.4-10.2c0-0.3,0-0.3,0-0.6
		c0-5.2,5.2-13.1,7.6-16c1.2,1.7,3.2,3.2,5.2,3.5c1.7,0.3,3.5,0,4.7-0.9c2-1.5,3.2-5.5,4.4-9l1.5-3.8l1.2-1.2l-0.3-1.7l-0.9-0.6
		c-0.9-0.3-2.3,0-3.2,1.2l-1.7,4.4l-1.5,4.1c-0.9,1.5-2,2-3.2,2c-0.9,0-1.7-1.2-2-2.6c-0.9-4.1-1.5-8.2,1.7-11.9
		c2.6-3.2,4.4-7.6,4.7-13.4v-1.2l-1.2-1.2c-1.5-0.3-2.3,2-2.6,2.9c-2.3,7.9-5.8,13.4-9.3,14.6l-2.3,0.9c-1.5,0.9-4.9,2.3-5.5,1.5
		c-1.5-1.7-0.9-8.7-0.6-11.9c0.6-6.1,3.2-11.1,5.8-16c2.6-4.7,4.9-9.3,4.7-14v-0.3c2.6-4.9,5.5-12.5,6.1-14.6c0-0.6-0.3-1.2-0.9-1.5
		c-0.6,0-1.2,0.3-1.5,0.9c-0.6,2.3-3.8,10.5-6.4,14.8l-4.7,1.5l-4.1,1.7l-2.3,0.9l-2,0.6c0,0-0.6-0.9,0.3-6.1
		c0.9-5.2,2.6-9,4.9-11.6l17.2-9.6l1.5-1.2c0.9-0.9,2.3-2,3.2-3.5c0.3,2,0.6,4.1,0.9,7l0.3,1.5l0.3,6.4l-0.9,6.4v1.7
		c-0.6,0.9-0.9,1.7-0.9,2c-0.6,1.7-0.9,4.4-0.9,7.3c0,3.5,0.3,7.6,0.6,10.5v2c0.6,6.4,4.7,9.9,9,11.1c0,0.6-0.6,2.3-0.9,3.8l0,0v0.9
		c0,0.9-0.3,1.5-0.3,1.5l0,0l-1.7,10.5c0.3,5.8,7,18.3,9.3,20.4l0.9,0.9l2.3-3.2c0,0,2.6-3.5,4.1-5.5c0.6,2.6,1.7,8.2,1.7,8.2
		c0,2,0.6,5.8,1.7,7.9l-6.1,14.6l-2.3,5.2l-1.7-5.2l1.7-7.9l1.2-5.8L371.3,292.4z M361.1,318c1.5-0.3,2.9-1.2,4.1-2.3
		c0.6,1.5,1.2,4.7,1.5,7.3l-2.6,6.4c-1.2,2.9-2.3,5.5-3.2,8.4c-0.9,0.3-1.5,0.3-2,0C361.1,332.6,361.9,324.4,361.1,318 M342.7,315.7
		c-0.6,1.7-1.2,3.8-1.7,6.1l-2.3-6.7l-0.3-0.9c0.6-2,2-4.1,3.2-4.4c0.3,0,0.3,0,0.6,0C342.7,310.7,343,313.1,342.7,315.7
		 M334.3,274.9c-1.5,1.5-3.5,4.7-4.9,7.9c0.6-3.2,0.9-6.4,0.9-8.7c3.5,1.2,5.8-1.7,7.6-4.1c0.9-1.2,2-2.9,2.6-2.6
		C340.1,267.6,337.2,271.7,334.3,274.9 M351.5,244.3L351.5,244.3c0-0.3,0.3-0.6,0.3-0.6C351.5,244.1,351.5,244.1,351.5,244.3
		 M326.7,268.5c-0.3,2-0.6,4.7-0.9,7.6c-4.1-7.3-9.9-18.9-2.9-38.4c0-0.3,0.3-0.6,0.3-0.9c0.3-0.3,0.3-0.9,0.6-1.2
		c0.9-2,2-4.4,3.5-4.7c0.6-0.3,0.9,0,1.5,0.3c1.2,0.9-0.6,6.1-2,9.6l-2.6,11.4C325,259.2,325.6,264.7,326.7,268.5 M196.6,86.6
		l0.3-1.2c-0.3,0-0.3-0.3-0.6-0.6l-0.6-0.3c-0.6-0.3-1.5,0.9-1.5,0.9l-4.1,4.1c-1.5,4.7-4.9,7.6-8.2,9c-2.3,1.2-4.4,1.2-5.5,0.9
		c0,0-0.6,0-0.9-0.3c0-0.3,0-0.9,0-0.9c-0.6-2.3,1.7-6.1,3.8-9.3l2.9-6.1l0.6-2.9l-2.3,2c-9.3,8.2-11.1,7-15.1,4.1
		c-0.6-0.6-0.9-0.9-0.9-1.7c0.3-3.8,7.3-10.2,8.2-10.8c4.7-2.3,9.9-3.5,12.2-2.6c2,0.9,1.7,2.6,1.2,5.5c-0.3,1.7-0.6,3.2,0.3,4.1
		l0.6,0.3h1.7c2.9-0.6,12.8-6.1,16.3-14l0.3-0.9l0,0l0.6-1.5l0.3-1.5l-0.3-6.1l-1.7,3.5l-2.6,4.4l-0.9,1.7c-2.9,3.5-5.2,5.5-6.7,5.8
		l-1.5-0.3c0,0-0.6-0.9,0.3-6.4l0,0l2-9.6l0.6-2.3l-2.3-1.2c-3.8,6.7-7.3,10.2-11.4,11.1l0.6-1.2c4.1-4.4,3.8-5.5,3.8-5.8
		c-1.5-0.9-2.6-1.2-7,3.8c0,0-0.9,1.2-2,2.3c0.9-2.9,3.5-9.6,5.8-12.2l-1.5-1.7l-3.8,2.3c-0.3,0.3-6.7,12.5-6.7,12.5l-0.6,1.7
		c-0.6,1.5-1.5,4.1-1.5,4.1c-1.2,4.4-10.2,8.4-13.1,8.7l-1.7,0.3h-3.2l-0.3-0.6c-0.6-3.8,4.1-8.7,7.3-12.2l1.2-1.2l0.3-0.3v-0.3
		l0.3-0.3l0,0l2.6-3.2c0,0,0,0,0-0.3c0-0.6-0.6-1.2-1.5-2.3c-1.7-2-4.7-4.9-4.7-9c0-1.5,0.6-2.9,1.5-4.7c4.7,1.7,20.1,3.8,30,0.3
		l16.9-7.3l8.7-3.5c4.1-0.6,11.6-1.5,17.2,0.9c4.9,2,7,3.5,9,6.4l-3.2-0.6h-2.9l2,2l2,1.7c2.9,2.3,7,6.1,8.2,10.2l-0.3-0.3
		c0,0-3.5-2.9-4.9-3.8l-0.9-0.3l0,0l-0.6-0.3l-3.2-0.6l2,2.3l1.5,1.5c2.6,2.9,6.7,7.6,7.3,12.2c-0.6-0.6-1.2-0.9-1.2-0.9l-0.9-0.6
		c-2.6-2.3-4.9-4.1-7-3.2l-1.5,0.6l5.2,4.7l0.3,0.3c3.2,2.9,4.9,5.5,5.5,8.7c-1.7-0.9-3.8-2-3.8-2L242,72l-2.3,1.5l1.7,2.3l3.2,2.9
		l2.9,3.8c0.3,2.9,2.9,9,5.8,9.9c0.3,0,5.8,2,9,3.2c-1.7,1.2-3.8,1.7-7,0.6l-3.5-4.4c-2-3.2-4.4-7.6-9.3-7l-2.3,0.3l2,2.6l2,1.7
		l4.4,5.5c0,0,1.5,4.1,2.3,6.4c0,0,2.3,5.5,3.5,7.9c-4.7-0.9-7-2-10.2-5.2c0,0-1.2-1.7-1.5-2l-2.6-6.1c-1.5-3.8-2.3-6.7-4.7-7
		l-1.5-0.3l0.3,1.5l0.6,3.5l0.6,9v0.3c0,3.5-2.9,6.7-5.5,9.9l-4.4,6.4c-2,5.5-2.3,13.1,1.5,16.9c4.9,4.9,3.2,9,1.7,13.1l-1.5,5.5
		c0,4.9,1.5,7.3,5.8,9.6c7.6,4.1,14.8,2.3,27.9-3.5c6.1-2.6,22.1-4.7,32.9,6.1l1.7-1.5l-0.3-0.3c-3.8-6.1-7.3-8.4-10.2-10.2
		l-4.4-3.5c-3.2-4.1-4.9-8.7-4.9-13.4c0-3.8,1.7-7.6,3.8-11.6c1.2,3.5,3.2,7.6,6.1,11.4c0,0.3,7.6,7.6,12.2,8.2l2.3,0.3l-4.4-6.1
		c-2.6-3.5-3.8-5.2-3.8-7.6c0-0.9,0.3-2,0.6-3.5c0.3-0.9,1.5-4.4,2.3-7c1.5,2.6,2.3,5.2,2.9,8.4c1.2,7.3,4.7,11.4,10.2,13.1
		c14,4.1,21.8,19.2,23.3,32.3c0,1.2-0.3,2.3-0.3,3.2v3.2l-2.3,3.5c-2.3,4.1-6.4,10.8-8.4,9.6c-5.2-2.9-5.2-7.6-3.8-17.2
		c0.6-3.2,0-4.4-0.3-4.7l-0.6-0.3l-0.9,0.3c-1.5,0.6-2,4.1-2,4.7c-0.3,2-4.1,9-7.3,11.4l-1.5,0.6l-3.2-1.7c-1.5-2-0.6-6.4,0.3-10.2
		c0.3-1.7,0-3.5-0.9-4.4l-0.6-0.6l-0.9,0.3c-0.9,0.3-1.2,1.5-1.5,3.2c-0.9,8.2-8.4,12.2-10.5,12.2c-2.3-0.3-2.9-0.9-3.2-1.2
		c-0.9-1.5-0.3-4.4,1.7-9.3c0.9-2.3,0.6-4.4-0.9-4.9c-1.2-0.6-2.9,0-4.1,2.9c-5.5,11.9-9.3,16-10.2,16c-0.3,0-0.9-0.6-1.2-2
		c-1.2-3.8-0.6-10.2,0.3-11.4c2.3-2.9,3.5-5.5,2.9-7l-0.3-0.6l-1.2-0.3c-0.6,0-1.7,0.3-3.8,3.5l-0.9,1.7c-2,3.8-7,12.5-12.2,11.9
		c-1.2-0.3-1.7-0.9-1.7-1.2c-1.2-2.3,1.5-7.9,2.9-10.2c0.9-1.5,1.5-3.5,0.9-4.7l-0.3-0.6l-0.9-0.3c-1.2,0-2,1.2-2.6,2
		c-2.6,3.8-11.4,10.8-14.8,10.2c-1.2-0.3-2.6-0.6-2.9-1.7c-0.6-1.7,2.3-5.8,5.5-8.7c1.5-1.5,2.3-2.9,2-4.1l-0.3-0.6l-0.9-0.6
		c-0.9-0.3-2.3,0.3-3.8,2c-4.9,5.2-10.2,7.3-17.5,7.6c0-4.1,2.3-13.7,4.7-17.2c0.9-1.5,1.7-2.6,1.7-3.5c0-0.3-0.3-0.6-0.3-0.9
		c-0.9-0.9-2.3,0-4.4,1.7l-1.7,2c-0.9,1.7-1.7,2.9-8.4,2.6l-0.9-1.2c-1.2-1.5-2-5.2-1.5-9l0.9-2.9l2.9-6.7
		c3.8-8.2,6.4-14.3,6.1-16.9V125l-1.5-0.9c-2,0-4.4,4.1-4.7,6.1c-0.3,1.5-7.3,6.7-10.5,7.3c-0.3-2.3-0.6-5.8-0.6-9
		c0-2.3,0-4.4,0.6-6.1c1.5-6.7,7.6-11.6,12.2-15.1l2.6-2c0.6-0.6,2.3-1.7,2.3-3.8c0-0.3,0-0.6,0-0.9l-0.9-1.7l-1.2,1.2l-11.4,9.6
		c1.7-4.1,4.4-11.6,5.2-18.3c0.9-8.2,6.1-25,8.7-24.7c2.6,0,3.2,1.5,3.5,4.4c1.2,7.6-4.9,14.8-7,16.9c-2,2-1.5,3.2-1.2,3.5
		c0.3,0.3,1.5,1.5,3.8-0.3c6.1-6.1,11.9-17.2,11.6-26.5c-0.3-5.2-1.2-8.2-3.2-9.6c-1.5-0.9-3.2-0.9-5.2,0
		c-8.7,3.5-17.8,22.4-18,37.8c-0.3,14.6-8.7,23.9-12.8,26.8c-1.7,1.2-5.2,3.5-6.4,2.9c-0.3-0.3-0.6-1.2-0.6-2.6
		c0-1.7,0.6-3.5,1.5-4.1l-1.7-2c-0.3,0-0.3,0.3-0.3,0.3l0,0l0,0c-3.2,1.2-3.5,3.2-3.8,5.2l-1.2,3.8l-1.7,2c-2,2.6-4.4,5.5-7.3,6.4
		c-0.3-1.5-0.6-2.9-0.6-4.7c0-3.2,0.3-6.7,1.2-9l1.2-4.7l1.2-3.8l-1.2-0.6c-2.9-0.9-4.4,2.6-5.2,5.2c-1.5,3.2-5.8,9.9-9,11.4
		c-5.2,2.3-7.6,1.7-8.4,1.5l-1.5-1.7c-0.3-0.6,1.2-2.9,2.3-4.7c2.3-3.5,5.2-8.4,4.7-13.4v-0.3l-0.6-3.2l-1.7,2.9
		c-2.3,3.8-8.4,11.6-13.7,12.5l-3.8-0.9l-1.7-2l1.2-2.3c0.6-0.9,5.2-6.1,5.2-6.1c4.4-4.7,9.3-9.9,7.9-15.1l-0.6-2l-1.5,1.7
		c-9.9,13.1-13.7,14.8-23.3,14.6l-1.2-0.3v-4.7c0.6-5.2,4.4-9.3,7.3-12.5l2.9-3.5l-1.7-1.5c-7.9,6.7-27.1,12.5-37.3,7.6
		c0.9-0.3,2-0.9,2-0.9c14.8-3.2,29.4-8.4,46.3-16.3l2.9-1.7l4.1-2.3c-0.3,0-0.9,4.7-0.9,4.7l-2.3,7.9c-0.9,2-1.2,3.5-1.2,4.4
		c0,0.6,0,0.9,0.6,1.2l0.6,0.6l1.5-0.3l4.4-2c1.7-0.9,4.9-2.6,5.5-1.7c1.2,2,0.9,3.8,0,8.2c-0.9,3.5-1.2,4.7,0,5.5
		c0.9,0.9,2,0.3,4.4-1.2c0.3,0,3.2-2,3.2-2l2.9-1.5l4.9-0.3c0.3,0,0.3,0,0.6,0.3c0.6,1.2,0.3,4.1-1.5,7l-0.9,0.6l0.9,1.5l0.3,0.3
		c0.6,1.2,1.5,1.5,3.2,1.5l7-1.5l2-0.6c1.2-0.6,4.1-2.3,4.1-2.3c1.5-1.5,2-1.5,2.9-0.9c2,1.2,3.2,0.9,3.8,0.3
		c1.2-0.9,1.5-2.3,1.5-3.8c0-1.7-0.3-3.2-0.6-3.8c0-0.3-0.3-0.6-0.3-0.9c0-0.3,0-0.3,0.3-0.6l1.7-2L196.6,86.6z M309.3,201l-0.9-0.9
		l-1.7,1.2l-5.5,7.6c-1.5,2.6-4.4,4.1-6.4,4.9c0-0.3-0.3-3.5-0.3-3.5c0-3.8,3.2-6.4,6.4-8.7l3.8-3.5c0.3-0.3,0.3-0.6,0.3-0.9
		c2-0.6,4.1-1.7,5.5-3.2c0.3,0.9,1.5,3.8,2.3,6.1c-1.7,5.2-4.1,9-9,11.6c1.5-2.6,3.8-6.4,4.9-7.6c0.9-0.9,1.2-1.7,1.2-2.3
		C309.8,201.6,309.3,201.3,309.3,201 M288.3,196.3c3.5-1.5,6.7-2.9,8.2-3.8c0.3,0.3,0.3,0.9,0.3,0.9l1.5,2l-1.7,2.3
		c-2.3,2-5.8,4.1-8.2,4.1c-0.6,0-0.6,0-0.6,0l0.9-4.7C288.3,197.2,288.3,196.9,288.3,196.3C288.3,196.6,288.3,196.3,288.3,196.3
		 M276.9,200.1l1.2-0.3c0.9,0,2.3-0.6,3.8-0.9l-0.3,2.9c-0.3,0.6-0.3,1.2-0.3,1.7c-2,2.3-5.8,5.2-9.6,7l-4.4,0.6h-0.6l0,0
		c0.6-1.7,0.9-3.5,1.5-5.2c0.3-0.6,0.9-1.5,1.5-2.3l1.2-2.9l0.9-1.5l4.1-1.5l1.5,0.3c-0.3,0-0.3,0.6-0.3,0.6
		C276.6,198.6,276.9,200.1,276.9,200.1 M277.8,197.5L277.8,197.5L277.8,197.5L277.8,197.5z M261.5,202.7l2-0.9
		c-0.9,1.7-2,3.2-3.5,4.1c-2.3,1.2-4.9,2.3-8.7,2.9c0,0,0.3-0.3,0.3-0.6l0.9-1.5c1.7-2.3,3.2-7.3,3.8-10.2c2.3-1.7,4.7-3.8,6.1-5.5
		c0,0.6,0,1.2,0,1.5c0,3.2-0.9,5.8-2.3,7.9l-2,3.2L261.5,202.7z M245.2,191.4c0.6,2.3,0.6,6.1-1.2,9l-0.9,1.7h2
		c1.5,0,2.9-0.3,4.7-1.2c-1.5,2.9-4.1,6.4-5.5,7.3c-1.7,1.2-5.2,1.7-8.7,2c1.2-4.7,2-9,2.9-13.7l0.9-4.4c0,0,0-0.3,0-0.6
		c0.3,0,0.9-0.3,1.2-0.6c1.5-0.6,2.9-1.2,4.1-2C244.3,189.3,245.2,191.4,245.2,191.4 M228,187.3l-1.2,0.9l-4.7,4.1
		c0,0-2,0.6-3.5,1.2c0.3-1.5,0.9-3.2,0.9-3.2l1.2-4.1l1.7-0.6l4.4-2l1.5,0.3l0.3,3.2C228,187,228,187.3,228,187.3 M211.1,189.9
		l-2.3,12.2c-4.1,28.8-31.2,88.2-69.9,124.6c0-1.2-0.3-2.6-0.3-3.8c20.1-19.8,38.1-52.4,48-75.4c7.9-18.9,20.7-53.6,23.3-73.7
		c0.6-0.3,1.2-0.6,1.2-0.6s2-1.2,3.5-1.5v0.3c0,3.2-0.9,7-2,10.8L211.1,189.9z M156.1,345.9c0,3.2,0,5.5,0,5.5c0,1.2,0,2.3,0,3.2
		c-1.7,1.5-5.8,3.8-10.5,5.2c-1.5,0.6-2.9,0.6-3.8,0.9c-0.3-2-0.6-4.7-0.9-7.6C145.1,350.6,152.3,346.5,156.1,345.9 M140.1,344.2
		c0-1.5-0.3-2.9-0.3-4.4c4.7-2.9,12.2-8.7,16.3-11.9c0,1.5,0,3.2,0,5.5C152.3,337.2,144.5,343,140.1,344.2 M139.2,331.4L139.2,331.4
		c-0.3-0.6-0.3-1.2-0.3-1.7c6.1-5.5,11.6-11.6,17.2-18v8.4C151.5,324.1,145.4,328.5,139.2,331.4 M141,279c2-4.1,13.7-35.8,15.1-43.1
		l0.9-4.1c2.3-9.6,7.3-30.3,7-41.3l13.1-23c1.2-1.7,1.7-2.9,2.9-4.7c-2.6,28.8-16.6,94.3-42.5,126.9c0-2.3,0.3-4.4,0.3-6.7
		C139.5,281.9,140.4,280.4,141,279 M140.7,264.1l1.2-6.7c3.2-18,6.1-31.7,13.1-48.6l-2,12.2l-1.5,6.4
		C150.6,232.4,143.9,254.8,140.7,264.1 M182.9,159c4.9-7.9,8.2-14,8.4-17.2v-6.4c-0.3-4.4-0.3-7.3,2-11.6l0.3-0.3
		c0.9-0.6,1.7-1.5,2.6-2c-2.6,6.4-3.8,15.4-1.5,27.1c-0.9,58.5-30,128.1-57.1,155.5c0-3.5,0-7,0-10.5
		C166.6,259.8,181.5,185.8,182.9,159 M201,148c1.2-0.6,2.9-1.2,4.1-1.7c-0.3,1.2-0.6,3.2-0.6,4.7l0,0v1.2l0,0c0,0.9-0.3,1.2-0.3,1.2
		l0,0c-0.3,6.4-0.6,14.8,0,19.2c-2.9,18.3-14.8,53.3-23.6,74.2c-11.6,27.9-28.8,55.3-42.5,68.4c0-1.5,0-2.6,0-4.1
		C167.5,283.9,198.9,216.1,201,148 M106.3,144.5c-0.6-0.6,1.5-4.7,1.5-4.7l0.9-1.7l0.6-2.6l2-3.8l2.3-2c5.5-5.2,9.6-8.7,12.8-5.5
		l2,1.7c1.2,0.9,1.7,1.5,1.7,2c0,1.5-3.5,4.7-6.1,7l-1.7,1.2L106.3,144.5z M35.6,144.2c1.5-1.2,5.5-2.3,7.9-3.2l4.7-1.5l4.4-2
		l14.8-7.3l1.7-0.9l2.3-1.2l6.1-3.5c4.1-2.3,8.4-4.7,12.8-7.3c-0.3,0.9-0.6,1.5-0.6,1.5c-0.9,1.7-1.7,3.2-2.3,4.4
		C75.5,133.1,51.6,141.9,35.6,144.2L35.6,144.2 M84.5,139c-6.4,2-24.5,6.1-39.9,6.4h-1.5c-0.3,0-1.2,0-1.7,0
		c13.4-2.6,31.7-9,44-17.5c-0.6,1.7-1.2,4.1-1.2,4.7c0.9,0.9,14.3,0.3,14.3,0.3s1.5,0,2.6,0C95.9,135.2,87.1,138.4,84.5,139
		 M93.8,126.4c0.9,0,4.1-6.7,4.1-6.7l3.2-4.9l2.6-4.9c2.6-1.7,4.7-3.2,5.8-4.4c2-2.3,3.8-2.9,4.4-2.6c0.9,0.3,0.9,1.5,1.2,2l0.6,3.8
		l1.2,2l1.7,1.7c1.2,1.2,1.5,1.7,1.5,2c0,1.2-2,2.6-5.8,4.9l-6.4,4.1l-1.2,0.9C103.1,125.6,95.3,126.7,93.8,126.4 M21.6,199.5
		c0.3-0.9,0.9-1.5,1.7-1.7l16.9-6.4l0,0l0,0l26.8-14l37.3-25.3l4.4-1.7c0.9-0.3,2-0.6,3.2-1.2c-22.1,19.8-63.2,43.4-90.5,52.1
		C21.3,200.7,21.3,200.1,21.6,199.5 M80.1,190.2c-22.4,10.2-51.5,17.8-57.9,13.1c29.4-9.3,75.1-36.4,96.1-56.8l0,0
		c4.4-2,8.7-4.7,12.5-8.7l1.5-1.5l0,0c2-1.7,4.7-4.1,4.7-4.1c1.5-1.5,3.2-2.9,4.7-4.7c-1.2,3.5-2,6.4-1.7,8.4l0.3,0.9h2.6
		c-11.9,21-19.8,25.6-24.5,25.6l-0.9-0.3c-0.9-1.2-0.6-4.1-0.3-6.4l0.6-5.8l-2.3,1.2c-3.2,2-3.2,5.5-3.2,9c0,3.2,0,6.4-2.3,9
		L97,179.4l-3.5,2.3C93.2,182,84.5,187.3,80.1,190.2 M35.6,253.4c16-12.2,39.9-34.6,47.5-44L95.3,196l6.1-6.7l0,0
		c2-2,4.4-4.7,4.4-4.7c7-7.9,13.7-15.1,16-16.6c0.9,0,1.7-0.3,2.6-0.6c-30.6,43.1-69.9,80.3-97.5,97.5
		C26.9,261.8,29.5,257.7,35.6,253.4 M69.4,247.8c-0.6,0.3-2.6,2.3-2.6,2.3c-6.7,6.1-16.9,15.4-30.9,19.8c-2.3,0.6-6.4-0.3-8.2-2.6
		c28.5-17.8,69.9-57.1,101-102.2c1.2-0.9,2.3-1.7,3.2-2.9c0,4.4-0.9,8.7-3.8,14c-6.4,7.3-13.4,16.6-16.9,21.5l-6.1,9.3
		C96.2,220.8,83.3,235,69.4,247.8 M57.4,339.5c3.2-21.8,8.4-41.3,16-59.4l0,0c9-20.7,25-52.1,41.3-75.1c8.2-11.6,14.3-19.5,21-25.6
		c-22.1,32.3-66.7,104.8-78.3,180.2C56.3,357.9,55.7,352.1,57.4,339.5 M90,278.1l-8.2,22.7c-7,18.6-15.4,41.6-16.9,51.2
		c-0.6,2.9-1.7,5.5-3.5,6.7l-1.7,0.6c11.6-74.5,55.6-146.4,77.7-178.7c-4.9,9.6-11.1,21.8-16,32.3l-7,13.7L90,278.1 M167.5,469.1
		c1.2,2.9,2,5.8,2,6.7v0.3c-0.3-0.3-2.3-1.2-9.9-8.4c-20.1-18.6-35.2-63.2-39.3-78.9c-13.4-50.7-9.3-118.5-3.5-149.3l8.4-16.6
		C112.2,294.1,115.9,395.4,167.5,469.1 M162.2,457.2c-46.3-75.1-47.2-175.5-33.2-243.1l3.5-7l2.3-5.8c4.1-9.9,10.8-26.5,17.2-34.6
		c7.9-10.2,9.3-15.7,9.3-19.5c0-1.2,0-2.3-0.3-3.2v-2c0-0.3,0-0.9,0-1.2c0-1.2-0.3-2.3-1.2-2.6l-0.6-0.3h-1.5
		c-0.9,0.3-1.5,1.5-1.5,2.9s-0.9,9-4.4,14.6l-7,7.3l-8.4,5.8c-0.3,0.3-0.6,0.6-1.2,0.9c0-5.2,1.7-11.1,3.5-16.3c0,0,0,0,0-0.3
		c4.4-6.7,7.3-13.4,8.4-16.6l4.1-0.9c0,0,10.2-3.5,10.2-3.8c0,2,0.9,9.6,0.9,9.6l2-0.6l12.5-5.5l3.2-2.9l5.8-4.1
		c0.3,2-0.3,3.5-2.3,8.4c-0.3,5.2-2,10.8-2.9,11.4c0.6,0-1.2-7.6-1.2-7.6l-1.2-5.2l-1.5,2.6l-0.9,1.5l-0.6,1.7l0.3,4.7v3.5l-2.3,9
		c-0.3,0.3-10.2,19.2-10.2,19.2c-0.3,0.3-19.8,30.3-27.4,69.9c-3.5,19.5-5.2,38.7-5.2,58.8c0,15.7,1.2,32,3.5,49.2
		C140.4,403.9,153.2,435.6,162.2,457.2 M167.5,386.1c-0.6,0-7.9,1.7-12.2,2.9l-7.6,2l0,0l-4.4-23c7.6-4.4,11.6-5.8,13.7-6.1
		c0.3,1.2,0.6,2.3,0.9,3.5c-5.2,2.9-8.4,5.2-9,7.9l-0.3,1.2v1.5l0.6,1.5l0.9,1.7c2.6,3.8,13.4,2.9,15.7,2.6l0,0
		C165.4,383.2,167.5,386.1,167.5,386.1 M161.4,376.5c-5.5,0.6-7-0.3-7.3-0.9c0,0,0,0,0-0.3c0-1.2,3.5-3.5,5.2-4.4
		C159.3,371.3,160.8,374.8,161.4,376.5 M164.6,312.5c-2-1.2-4.4-1.7-7.3-1.5h-0.6c30.3-36.4,50.9-84.4,54.4-109.5h-0.6h0.3
		c4.4-1.2,11.9-3.2,18.9-5.8c-4.1,14.3-17.5,48.6-25.6,63.5C192.2,280.2,182.6,292.4,164.6,312.5 M172.7,318.6
		c-0.9-0.9-1.7-2-2.9-2.6c-0.3-0.3-0.3-0.3-0.6-0.6c7.3-8.2,28.5-32.6,39.6-54.1c4.7-9.3,11.6-23.6,17.5-38.4
		c-4.4,14.8-9.3,28.8-14.8,39.9C200.7,284.2,189,299.7,172.7,318.6 M176.5,323.8c16.9-18.9,26.5-31.7,39.6-58.5
		c9.6-19.2,14.6-34.9,18-49.5l9.3-0.9c-7.3,32.3-36.4,84.1-66.7,110C176.8,324.7,176.8,324.1,176.5,323.8 M178,327
		c32-27.1,60.8-80.1,67.8-112.7c3.8-0.6,10.2-1.7,14.8-3.5c-13.7,50.4-42.8,97.2-78.6,126.9C181.2,334.3,180,330.5,178,327
		 M184.9,350.3l-0.3-2.9c0-0.6-0.3-2-0.6-3.5c11.6-9.6,22.4-20.1,32-31.7c-0.6,2.3-0.9,6.1-1.2,10.5
		C208.5,330.2,194.8,344.5,184.9,350.3L184.9,350.3z M185.8,355.8c7.3-4.1,21.3-17.8,28.8-26.2v0.9c0,1.5,0,3.2,0,4.7
		c-7.9,7.9-19.2,17.5-27.9,23.9C186.1,358.2,185.8,357,185.8,355.8 M201.8,353.5l-0.9,0.6c-1.5,0.9-4.9,4.4-6.7,9.3
		c0,0-2.6,4.9-3.8,7.9c-1.5-2.3-2.3-5.8-3.2-9.3c8.4-6.1,19.5-15.1,27.7-23.3c0,2.3,0,4.4,0,6.7v5.8c-0.9,0.9-6.1,3.5-9,4.9
		c0,0-0.9,0.6-1.7,0.9C203.9,357,201.8,353.5,201.8,353.5 M205.3,364c0.3,0,0.6-0.3,0.6-0.3s7.6-4.4,9.3-5.2
		c1.5,4.1,3.8,14.8,4.1,20.4C215.2,377.1,207.4,367.2,205.3,364 M217.8,309.9L217.8,309.9c12.5-16,23.6-34.1,32.6-53.6
		c-8.2,23-18.9,47.2-28.8,56.5C220.2,311.6,219,310.7,217.8,309.9 M227.4,320c-0.9-1.2-1.7-2.3-2.3-3.5
		c18.3-20.1,37.8-75.7,41.3-100.1c2.6-0.3,4.9-1.2,7.6-2.3C270.5,234.7,245.8,297.6,227.4,320 M228.6,322.1
		c18.9-22.4,45.1-89.4,47.7-108.9c0-0.3,0-0.3-0.3-0.6c0.6-0.3,1.2-0.6,1.5-0.9l2.3-2c2.3-2,3.2-2.6,5.8-2.3
		c0.3,1.7-0.3,6.1-0.9,9.6l-0.3,1.7c-0.3,0.6-0.3,0.9-0.3,1.5c-2.9,25.9-27.4,91.1-50.9,111.5C233.3,331.1,231.5,327,228.6,322.1
		 M239.4,345.7l-3.8-8.7c11.4-11.1,22.1-28.8,30.9-47.5c-4.1,11.1-8.4,22.1-13.1,31.7c0,0,0,0-0.3,0h-3.2l2.3,1.7
		C248.1,332,243.8,339.8,239.4,345.7 M242,351.5c5.2-5.5,10.2-13.4,14.8-23c0.3,0.9,0.3,2.3,0.6,4.1c0,0.3,0,0.3,0,0.6
		c-3.2,4.7-10.5,14.6-15.1,19.5L242,351.5z M253.4,364l-0.6,2c-0.3,1.2-0.6,4.1-0.3,7.3l-2.9-4.1l-1.7-3.8l0.9-0.9
		c1.7-1.5,3.5-2.9,5.2-4.7C253.9,361.4,253.7,362.8,253.4,364 M256.6,348.6l-7.6,8.2l-3.5,2.9l-2.3-4.9c4.1-4.1,10.2-12.5,14.3-17.8
		C257.4,340.7,257.1,344.5,256.6,348.6 M264.4,323.5c-1.5-0.9-2.9-1.5-4.7-1.7c14.8-33.8,26.2-80.3,28.2-99l7-1.7l3.5-1.2
		c0.9,0.6,2,0.3,3.2,0.3C297,247.5,283.1,295,264.4,323.5 M278.7,342.7c-1.2-3.5-2.9-7-4.7-9.9l7-9.6l0.6-0.9c0.6,2.3,1.2,4.7,2,7.3
		c0.3,1.2,0.9,2,1.5,3.2c-0.6,0.9-0.9,1.7-0.9,1.7L278.7,342.7z M321.2,403.9c6.1,6.1,34.4,21.5,38.7,23.6c3.5,1.7,7.6,5.5,10.5,9.3
		c-4.9-4.1-10.2-7.6-15.4-9.3l-3.5-1.2c-11.6-4.1-39-13.4-46.9-24.5c-2-2.9-2.6-5.5-4.1-8.2c1.5,0.9,2.9,1.5,5.2,1.2
		c0,0,3.5-2,5.8-3.5C314.2,395.7,317.7,400.7,321.2,403.9 M304,372.2c0.6,2.3,1.7,5.2,1.7,5.2l2,7c0.3,0.6,0.6,1.5,1.2,2
		c-2,1.5-4.4,3.2-5.5,2.6c-0.9-0.3-1.2-1.7-1.5-2.6c-0.3-1.2-0.3-2.6-0.3-3.8C301.4,378,302.6,374.5,304,372.2 M301.4,365.5
		c-0.3-0.9-1.7,2.6-1.7,2.6l-2.9,9.3c0,1.5-0.3,3.5-0.3,5.2c0,1.5,0.3,2.6,0.3,4.1c-1.7-5.2-2.6-9.9-2.9-14.3l2-2.9l4.7-5.8
		L301.4,365.5z M297.3,357l-2.3,3.8c-2.9,4.7-7.3,10.8-10.5,13.7c-0.3-3.8-0.6-7.9-0.9-11.9l6.4-9.9l2.6-4.1
		C294.1,351.5,295.9,354.4,297.3,357 M286.5,341l1.2-1.7c1.2,2.3,2.3,4.7,3.2,6.7l-3.2,5.2l-4.9,7.9c-0.6-3.2-1.2-6.4-2-9.3
		L286.5,341z M285.1,304.3c-0.3-0.6-0.6-0.9-0.9-1.2l-0.9-2l-1.2,2c-1.2,2.3-2,5.8-1.7,10.5l-1.2,2c-2,4.1-5.2,9.6-8.4,13.1
		c-1.5-1.5-2.9-2.6-4.4-3.8c18.9-29.1,33.2-78,37.8-105.4c1.7-0.6,3.2-1.7,4.9-2.6l2-1.2c0.3,0,0.6-0.3,0.9-0.6
		c-0.3,1.7-0.6,3.2-0.6,4.9C305.5,249.9,293.5,287.4,285.1,304.3 M290.9,311.9c-0.9-1.2-1.7-2-2.6-3.2c4.4-7.6,9-19.8,13.1-33.5
		C298.2,290.1,294.7,303.4,290.9,311.9 M297.6,319.7c-0.9-0.6-2-2-3.2-3.5c11.1-19.8,19.8-77.7,23.3-103.6c0.9-4.1,1.2-7.3,1.5-9.6
		v-0.9l0,0c4.1-2,8.4-5.8,11.4-8.4l-0.6,8.4c-3.5,2.9-8.7,9.3-9.6,23l-0.6,3.2l0.6,4.4c-0.3,0.3-0.6,0.3-0.6,0.6
		c-5.5,13.1-5.5,23-3.5,30.9l-2.6,11.6c-2.9,13.7-5.5,27.1-13.4,46L297.6,319.7z M313,332l-10.8-8.7c7.9-19.5,10.8-32.9,13.7-46.9
		l1.5-7.6c1.5,4.4,3.5,7.9,4.9,10.5l2,3.8l0.3,0.3C322.4,299.7,318,320.9,313,332 M329.6,348.9l-1.7-0.3c-2-0.6-4.1-3.8-6.1-7
		l-4.1-5.2c3.5-9.3,7.6-28.2,10.5-44.5c0.9,5.5,4.1,18.9,7.9,24.7l1.5,2.3l2.3,6.7C337.2,334,333.4,343.9,329.6,348.9 M344.5,351.8
		l-3.2-0.9l-4.7-0.9c1.7-4.7,5.5-15.4,5.5-15.4l2.9-8.4c0.6,0.9,0.9,1.5,0.9,1.5C341.6,335.8,343,344.8,344.5,351.8 M349.4,352.9
		c-0.9-4.7-2.9-15.1-0.6-21.3c0.9,1.5,1.7,3.5,2.3,6.4l1.7,5.8l1.5,5.2l1.5-0.3l2.6-1.5c0,0.3,0,0.3,0,0.6v1.7c0,2,0,3.5-0.3,4.9
		l-5.5-1.2L349.4,352.9z M357.3,378c-0.6-2.3-0.9-4.1-0.9-5.8c0-3.2,0.9-5.8,1.5-7.9c0,0,0-0.3,0.3-0.6l0.6,0.3
		c0,1.5,0.3,3.2,0.9,5.2c0,0,3.5,15.1,5.2,23C362.2,388.7,359.3,384.7,357.3,378 M392.2,433c0,0.3,0,0.6,0,0.9
		c-1.5-3.2-2.9-6.1-3.5-7.6c-14.3-22.7-15.1-27.1-20.4-47.7l-0.3-1.5c-1.7-7-2.3-13.4-2.3-19.5c0-12.8,2.9-22.7,5.2-28.5l4.1-10.5
		c0,0,7.3-16.3,9-20.1c5.5,12.8,7,21.3,7,44.3c0,11.4-0.3,13.7-3.2,28.5l-1.5,7.9c-0.9,4.4-1.2,8.7-1.2,12.8
		c0,11.1,2.6,21.3,4.7,29.7L392.2,433z M423.7,325c-0.3-4.7,0-9,0-9l-2.3-0.3c-2,5.2-9.3,17.5-13.1,21l-10.8,9.9
		c0.9-9.9-0.3-18-1.5-25.6l-1.2-6.7c-0.9-6.7-3.5-14-6.4-20.4c2-1.7,3.8-4.1,4.4-5.5c0,0,0.9-2,1.7-4.7c0.6-1.7,0.9-4.1,1.2-5.8
		c2.3,3.8,6.4,12.2,7.6,16l0.3,3.2l0.6,2.9l1.7,3.2l1.2-1.5l5.8-10.8l8.4-15.1c2,1.2,9.6,7.9,12.8,12.8c0.6,3.2,1.2,6.4,2.6,10.5
		l0.9,2.9c1.7,5.2,2.9,9.6,2.9,13.1c0,2-1.2,3.8-2.3,5.5c-0.3-0.9-2.9-8.4-2.9-8.4l-2,0.3v7.9l-0.6,16c-0.9,6.1-2.9,10.2-4.9,12.8
		l-2-5.8l-1.5-3.8l-0.6-3.8C424.5,335.8,423.7,330.2,423.7,325 M463.3,396.3c0,0,0,0.3-0.3,0.6v-5.5l-0.9-4.9
		c-2-6.7-6.4-15.4-7.9-17.5l-0.6-0.9l-0.9,0.6c-0.6,0.6-1.7,1.5-1.7,1.7c0,0-0.3,0.3-0.3,0.6l0,0c-4.1,5.2-9.3,16.6-10.5,25
		c-0.6,3.2-1.2,8.2-2,13.1c-2.3-9-5.8-17.8-8.2-20.7l-1.2-1.5l-0.9,1.2c-1.5,2-2.6,3.8-2.9,5.5c-3.5,7.9-4.9,16.6-3.8,24.5
		c1.2,8.7-1.2,12.5-5.2,16.3c0,0-1.7,2-3.8,4.9l3.8-18.3l5.2-17.2c4.7-13.4,10.5-29.7,9.9-41.3c4.1-4.9,6.4-13.1,7-15.7l0.9-4.1
		c0.9-4.7,1.5-9,4.4-13.4l2.6-4.9c0,0,0,0,0.3-0.6c0.6,1.2,1.7,3.2,3.2,5.5c2,3.5,4.7,7,4.7,7c1.5,2.3,4.7,6.7,8.2,11.4
		c-2.9,6.4-2.9,15.7,0,25.9C465.6,385.8,466.2,389.6,463.3,396.3 M488.9,317.4c-8.2-14.8-18.3-40.8-27.4-64.3l-2,0.6l22.7,79.5
		c-0.9,4.9-1.2,9.6-1.2,12.5l-1.2,12.2c-4.9-4.4-11.9-12.8-16.3-19.2c-5.8-8.4-13.1-21.3-14.6-27.4l-2.9-10.2
		c3.8-5.2,8.4-14.3,7.3-23c-0.9-7-3.2-11.4-5.8-14.8l3.2-9.3c0.6-5.5,1.7-14.8-1.5-23.9c1.2-3.5,1.7-8.2,1.7-12.5
		c0-4.1-0.6-7.9-2-11.1c0,0-0.9-1.5-2.3-3.2c1.7-3.8,3.2-6.4,4.4-6.7c0.6,0,1.5,0.3,2.6,1.5c1.7,1.7,3.2,5.2,4.4,11.6l0.6,3.2
		c3.8,29.1,19.5,67.5,39.9,101C495.6,314.2,491.8,315.1,488.9,317.4 M505.8,360.5c0,0-2,1.2-4.1,2c0-2.3,0.3-7.6,0.6-13.7
		c1.5,1.7,2.6,2.9,2.6,2.9s4.4,4.9,5.5,6.4C509.3,359.1,505.8,360.5,505.8,360.5 M489.5,397.5c-4.1,9.6-9.6,16-14.8,21.5
		c4.9-7.9,10.2-16.6,14.3-23.6l6.4-10.8c4.4-7.3,15.4-16.3,22.4-19.2c0.3,0.3,0.6,0.6,0.6,0.9C500.5,380.3,493.5,388.2,489.5,397.5
		 M539.2,373c-2-0.9-4.7-3.2-7.3-5.2l-6.1-4.7c-3.2-2-18-17.2-23.9-25.9c-1.2-7-1.5-13.1-0.9-14.8c0.3-1.2,0.6-1.5,0.9-1.7
		c11.9,18.6,25.3,35.5,38.7,47.5C540.7,369.8,539.8,371.9,539.2,373 M542.2,365.7c-12.8-11.6-25-26.8-36.4-44.5l-0.6-1.2l0.9-0.6
		l-1.7-3.5l-1.2-2.3l-1.7,0.3l-0.9-1.2c-21.3-34.9-36.7-73.9-40.5-103.3c1.2-2,3.5-4.1,6.7-6.7c7.9,31.7,17.5,58.5,30.6,81.5
		c9.3,25,32.9,61.1,46.6,73.7C543.3,360.8,542.7,363.4,542.2,365.7 M545.4,352.9c-0.3,0.9-0.3,1.7-0.6,2.6
		c-11.6-11.4-28.8-37.3-39.3-59.1c11.1,16.6,24.7,32.6,41.9,49.8L545.4,352.9z M484.8,214.4l0.6,1.7c7.3,23,40.2,81.5,69.9,113.2
		c-2.3,2.6-4.4,5.8-6.4,10.2l-0.3,0.9c-42.8-43.4-62.6-80.1-75.7-142.7c1.5-0.9,2.6-2,4.1-2.9l4.1-2.9c2-1.5,2.6-1.2,2.6-1.2
		c0.6,0.3,0.3,2.6-0.6,7c0,0-0.6,0.6-0.6,2.6c0,1.2,0,1.7,0,2v2c0,2.6,0.9,4.9,0.9,4.9 M556.4,327.9c-29.4-31.7-62-89.4-69-112.4
		l-0.6-2l-1.5-7.6l3.2-4.1l2.6-4.1c1.5-2.3,2.3-2.3,2.3-2.3c0.9,0,2.3,4.7,2.3,4.7c6.4,25.9,21.8,53.9,40.5,78.9
		c7.3,10.5,19.2,26.5,31.2,41.6C563.1,323,559.6,325,556.4,327.9 M562.8,384.7c0.6-2,1.5-4.7,1.5-4.7c0.9-2.6,1.5-5.2,2.3-7.9
		c2.9,2.6,5.5,5.8,4.7,8.4C567.8,382.3,564.6,383.8,562.8,384.7 M580.6,376.2c0,0-3.2,1.5-7.3,3.5c0-3.8-3.2-7-6.4-9.9
		c0.6-2.6,1.2-5.2,1.7-7.9c3.5,2.3,9,5.2,9,5.2l8.4,4.9C584.4,373.6,582.3,375.1,580.6,376.2 M569.8,352.6c0-0.6,0.3-1.5,0.3-2.3
		c0-1.2,0-2.3-0.3-3.5c0-0.3,0-0.6,0-0.6c6.1,5.2,15.4,13.7,22.4,18.6C586.4,362.3,574.8,355.8,569.8,352.6 M593.7,363.1
		c-7.6-5.5-18.6-15.1-24.5-20.4c-0.3-3.2-0.6-6.4-0.6-9.3c0-4.1,0.3-7.3,0.6-10.2c11.4,14.3,22.1,27.1,28.8,33.2
		C596.6,358.8,595.1,360.8,593.7,363.1 M602.1,347.1c-0.6,2-1.7,4.7-3.2,7.3c-8.4-8.2-25-28.2-39.3-47.5
		c14.3,15.1,29.1,28.2,43.1,37.3C602.7,345.4,602.4,346.2,602.1,347.1 M603.9,338.1C555,305.2,511.9,231,499.9,201l4.9-11.1
		c0.6-1.7,1.2-2,1.5-2c0,0,0.3,0,0.6,0.3c15.4,44.3,58.8,113,97.5,144.4C604.2,334.3,603.9,336.1,603.9,338.1 M619.3,326.2
		c-3.8-6.1-10.2-13.7-14.8-17.5l-0.9-0.9c-3.5-4.7-7-9.3-10.2-14c10.5,10.2,24.2,21,29.4,25.3l0.9,0.9
		C621.9,322.7,620.2,325,619.3,326.2 M628.9,313.3c0,0-0.6,0.9-1.5,2c-39.9-31.4-81.2-87.9-99-135.1c2.9-3.8,5.5-8.4,6.4-13.7
		c1.5,1.2,2.6,2.3,4.1,3.8v0.3c9.3,33.8,60.3,112.7,91.4,141.2C630.1,312.2,629.2,312.8,628.9,313.3 M637.4,307.2
		c-1.7,0.9-3.5,1.7-4.9,2.9C601,281.3,549.1,201.3,541,168.4c0-4.4,0.9-16.9,2-19.5c1.2-0.6,4.4,3.2,6.1,4.9l3.5,2.9
		c0.6,1.5,1.2,2.6,1.7,4.1c11.9,45.4,53,113,83,136.2C637.4,301.4,637.4,304.9,637.4,307.2 M643.8,304.9c0-26.2-11.6-108-17.5-123.7
		c0.3-0.9,0.6-1.5,0.6-2.3l0.6-1.7l0.6-4.9l0.6-4.9c0.6-2,0.6-3.8,0.9-5.5c8.4,23.6,22.7,95.5,23.3,141.2
		C649.9,303.4,647,304,643.8,304.9 M638.5,354.4c0.6-1.7,1.2-4.1,1.2-4.1c2.3-8.7,6.1-22.1,12.8-34.1c-0.3,12.2-0.9,24.5-2,36.4
		C646.1,352.9,641.4,353.8,638.5,354.4 M625.1,460.4c-4.9,5.5-9.9,10.2-15.4,14c-2,1.2-2.9,1.5-3.2,1.2c0.3,0,1.2-1.7,1.2-1.7
		c4.4-5.5,30.3-59.1,32.9-96.4l3.8-3.8c1.5-1.7,2.9-3.2,4.4-4.7C645.2,398.1,638.2,427.5,625.1,460.4 M669.4,296.7
		c0.3,5.8,0.6,11.9,0.6,17.8c0,54.4-16,108.9-40.5,140.6c11.9-32,18.6-60.6,22.1-88.8c3.2-3.2,6.7-6.1,10.8-9l0.9-0.6l-0.6-0.9
		c-1.2-2.6-5.2-3.2-9.9-3.2c1.2-13.4,1.7-26.8,2-40.5c1.7-2.9,3.5-5.5,5.5-7.9l2-1.7h-0.6l0,0h-2.3c-1.5,0-2.9,0-4.9,0.3
		c-0.9-49.8-17.8-131-25.9-147c-0.6-5.5-2.9-8.7-4.9-11.6c0,0-0.6-0.9-0.9-1.5c1.7,1.5,3.8,3.2,4.9,4.9l1.5,2.6l0,0
		C642.9,171.6,664.1,217.6,669.4,296.7 M703.4,360.2c-0.3,0.3-0.6,0.6-0.9,0.9c0,0-1.5,1.7-1.7,2c0-0.6,0-1.2,0-1.2l-0.3-3.5
		c-0.6-13.4-2.6-49.2-18.6-110.3c-4.9-18.9-21-53-35.2-80.3c5.5,7.9,9.9,14.8,11.1,16.9l1.7,4.4c3.5,9.3,11.1,29.1,21.5,46.6
		l4.7,11.4c0,0,0,0,0.3,0.3C705.2,302.3,708.4,350.3,703.4,360.2 M715.7,310.7c0,1.2,0,2,0,3.2c0,17.2-3.2,31.7-8.4,41
		c2.6-17.5-2.3-58.2-17.2-102.8c3.5,3.8,8.4,8.4,13.7,12.2C710.7,274,715.1,291.2,715.7,310.7 M730.8,266.8
		c-3.5,1.7-11.6,1.7-18.3-2.9c-1.7-1.2-3.5-2.6-4.9-4.1c-0.3-0.3-0.6-0.9-0.9-1.2c-17.8-17.2-27.7-39.9-35.5-57.9l-9-18.9
		c-10.8-19.5-20.4-34.1-30.6-43.1c0.3-4.1,0.3-8.7,0-13.1c11.9,9.3,33.5,52.7,38.1,65.2c4.9,13.7,30.9,67.5,61.1,75.7
		C730.5,266.5,730.5,266.8,730.8,266.8 M691.8,202.4l14.8,24.2c8.2,13.1,18.6,30,22.4,37c-28.8-9.6-53.9-62.9-57.6-73.7
		c-4.9-13.4-27.7-59.1-39.9-67c-0.3,0-0.3,0-0.6,0c-0.3-3.2-0.9-5.8-1.7-7.9l-7.3-10.5l-1.2-1.5l8.7-0.3
		c10.2,2.9,45.4,28.2,49.8,37.3c3.5,7.9,25,42.8,47.7,59.1c-13.1-2.6-24.2-7.6-49.2-42.8c-7.9-11.1-26.2-32.9-33.2-37.8l-1.5,1.5
		C650.5,131.1,688,195.1,691.8,202.4"/>
	<path class="st0" d="M298.8,528.2c-0.3,0-0.3,0.9-0.3,0.9l-0.3,0.9c-0.3,0.9,0,2,0,3.2c0,1.2,0.3,2.6,0.3,3.5
		c0.9,7.6,9,21.5,20.4,27.1c2,0.9,5.8,2.6,7.3,1.7l0.6-0.3v-0.9c0-0.6-0.3-1.7-6.7-4.9c-7.9-3.8-16.9-17.5-17.5-23.3
		c-0.9-7-2.3-7.3-2.9-7.6"/>
	<path class="st0" d="M539.8,72c0.3-1.2-0.3-2-1.2-2.6l-2-0.9c-3.5-1.5-9.3-3.8-9.6-11.1c-0.3-2.9,0.3-4.7,1.7-5.2
		c3.2-1.5,9.9,2.9,13.7,6.1c7.9,7.3,10.8,16.6,8.4,26.2l2,0.9c0-0.3,0-0.3,0.3-0.6l0,0v-0.3c1.7-2.6,2.9-5.2,2.9-8.2
		c0-7.3-4.7-14.6-6.4-17.5c-7.6-13.1-20.1-15.7-23.9-15.7c-4.9,0-8.2,2-8.7,5.2c-0.3,2.3,0.6,3.2,1.7,4.1l1.7,2l0.6,3.5l0.3,3.5
		c2,5.2,9.3,9.6,15.4,11.4C536.9,72.9,539.2,73.7,539.8,72"/>
</g>
</svg>
