<?xml version="1.0" encoding="utf-8"?>
<!-- Generator: Adobe Illustrator 21.0.0, SVG Export Plug-In . SVG Version: 6.00 Build 0)  -->
<svg version="1.1" id="RGB_Maroon" xmlns="http://www.w3.org/2000/svg" xmlns:xlink="http://www.w3.org/1999/xlink" x="0px" y="0px"
	 width="400px" height="88px" viewBox="0 0 400 88" style="enable-background:new 0 0 400 88;" xml:space="preserve">
<style type="text/css">
	.st0{fill:#FFFFFF;}
</style>
<g>
	<path class="st0" d="M393.2,11.4L393.2,11.4l0-0.1c-0.1-0.9-0.1-2.2-0.1-3.4V7.6l-0.2,0.1c-0.3,0.1-1.9,0.1-3.5,0.1h-4.8
		c-1,0-1.9,0-3-0.1l-0.1,0l0,0c-0.2,0.1-0.3,0.4-0.3,0.5c0,0.2,0.1,0.4,0.2,0.5l0.5,0.1c1.3,0.2,1.4,0.3,1.4,3.1v9.4
		c0,2.8-0.1,2.9-1.4,3.1l-0.7,0.1l0,0c-0.1,0.1-0.2,0.4-0.1,0.6c0,0.2,0.1,0.3,0.2,0.4l0,0l0.1,0c1.2-0.1,2.1-0.1,3.3-0.1
		c1.1,0,2,0,3.5,0.1l0.1,0l0,0c0.2-0.1,0.2-0.3,0.3-0.5c0-0.2-0.1-0.4-0.2-0.5l-1-0.1c-1.3-0.1-1.4-0.3-1.4-3.1v-3.6
		c0-0.5,0-0.5,0.7-0.5h1.8c0.9,0,1.6,0,2,0.1c0.4,0.1,0.6,0.4,0.7,0.9l0.3,1.1l0,0c0.3,0.2,0.8,0.2,1,0l0-0.1v-0.1c0-0.3,0-0.6,0-1
		c0-0.5-0.1-1-0.1-1.5c0-0.5,0-1.1,0.1-1.6c0-0.4,0-0.8,0-1.1v-0.1l0-0.1c-0.1-0.2-0.4-0.2-0.5-0.2c-0.2,0-0.4,0.1-0.5,0.2l-0.3,1.1
		c-0.1,0.6-0.3,0.7-0.5,0.8c-0.3,0.1-1.1,0.1-2.2,0.1h-1.8c-0.7,0-0.7,0-0.7-0.5V9.8c0-0.8,0-0.8,0.6-0.8h1.6c1.1,0,1.9,0,2.5,0.2
		c1.1,0.3,1.5,1,1.7,2.3l0,0.1l0.1,0c0.1,0.1,0.2,0.1,0.4,0.1C392.9,11.6,393.1,11.6,393.2,11.4L393.2,11.4z M375.7,16.5
		c0-4.4-2.9-9.2-9.3-9.2c-5.4,0-9.5,4.1-9.5,9.4c0,4.5,3.3,9.1,9.5,9.1C371.7,25.8,375.7,21.8,375.7,16.5L375.7,16.5z M372.6,17.3
		c0,5.4-3.2,7.3-5.9,7.3c-5.4,0-6.8-5.5-6.8-8.7c0-5.5,3.3-7.4,6.1-7.4C370.9,8.5,372.6,13.2,372.6,17.3L372.6,17.3z M351.2,61.9
		c0,11.3,8.4,21.3,22.4,21.3c12.1,0,21.8-9.2,21.8-21.9c0-11.1-7.3-21.6-21.8-21.6C360.6,39.7,351.2,49.4,351.2,61.9L351.2,61.9z
		 M357.5,59.9c0-13.8,8.5-18.2,15-18.2c12,0,16.6,11.2,16.6,21.6c0,12.4-7.2,18-14.7,18C362,81.3,357.5,69.2,357.5,59.9L357.5,59.9z
		 M343.6,8.6c0.1-0.1,0.2-0.3,0.2-0.5c0-0.2-0.1-0.4-0.3-0.5l-0.1,0l-0.1,0c-1.9,0.1-3,0.1-4.9,0l-0.1,0l0,0
		c-0.1,0.1-0.2,0.2-0.3,0.4c0,0.2,0,0.4,0.2,0.6l0.1,0.1l0.5,0.1c0.5,0.1,0.8,0.2,0.9,0.3c-0.1,0.4-1,2.1-1.6,3.1l-0.1,0.2
		c-0.6,1.2-1.4,2.5-2.3,4.1c-0.7-1.2-1.4-2.6-2-3.9c-0.3-0.5-0.5-1-0.8-1.6c-0.2-0.4-0.8-1.7-0.8-1.9c0-0.1,0.1-0.2,0.9-0.3l0.4-0.1
		l0,0c0.1-0.1,0.2-0.4,0.1-0.6c0-0.2-0.2-0.3-0.3-0.4l0,0l0,0c-0.6,0.1-1.6,0.1-2.8,0.1c-1.2,0-2.2,0-3-0.1l-0.1,0l-0.1,0
		c-0.1,0.1-0.2,0.2-0.2,0.4c0,0.2,0,0.4,0.1,0.6l0,0.1l0.8,0.1c0.7,0.1,1,0.2,1.9,1.9l3.1,6c0.7,1.4,0.8,1.7,0.8,3.2v1.3
		c0,2.8-0.1,3-1.4,3.1l-0.9,0.1l-0.1,0.1c-0.1,0.1-0.2,0.4-0.1,0.6c0,0.2,0.1,0.3,0.2,0.4l0,0l0.1,0c1.4-0.1,2.3-0.1,3.4-0.1
		c1.1,0,2,0,3.6,0.1l0.1,0l0,0c0.1-0.1,0.2-0.2,0.2-0.4c0-0.2,0-0.4-0.1-0.6l-0.1-0.1l-1.1-0.1c-1.2-0.1-1.4-0.3-1.4-3.1v-1.4
		c0-2,0.1-2.2,1.2-4.1l1.7-2.9c0.2-0.3,0.3-0.5,0.4-0.7c1-1.8,1.8-3.1,2.9-3.3L343.6,8.6L343.6,8.6L343.6,8.6z M334.4,40.7
		c-1.1-0.3-4.4-0.9-8-0.9c-9.5,0-15.7,3-19.9,7.4c-3.9,4.1-5.7,9.6-5.7,14.9c0,5.5,2,10.5,5.8,14.3c4.8,4.9,11.7,7,19.2,7
		c3.4,0,7.9-0.8,11.3-1.6c1.2-0.3,2.3-0.6,3.1-0.6c0.3-0.2,0.3-0.6,0.1-0.8c-1.1-0.4-1.5-1.9-1.5-4.5v-3.5c0-3.2,0.1-5,2.7-5.3
		l1-0.1c0.4-0.4,0.4-1.3-0.1-1.6c-2.1,0.1-4.2,0.2-6.7,0.2c-3.7,0-7.2-0.1-9-0.2c-0.4,0.2-0.5,1.3,0,1.6l2.8,0.3
		c3.9,0.4,4.1,0.8,4.1,6.1v2.5c0,2-0.3,3.1-0.6,3.6c-0.7,1.1-3,1.9-6.9,1.9c-12.6,0-18.9-9.5-18.9-21.6c0-9.4,5.3-18.1,17.5-18.1
		c6.4,0,11.1,2.1,12.9,8.9c0.4,0.4,1.5,0.3,1.7-0.2c-0.6-3.8-0.9-7-0.9-9.1C337.6,41.4,335.6,40.9,334.4,40.7L334.4,40.7z
		 M323.7,7.3L323.7,7.3l0-0.1c-0.1-0.2-0.4-0.2-0.5-0.2c-0.1,0-0.2,0-0.2,0l-0.1,0l0,0.1c-0.3,0.6-0.5,0.6-1.9,0.6h-10.8
		c-1.2,0-1.7-0.1-1.8-0.6l0-0.1l0,0c-0.1-0.1-0.2-0.1-0.4-0.1c-0.1,0-0.3,0-0.4,0.1l-0.1,0l0,0.1c-0.2,1-0.6,2.7-1,3.9l0,0.1l0,0.1
		c0.2,0.3,0.7,0.5,1,0.3l0,0l0,0c0.3-0.6,0.5-1.2,1.1-1.7c0.6-0.5,1.9-0.6,3.1-0.6h1.4c0.6,0,0.6,0,0.6,0.6v11.7
		c0,2.8-0.2,3-1.4,3.1l-0.9,0.1l-0.1,0c-0.2,0.1-0.2,0.3-0.2,0.5c0,0.2,0.1,0.4,0.2,0.5l0,0l0.1,0c1.6,0,2.6-0.1,3.6-0.1
		c1,0,1.9,0,3.4,0.1l0.1,0l0,0c0.2-0.1,0.3-0.4,0.3-0.5c0-0.2-0.1-0.4-0.2-0.5l-0.9-0.1c-1.3-0.1-1.4-0.3-1.4-3.1V9.5
		c0-0.3,0-0.5,0-0.6c0,0,0.3,0,0.5,0h1.9c1.4,0,2.4,0.2,2.9,0.6c0.2,0.2,0.5,0.8,0.6,1.8l0,0.1l0,0c0.1,0.1,0.3,0.2,0.5,0.2
		c0.2,0,0.5-0.1,0.5-0.3l0-0.1l0-0.1C323.2,10.5,323.4,8.3,323.7,7.3L323.7,7.3z M299.8,21.2v-9.3c0-2.9,0.1-3,1.4-3.2l0.7-0.1l0,0
		c0.1-0.1,0.2-0.3,0.2-0.5c0-0.1,0-0.4-0.3-0.5l0,0l-0.1,0c-1.2,0-2.2,0.1-3.2,0.1c-1.1,0-2,0-3.3-0.1l-0.1,0l0,0
		c-0.2,0.1-0.2,0.4-0.3,0.5c0,0.2,0.1,0.4,0.2,0.5l0,0l0.7,0.1c1.3,0.1,1.4,0.3,1.4,3.2v9.3c0,2.8-0.1,3-1.4,3.1l-0.7,0.1l0,0
		c-0.1,0.1-0.2,0.4-0.1,0.6c0,0.2,0.1,0.3,0.2,0.4l0,0l0.1,0c1.3-0.1,2.2-0.1,3.3-0.1c1,0,1.9,0,3.2,0.1l0.1,0l0,0
		c0.2-0.1,0.3-0.4,0.3-0.5c0-0.2-0.1-0.4-0.2-0.5l-0.7-0.1C299.9,24.2,299.8,24,299.8,21.2L299.8,21.2z M295.5,80.7
		c-2.7-0.3-3.5-1.3-5.3-6.7l-8.6-25.3c-0.9-2.8-1.9-5.7-2.8-8.4c-0.1-0.4-0.6-0.6-0.9-0.6c-0.7,0.8-1.8,1.9-3.3,2.4
		c0.2,1-0.2,2.2-1.1,4.5l-6.4,17c-2.6,7-4.4,11.1-5.5,14c-0.9,2.3-2.3,3-3.8,3.1l-2.1,0.2c-0.4,0.3-0.3,1.3,0.1,1.6
		c1.7-0.1,4-0.2,6-0.2c3,0.1,4.9,0.1,6.5,0.2c0.6-0.3,0.6-1.3,0.1-1.6l-2.1-0.2c-1.5-0.1-1.8-0.5-1.8-1.3c0-0.7,0.4-2.4,1.4-5.2
		l2.2-6.6c0.4-1.3,0.8-1.5,2.4-1.5h9.5c1.9,0,2.1,0.2,2.6,1.6l2.8,8.5c0.5,1.5,0.8,2.6,0.8,3.3c0,0.6-0.9,1-2.2,1.1l-1.8,0.2
		c-0.4,0.3-0.4,1.3,0.1,1.6c1.8-0.1,4.2-0.2,7.2-0.2c2.8,0,5,0.1,7.6,0.2c0.3-0.3,0.4-1.3,0-1.6L295.5,80.7L295.5,80.7z M279.3,63.6
		h-7.7c-1.8,0-1.8-0.1-1.3-1.5l4-10.9c0.7-1.9,1.3-3.4,1.5-3.7h0.1c0.4,0.8,0.9,2.5,1.4,4l3.4,10.2
		C281.2,63.3,281.1,63.6,279.3,63.6L279.3,63.6z M281.9,11.2c0-1,0.4-2.7,2.9-2.7c2.3,0,3,1.5,3.4,2.8l0,0.1
		c0.1,0.1,0.2,0.2,0.4,0.2c0.2,0,0.5-0.1,0.6-0.3l0-0.1v-0.1c0-1.1-0.2-2.6-0.5-3.3l0-0.1h-0.1c-0.2,0-0.5,0-0.9-0.1
		c-0.6-0.2-1.6-0.3-2.5-0.3c-3.3,0-5.5,1.9-5.5,4.7c0,2.4,1.8,4,2.9,4.7l2.5,1.6c1.8,1.2,2.1,2.4,2.1,3.5c0,1.4-1,2.8-3.1,2.8
		c-2.7,0-3.8-2-4.3-3.8l0-0.1c-0.1-0.1-0.2-0.2-0.4-0.2c-0.2,0-0.4,0.1-0.6,0.3l0,0.1l0,0.1c0,1.2,0.4,3.1,0.7,3.8l0,0l0,0
		c0.5,0.3,2,1,4.2,1c3.5,0,5.8-2,5.8-5c0-2.1-1.1-3.8-3.4-5.2l-2.1-1.3C283.2,13.8,281.9,12.7,281.9,11.2L281.9,11.2z M275.3,25.5
		c0.1-0.1,0.2-0.3,0.2-0.4c0-0.1-0.1-0.3-0.2-0.3l-0.1,0c-0.6,0-1.3-0.3-1.7-0.7c-1.8-1.5-3.2-3.7-5.2-6.9c-0.1-0.2-0.2-0.3-0.2-0.4
		c0.9-0.4,3.3-1.6,3.3-4.5c0-2.2-1.2-3.3-2.3-3.8c-1.3-0.7-3-0.8-4.5-0.8c-2.4,0-4.3,0.1-5.9,0.2l-0.1,0c-0.2,0.1-0.3,0.2-0.3,0.5
		c0,0.2,0.1,0.4,0.2,0.5l0,0l0.9,0.1c0.9,0.1,1,0.3,1,2.9v9.4c0,2.8-0.1,2.9-1.4,3.1l-0.7,0.1l-0.1,0.1c-0.1,0.2-0.2,0.4-0.1,0.6
		c0,0.2,0.1,0.3,0.2,0.4l0,0l0.1,0c1.2,0,2.1-0.1,3.3-0.1c1.1,0,2,0,3.1,0.1l0.1,0l0,0c0.2-0.1,0.2-0.3,0.3-0.5c0-0.2,0-0.4-0.2-0.5
		l0,0l-0.6-0.1c-1.3-0.2-1.4-0.3-1.4-3.1V18c0-0.4,0-0.4,1-0.4c1,0,1.3,0.2,1.7,0.8c0.4,0.6,0.9,1.3,1.3,2c0.5,0.7,0.9,1.4,1.3,1.9
		c1.8,2.6,3.2,3.4,5.6,3.4C274.5,25.7,274.9,25.6,275.3,25.5L275.3,25.5L275.3,25.5z M267.4,15.8c-0.7,0.6-1.8,0.6-2.6,0.6
		c-1.2,0-1.5,0-1.7-0.1c0-0.1,0-0.4,0-0.7V9.5c0-0.6,0-0.6,1.5-0.6c2.9,0,4,2.1,4,3.8C268.6,14.1,268.2,15.1,267.4,15.8L267.4,15.8z
		 M253.8,21.7L253.8,21.7l0-0.1c-0.1-0.3-0.4-0.4-0.6-0.4c-0.1,0-0.2,0-0.3,0.1l-0.1,0.1c-0.8,1.5-1.4,2.3-1.8,2.5
		c-0.6,0.3-1.4,0.4-3.3,0.4c-2.2,0-2.7-0.3-3-0.5c-0.4-0.4-0.4-1.2-0.4-2.6v-3.7c0-0.5,0-0.5,0.7-0.5h1.5c0.9,0,1.6,0,2,0.1
		c0.4,0.1,0.6,0.3,0.7,0.8l0.2,1l0,0.1c0.1,0.1,0.3,0.2,0.5,0.2c0.2,0,0.4-0.1,0.5-0.2l0,0v-0.1c0-0.3,0-0.6,0-1
		c0-0.5-0.1-1-0.1-1.5c0-0.5,0-1.1,0.1-1.6c0-0.4,0-0.8,0-1v-0.1l0,0c-0.1-0.2-0.3-0.2-0.5-0.2c-0.2,0-0.4,0.1-0.5,0.2l-0.3,1.2
		c-0.1,0.6-0.3,0.7-0.5,0.8c-0.3,0.1-1.1,0.1-2.2,0.1H245c-0.7,0-0.7,0-0.7-0.5V9.8c0-0.8,0-0.8,0.6-0.8h1.9c1.1,0,2,0,2.5,0.2
		c1.2,0.3,1.4,1.1,1.8,2.2l0.1,0.2l0,0.1c0.1,0.1,0.2,0.2,0.4,0.2c0.2,0,0.4-0.1,0.6-0.2l0-0.1l0-0.4c-0.1-1.5-0.3-2.8-0.4-3.2
		l-0.1-0.2l-0.2,0c-0.3,0.1-1.9,0.1-3.5,0.1h-4.9c-1,0-1.9,0-3.1-0.1l-0.1,0l0,0c-0.2,0.1-0.3,0.4-0.3,0.5c0,0.2,0.1,0.4,0.2,0.5
		l0.5,0.1c1.3,0.2,1.4,0.3,1.4,3.1v9.4c0,2.8-0.2,3-1.4,3.1l-0.9,0.1l-0.1,0.1c-0.1,0.1-0.2,0.4-0.1,0.6c0,0.2,0.1,0.3,0.2,0.4l0,0
		l0.1,0c1.5,0,2.4-0.1,3.6-0.1h2.4c2.3,0,4.6,0,7,0.1l0.1,0l0.1-0.1C253,24.6,253.6,22.6,253.8,21.7L253.8,21.7z M235.9,8.6
		c0.1-0.1,0.2-0.4,0.1-0.6c0-0.2-0.1-0.3-0.2-0.4l-0.1,0l-0.1,0c-0.9,0.1-1.7,0.1-2.5,0.1c-1,0-2,0-2.7-0.1l-0.1,0l-0.1,0
		c-0.1,0.1-0.2,0.3-0.3,0.5c0,0.2,0,0.4,0.2,0.5l0,0l0.5,0.1c0.9,0.1,1,0.3,1,0.3c0,0.2,0,0.4-0.2,0.9c-0.5,1.1-1.7,4.1-2.4,5.9
		c-0.2,0.4-0.4,1-0.7,1.7c-0.5,1.2-1.1,2.6-1.6,3.7c-1.2-2.8-2.4-5.7-3.5-8.6c-0.8-1.9-1.2-3.2-1.3-3.6c0-0.1,0.3-0.2,1.1-0.3
		l0.5-0.1l0,0c0.1-0.1,0.2-0.3,0.2-0.5c0-0.2-0.1-0.4-0.3-0.5l-0.1,0l-0.1,0c-1.2,0.1-2.1,0.1-3.2,0.1c-1.1,0-1.9,0-2.7-0.1l-0.1,0
		l-0.1,0c-0.2,0.1-0.3,0.3-0.3,0.5c0,0.2,0.1,0.4,0.2,0.5l0,0l0.5,0.1c1,0.1,1.4,0.6,2,2l4.6,11.4c0.5,1.4,1,2.5,1.2,3.5l0,0.1
		l0.1,0c0.2,0.1,0.3,0.1,0.5,0.1c0.2,0,0.3,0,0.4-0.1l0.1,0l0-0.1c0.4-1.4,1.7-4.5,2.7-6.8l1.4-3.2c1.2-2.8,2.2-4.8,2.9-6
		c0.3-0.5,0.7-0.8,1.2-0.8L235.9,8.6L235.9,8.6L235.9,8.6z M218.8,45.1c-4.8,3.7-7.9,9.7-7.9,16.7c0,8.1,3.9,13.8,8.9,17.3
		c4.6,3.1,10,4.2,15.7,4.2c4,0,8.6-0.9,9.9-1.4c0.7-0.2,1.4-0.5,2.2-0.6c0.9-1.2,2.6-5.3,3-8.6c-0.3-0.4-1.2-0.6-1.6-0.3
		c-1.4,3.7-5,9-13.1,9c-10.3,0-18.7-7.3-18.7-20.5c0-13,8.2-19.1,17.8-19.1c9.1,0,11.9,4.9,12.9,9.2c0.4,0.4,1.4,0.3,1.7-0.1
		c-0.5-3.8-0.8-7.8-0.9-9.2c-0.6,0.1-1-0.1-1.8-0.3c-3-0.8-7.7-1.5-11.1-1.5C229.2,39.7,223.3,41.5,218.8,45.1L218.8,45.1z
		 M210.7,21.2v-9.3c0-2.8,0.1-3,1.4-3.2l0.7-0.1l0,0c0.1-0.1,0.2-0.3,0.2-0.5c0-0.1,0-0.4-0.3-0.5l0,0l-0.1,0
		c-1.2,0-2.2,0.1-3.2,0.1c-1.1,0-2,0-3.3-0.1l-0.1,0l0,0c-0.2,0.1-0.3,0.4-0.3,0.5c0,0.2,0.1,0.4,0.2,0.5l0,0l0.7,0.1
		c1.3,0.1,1.4,0.3,1.4,3.2v9.3c0,2.8-0.1,3-1.4,3.1l-0.7,0.1l0,0c-0.1,0.1-0.2,0.4-0.1,0.6c0,0.2,0.1,0.3,0.2,0.4l0,0l0.1,0
		c1.3-0.1,2.2-0.1,3.3-0.1c1,0,1.9,0,3.2,0.1l0.1,0l0,0c0.2-0.1,0.3-0.4,0.3-0.5c0-0.2-0.1-0.4-0.2-0.5l-0.7-0.1
		C210.8,24.2,210.7,24,210.7,21.2L210.7,21.2z M197.6,72.7V50.3c0-6.7,0.1-7.7,3.8-8l1.6-0.1c0.4-0.3,0.3-1.4-0.1-1.6
		c-3.1,0.1-5.3,0.2-7.8,0.2c-2.6,0-4.8-0.1-7.9-0.2c-0.4,0.2-0.5,1.3-0.1,1.6l1.6,0.1c3.7,0.3,3.8,1.4,3.8,8v22.4
		c0,6.7-0.1,7.5-3.8,8l-1.6,0.2c-0.4,0.4-0.3,1.4,0.1,1.6c3.1-0.1,5.3-0.2,7.9-0.2c2.5,0,4.7,0.1,7.8,0.2c0.4-0.2,0.5-1.3,0.1-1.6
		l-1.6-0.2C197.7,80.2,197.6,79.4,197.6,72.7L197.6,72.7z M200.8,8.6c0.1-0.1,0.2-0.3,0.2-0.5c0-0.2-0.1-0.3-0.3-0.4l-0.1,0l-0.1,0
		c-0.9,0.1-1.5,0.1-2.7,0.1c-0.9,0-1.8,0-3.1-0.1l0,0l0,0c-0.2,0.1-0.3,0.2-0.3,0.4c0,0.2,0,0.5,0.2,0.6l0,0l0.5,0.1
		c0.9,0.1,1.4,0.2,1.5,0.4c0.3,0.5,0.5,2.4,0.5,5.3v5.6c0,0.3,0,0.5,0,0.7c-0.9-0.9-1.9-2-3-3.3l-3.6-4.1c-2.6-2.9-4.1-4.8-4.4-5.7
		L186,7.6l-0.2,0c-0.3,0-0.7,0.1-1.2,0.1c-0.5,0-1.9,0-2.9-0.1l-0.1,0l0,0c-0.1,0.1-0.2,0.2-0.3,0.4c0,0.2,0,0.4,0.2,0.6l0,0.1
		l0.5,0.1c0.7,0.1,1.2,0.3,1.5,0.6c0.5,0.5,0.5,1,0.5,1.7l0,7.8c0,1.3,0,4.2-0.3,5.1c-0.1,0.1-0.3,0.3-1,0.4l-0.8,0.1l0,0
		c-0.1,0.1-0.2,0.3-0.2,0.5c0,0.2,0.1,0.4,0.2,0.5l0.1,0l0.1,0c0.9-0.1,1.6-0.1,2.7-0.1c0.9,0,1.8,0,3.1,0.1l0.1,0l0.1,0
		c0.1-0.1,0.2-0.2,0.2-0.4c0-0.2,0-0.4-0.1-0.5l-0.1-0.1l-0.9-0.1c-0.6-0.1-1.1-0.2-1.2-0.4c-0.3-0.5-0.4-2.4-0.4-5.3v-5.7
		c0-0.5,0-1,0.1-1.3c0.4,0.5,1.1,1.3,1.7,2c0.4,0.5,0.8,1,1.1,1.3l6.1,6.9c2,2.3,3,3.4,3.3,3.9l0.1,0.1h0.1c0.3,0,0.6-0.2,0.7-0.4
		l0,0l0,0c0-0.3-0.1-1.3-0.1-4.6l0-6.6c0-1.3,0-4.1,0.4-5c0-0.1,0.3-0.3,1.3-0.4L200.8,8.6L200.8,8.6L200.8,8.6z M177.3,8.6
		c0.1-0.1,0.2-0.4,0.1-0.6c0-0.2-0.1-0.3-0.2-0.4l-0.1,0l-0.1,0c-0.9,0.1-1.6,0.1-2.7,0.1c-1,0-2,0-3-0.1l-0.1,0l-0.1,0
		c-0.1,0.1-0.2,0.2-0.2,0.4c0,0.2,0,0.4,0.1,0.5l0.1,0.1l0.7,0.1c0.6,0,1,0.2,1.2,0.5c0.3,0.5,0.5,2.4,0.5,5.3v3
		c0,3.1-0.9,6.8-5,6.8c-3.5,0-5.1-2.2-5.1-6.8v-5.7c0-2.8,0.1-3,1.4-3.1l0.7-0.1l0,0c0.1-0.1,0.2-0.3,0.2-0.5c0-0.2-0.1-0.4-0.3-0.5
		l0,0l-0.1,0c-1.2,0.1-2.1,0.1-3.2,0.1c-1.1,0-2,0-3.2-0.1l-0.1,0l0,0c-0.2,0.1-0.2,0.3-0.3,0.5c0,0.2,0.1,0.4,0.2,0.5l0,0l0.7,0.1
		c1.3,0.1,1.4,0.3,1.4,3.1V18c0,3.2,0.7,5.1,2.1,6.3c1.2,1,2.8,1.5,5,1.5c2.1,0,4-0.8,5.1-2c1.3-1.4,1.9-3.5,1.9-6.4v-3
		c0-1.3,0-4.4,0.3-5.3c0.1-0.3,0.6-0.5,1.1-0.5L177.3,8.6L177.3,8.6L177.3,8.6z M147.2,42.1c0.4-0.3,0.3-1.4-0.1-1.6
		c-2.7,0.1-4.8,0.2-7.3,0.2c-2.7,0-4.8-0.1-7.9-0.2c-0.4,0.2-0.5,1.3-0.1,1.6l1.6,0.1c3.3,0.3,3.7,1.3,3.7,7.9v22.6
		c0,6.6-0.1,7.2-3.6,7.9l-1.1,0.2c-0.4,0.4-0.3,1.4,0.1,1.6c2.5-0.1,4.6-0.2,7.3-0.2c2.5,0,4.6,0.1,8,0.2c0.4-0.2,0.5-1.3,0.1-1.6
		l-1.8-0.2c-3.5-0.4-3.8-1.3-3.8-7.9v-8.9c0-1.9,0.1-2,3.1-2h18c3,0,3.1,0.1,3.1,2v8.9c0,6.6,0,7.2-3.8,7.9l-1.2,0.2
		c-0.4,0.4-0.3,1.4,0.1,1.6c2.8-0.1,5-0.2,7.6-0.2c2.5,0,4.6,0.1,7.6,0.2c0.4-0.2,0.5-1.3,0.1-1.6l-1.5-0.2
		c-3.6-0.4-3.8-1.3-3.8-7.9V50.2c0-6.6,0.1-7.5,3.8-7.9l1.3-0.1c0.4-0.3,0.3-1.4-0.1-1.6c-2.8,0.1-5,0.2-7.4,0.2
		c-2.6,0-4.7-0.1-7.6-0.2c-0.4,0.2-0.5,1.3-0.1,1.6l1.2,0.1c3.7,0.4,3.8,1.3,3.8,7.9v7.2c0,1.9-0.1,2-3.1,2h-18c-3,0-3.1-0.1-3.1-2
		v-7.2c0-6.6,0.1-7.5,3.8-7.9L147.2,42.1L147.2,42.1z M144.7,21.7L144.7,21.7l0-0.1c-0.1-0.3-0.4-0.4-0.6-0.4c-0.1,0-0.2,0-0.3,0.1
		l-0.1,0.1c-0.8,1.5-1.4,2.3-1.8,2.5c-0.6,0.3-1.4,0.4-3.3,0.4c-2.2,0-2.7-0.3-3-0.5c-0.4-0.4-0.4-1.2-0.4-2.6v-3.7
		c0-0.5,0-0.5,0.7-0.5h1.5c0.9,0,1.6,0,2,0.1c0.4,0.1,0.6,0.3,0.7,0.8l0.2,1l0,0.1c0.1,0.1,0.3,0.2,0.5,0.2c0.2,0,0.4-0.1,0.5-0.2
		l0,0v-0.1c0-0.3,0-0.6,0-1c0-0.5-0.1-1-0.1-1.5c0-0.5,0-1.1,0.1-1.6c0-0.4,0-0.8,0-1v-0.1l0,0c-0.1-0.2-0.3-0.2-0.5-0.2
		c-0.2,0-0.4,0.1-0.5,0.2l-0.3,1.2c-0.1,0.6-0.3,0.7-0.5,0.8c-0.3,0.1-1.1,0.1-2.2,0.1h-1.5c-0.7,0-0.7,0-0.7-0.5V9.8
		c0-0.8,0-0.8,0.6-0.8h1.9c1.1,0,2,0,2.5,0.2c1.2,0.3,1.4,1.1,1.8,2.2l0,0.2l0,0.1c0.1,0.1,0.2,0.2,0.4,0.2c0.2,0,0.4-0.1,0.5-0.2
		l0-0.1l0-0.4c-0.1-1.5-0.3-2.8-0.4-3.2l-0.1-0.2l-0.2,0c-0.3,0.1-1.9,0.1-3.5,0.1h-4.9c-1,0-1.9,0-3.1-0.1l-0.1,0l0,0
		c-0.2,0.1-0.3,0.4-0.3,0.5c0,0.2,0.1,0.4,0.2,0.5l0.5,0.1c1.3,0.2,1.4,0.3,1.4,3.1v9.4c0,2.8-0.2,3-1.4,3.1l-0.9,0.1l-0.1,0.1
		c-0.1,0.1-0.2,0.4-0.1,0.6c0,0.2,0.1,0.3,0.2,0.4l0,0l0.1,0c1.5,0,2.4-0.1,3.6-0.1h2.4c2.3,0,4.6,0,7,0.1l0.1,0l0.1-0.1
		C143.8,24.6,144.5,22.6,144.7,21.7L144.7,21.7z M122.8,21.3v-9.4c0-2.8,0.1-3,1.4-3.1l0.5-0.1l0.1,0c0.1-0.1,0.2-0.3,0.2-0.5
		c0-0.1,0-0.4-0.3-0.5l0,0l-0.1,0c-1.3,0.1-2.1,0.1-3.1,0.1c-1.1,0-2.1,0-3.2-0.1l-0.1,0l0,0c-0.2,0.1-0.3,0.4-0.3,0.5
		c0,0.2,0.1,0.4,0.2,0.5l0.6,0.1c1.3,0.1,1.4,0.3,1.4,3.1v3c0,0.6,0,0.6-1.1,0.6h-7.5c-1.1,0-1.1,0-1.1-0.6v-3c0-2.8,0.1-3,1.4-3.1
		l0.5-0.1l0.1,0c0.1-0.1,0.2-0.3,0.2-0.5c0-0.1,0-0.4-0.3-0.5l0,0l-0.1,0c-1.2,0.1-2.1,0.1-3,0.1c-0.7,0-1.3,0-1.9,0
		c-0.4,0-0.9,0-1.4,0l0,0l0,0c-0.2,0.1-0.3,0.4-0.3,0.5c0,0.2,0.1,0.4,0.2,0.5l0,0l0.7,0.1c1.2,0.1,1.4,0.3,1.4,3.1v9.4
		c0,2.7-0.1,2.8-1.4,3.1l-0.5,0.1l0,0c-0.2,0.1-0.2,0.4-0.1,0.6c0,0.2,0.1,0.3,0.2,0.4l0,0l0,0c0.4,0,0.7,0,1,0c0.6,0,1.3,0,2,0
		c1,0,1.8,0,3.3,0.1l0.1,0l0,0c0.2-0.1,0.2-0.3,0.3-0.5c0-0.2-0.1-0.4-0.2-0.5l-0.8-0.1c-1.3-0.1-1.4-0.3-1.4-3.1v-3.7
		c0-0.6,0-0.6,1.1-0.6h7.5c1.1,0,1.1,0,1.1,0.6v3.7c0,2.8,0,2.8-1.4,3.1l-0.6,0.1l0,0c-0.1,0.1-0.2,0.4-0.1,0.6
		c0,0.2,0.1,0.3,0.2,0.4l0,0l0.1,0c1.3-0.1,2.2-0.1,3.2-0.1c1,0,1.9,0,3.2,0.1l0.1,0l0,0c0.2-0.1,0.3-0.4,0.3-0.5
		c0-0.2-0.1-0.4-0.2-0.5l-0.7-0.1C122.9,24.2,122.8,24,122.8,21.3L122.8,21.3z M101.3,7.3L101.3,7.3l0-0.1c-0.1-0.2-0.4-0.2-0.5-0.2
		c-0.1,0-0.2,0-0.2,0l-0.1,0l0,0.1c-0.3,0.6-0.5,0.6-1.9,0.6H87.7c-1.2,0-1.7-0.1-1.8-0.6l0-0.1l0,0c-0.1-0.1-0.2-0.1-0.4-0.1
		c-0.1,0-0.3,0-0.4,0.1L85,7l0,0.1c-0.2,1-0.6,2.7-1,3.9l0,0.1l0,0.1c0.2,0.3,0.7,0.5,1,0.3l0,0l0,0c0.3-0.6,0.5-1.2,1.1-1.7
		c0.6-0.5,1.9-0.6,3.1-0.6h1.4c0.6,0,0.6,0,0.6,0.6v11.7c0,2.8-0.2,3-1.4,3.1l-0.9,0.1l-0.1,0c-0.2,0.1-0.2,0.3-0.2,0.5
		c0,0.2,0.1,0.4,0.2,0.5l0,0l0.1,0c1.6,0,2.6-0.1,3.6-0.1c1,0,1.9,0,3.4,0.1l0.1,0l0,0c0.2-0.1,0.2-0.3,0.3-0.5
		c0-0.2-0.1-0.4-0.2-0.5l-0.9-0.1c-1.3-0.1-1.4-0.3-1.4-3.1V9.5c0-0.3,0-0.5,0-0.6c0,0,0.3,0,0.5,0h1.9c1.4,0,2.4,0.2,2.9,0.6
		c0.2,0.2,0.5,0.8,0.6,1.8l0,0.1l0,0c0.1,0.1,0.3,0.2,0.5,0.2c0.2,0,0.5-0.1,0.5-0.3l0-0.1l0-0.1C100.8,10.5,101,8.3,101.3,7.3
		L101.3,7.3z M83.4,61.7c0,8.1,3.9,13.8,8.9,17.3c4.6,3.1,10,4.2,15.7,4.2c4,0,8.5-0.9,9.9-1.4c0.7-0.2,1.4-0.5,2.2-0.6
		c0.9-1.2,2.6-5.3,3-8.6c-0.3-0.4-1.2-0.6-1.6-0.3c-1.4,3.7-5,9-13.1,9c-10.3,0-18.7-7.3-18.7-20.5c0-13,8.2-19.1,17.8-19.1
		c9.1,0,11.9,4.9,12.9,9.2c0.4,0.4,1.4,0.3,1.7-0.1c-0.5-3.8-0.8-7.8-0.9-9.2c-0.6,0.1-1-0.1-1.8-0.3c-3-0.8-7.7-1.5-11.1-1.5
		c-6.5,0-12.4,1.8-17,5.3C86.6,48.8,83.4,54.8,83.4,61.7L83.4,61.7z M67.1,51.1l0-43.8C31.9,4,5.3,7.4,5.3,7.4s0,43.8,0,43.8
		c2.8,29.7,30.6,33.2,30.9,33.1C41.2,83.4,64.5,78.7,67.1,51.1L67.1,51.1z M65.5,50.9c-2.5,26.4-24.6,30.9-29.3,31.8
		c-0.3,0-26.7-3.3-29.3-31.8c0,0,0-42,0-42s25.2-3.3,58.6,0L65.5,50.9L65.5,50.9z M56.6,66.5c1-1.4,1.6-2.9,1.9-4.6
		c-0.6,0.7-1.4,1.4-2.3,1.7C55.6,65.5,55.9,67.5,56.6,66.5L56.6,66.5z M57.5,62.2c0.7-0.6,1.1-1.6,2-1.9c-0.7-0.6-1.4,0.6-1.7,0.2
		c0.6-1,1-1.8,1.1-3c0-0.7,0.8-1.3,1-1.7c-0.7,0.1-2.8,1.3-3.2,2c-1.3,1.8-1.3,3.4-6.9,5.9c-0.3,0,1-1,1.4-2.1
		c0.2-0.5,0.9-2.9,0.4-4.1c-1.2,1.2-0.9,1.6-1.3,2.4c-0.8,2.3-1.3,2.5-3.4,3.9c-0.3,0.2-1.9,2.7-4,2.8c0.2-0.1,0.1-0.6,0.8-1
		c2.3-1.5,1.4-4.8,4.5-5.4c-1.5-0.5-2.6,0.9-2.8,0.8c1.2-1.7,0.1-3.1,0.3-4.5c-0.4,0.2-0.8,0.7-0.9,1.1c-0.2,2.5-1.4,2.9-1.5,4
		c0.2,1.8-1.2,3.1-2.2,4.4c-0.2-1,0.1-1.9,1.4-2.8c0.7-0.5-0.1-1.9-0.1-1.9c-0.3,1.5-1.2,2-1.7,2.1c-0.5,0.1,1.7-2.2,1.4-4.2
		c-0.1-0.9-0.4-0.5-0.5-1.5c-1.8,2-0.5,3.3-2.4,5.6c-0.9,1.1-1.2,3.1-1.3,3.1c0-2.9,0.1-2.1,1.4-4.4c1.1-1.9-0.1-3.8-0.2-4.9
		c-2.3,1.6-2.1,4.7-2.2,4c-0.1-0.7-0.3-1.8,0-2.9c0.5-1.7-0.6-4.4-0.6-4.4c-3.3,5.1-0.5,11.1-0.7,11c-1.4-2.2-2.5-2.3-2.8-4
		c-0.2-0.9-1.9-6-4.9-6.1c1.6,1.3,1.2,1.5,1.3,3.7c-1,5.5,6.7,6.1,6.2,8.9c-1.1-1.7-2.7-2.4-5.1-3.7c-1.1-0.9-2.3-1.2-2.4-2.6
		c0.1-1,0.2-0.8,0-2c-0.1-0.9-1-0.4-1.7-2.2c-1.4,1.3-0.9,2.7-0.8,3.5c0,0.2,0.2,1.1,0,1.6c-0.5-0.3-0.8-1-1.4-1.7
		c-1-1.3-1-2.8-1.5-3.9c-0.2-0.5-0.6-1.2-0.8-1.2l0,0c-0.2,2-0.1,3.7,0.8,5.2c0,0-0.2,0.4-0.5,0.5c-0.9-0.2-2.1-1-2.6-2.4
		c-1.1,0.9-0.3,2.1-0.4,2c-2.4-1.2,0-6-3.4-5.9c0.8,0.9,0.3,2.1,0.2,3.2c0,1.8,2.3,3.2,2.3,3.2c-2.5-0.9-3.1,0.3-3,0.3
		c0,0,3.7,1.6,9.7,2.2c0.8,0.1,1.8,1,1.7,1c-0.8-0.1-2.3-1-4.4,0.9c1.3,0,2.2,2.1,4.2,0.9c5.4-1.5,7.3,1.1,8.2,1.8
		c-0.2,0.3-4.1-2.5-7.2-0.6c-1.7,1-4.3,0.1-6.4-1.5c0.8,2.1,4.4,4.6,5.6,4.6c1.5,0,3.3-1.9,5.4-1.8c3.4,0.2,3.8,3.2,3.5,2.9
		c0,0-2.7-4.4-6.1,0.3c1.6-0.7,3.7-0.5,5.6,0.3c0.3,0.1-0.5,0.9-1,1.5c-0.3,0.4-1.8,2.5-3.3,0.4c-0.2-0.3-1-2.2-5.8-1.8
		c1.8,0.8,3.8,3,4.8,4c2.5,2.5,6.3-3,6.5-2.4c0,1.2,0.6,1.8,1,2.5c0.8,1.7-1.1,1.4-2.1,1c0,0,2,3.1,3.7,1.4c1.8-1.9-2.4-3.4-1.1-4.9
		c0.8-0.9,3.4,1.9,4.7,1.9c3.3,0.4,3.1-2.7,4.8-2.7c-1.6-1.6-3.4-0.8-3.7-0.3c-1.1,1.3-2.4,0.4-3.2-0.3c-0.5-0.6-1.3-0.7-2-0.5
		c-0.3,0,0.7-1.2,2-0.9c3,0.6,6-0.5,6.8-0.9c1.2-0.7,1.9-1.8,3.2-3.1c-0.4,0.1-2.9,1.5-3.7,1.9c-2.4,1.2-3.9-0.4-4.2-0.4
		c-0.5,0-0.3-0.4,0.4-0.6c2.5-0.6,4.2-2.7,6.5-3.6C52,63.6,55.3,64.4,57.5,62.2L57.5,62.2z M52.6,59c-0.1,0.5-0.1,0.9-0.2,1.5
		c0,0.1,0.6,0.3,0.8,0.5c0.4-0.4,0.7-0.5,1.1-1c-0.1-0.1-1.7-1.4-1.7-1.4C52.6,58.8,52.6,58.7,52.6,59L52.6,59z M52.8,61.3
		c0,0-0.6-0.5-0.6-0.4c-0.1,0.3-0.2,0.6-0.4,0.9C51.6,62.2,52.1,62,52.8,61.3L52.8,61.3z M60,55.1c-0.1-5.7-3.6-12-2.7-10.8
		c2.4,2.9,3.1,9.3,4.8,14.8c0,0,1,0.5,0.8-6.4c0-1.4-0.6-3.3-1.3-4.6c-1.4-2.6-4.2-6.9-4.1-7c0.7-0.5,2.3,3.2,3.7,4.7
		c0.9,1,3.5,1.9,3.7,1.8c-2.1-4-7-7.7-6.5-8.2c3.7,3.4,4.8,3.6,5,3.4l-3.3-3.2c-0.9-1.3-2.2-2.2-2-2.2c1.5,0.3-0.8-1.2-2.5-1.7
		c-0.3-0.1-0.8-0.1-0.8-0.3c0-0.3,0.4-0.2,0.8-0.3c0.2-0.1,0.5-0.3,0.5-0.6c-0.7,0.1-1.3,0-1.9-0.3c-1.2-0.5-3.3-1.2-4.2-0.8
		c-0.6,0.2-0.7,0.2-1.3,0.7c-0.3-0.1-1-0.6-2,0.7c-0.3,0.4-0.7,0.8-0.7,1.2c0,0.8,0,0,0.2,0.8c0.1,0.3-0.3,0.9-1.8,1.5
		c-0.6,0.2-0.4,0.8-0.4,0.8c0.3-0.1,0.8-0.5,1.5-0.1c1.4,0.7,1.7-0.4,2.6-1.1c0,0-0.2,0.9,0,1c1.1,0.2,0.7,1,0.6,1.2
		c-1.4,1.2-0.8,1.7-1.3,2.4c-0.5,0.7-1.2,1-2.2,1c-1.5,0,1.9-2.3-1.3-3.2c0.5,0.8,0.7,1.5-0.4,2.2c-0.7,0.4-0.4,2.5-2.2,1.5
		c0,0-0.1,1.6-0.4,1.6c2.5,2.2,1.1,3.4,1.2,6.5c0.8,2-0.1,2.9-0.3,3c0.1,1.3,0.3,2.1,1.1,3.2c0.6,0.8-0.1,2,0.6,2.9
		c0.6-2,1.2-1.2,1.3-4c0.2-0.5,1.2-1.3,1.7-1.4c0,1.7,0.6,3.2,0.5,4c0,0,1.4-0.3,1.9-0.1c0.4,0.1,0.6,0.6,0.6,0.9
		c-0.5,0.3-0.5,0.2-1.2,0.7c-1.3,0.9-1.9,2.8-1.9,2.8c0,0,3-2.4,3.2-2.8c0.2-0.3,0.3-0.9,0.5-1.4c0-0.1-1.6-1-2-1.8
		c-1.4-2.6,2.1,1.6,2.2,1.2c0.2-0.9,0.8-1.8,0.8-1.8c-0.2-0.3-0.8-0.4-1.6-1.9c-1.9-3.3,2.2,1.4,2.2,1.4c1.1-0.6,1.1,0.2,1.2,1.1
		c0,0.1,1.8,1.4,1.9,1.5c0.5-0.5,0.9-1.1,1.1-1.6c0-0.1-3.3-3-3.8-4c-4.6-7.8,3.7,3.5,4.1,3.2c0.2-0.6,0.3-1.5,0.3-2.6
		c0,0-1.6-1.1-2.5-2.7c-3.8-6.3,2.5,1.9,2.5,1.8c-0.1-1.4-1.2-7.2-0.4-5.5c0.4,0.9,1.6,4.7,1.4,8.5C57.6,56,59.4,55.3,60,55.1
		L60,55.1z M62.5,17.4c0,0.2,0.1,0.4,0.1,0.5C62.6,17.8,62.6,17.6,62.5,17.4c0,0-0.1-2.1-2.4-2.1c-0.7,0-1.6,0.9-3.9-0.1v3.6
		c0.9,0.3,3.5-1.2,4.5-1.6C61.4,16.8,62.5,17,62.5,17.4L62.5,17.4z M56.2,22.6v3.6c0,0,2,0,4.2-1.4c0.7-0.4,1.7-0.3,2.1,0.1h0
		c0,0-0.3-2.3-2.3-2.1C56.6,23.3,56.2,22.6,56.2,22.6L56.2,22.6z M42.5,28.3c1.9,0,9.4,2.1,13,1.8V11.2c0,0-5.3,0.8-9.9-0.9
		c-3.8-1.4-8.9,1-8.9,1c0,0.6,0,18.5,0,18.5S38.5,28.3,42.5,28.3L42.5,28.3z M38.4,22.1c0.2,0,0.7,0,0.9,0c0,0.4,0,3.2,0,3.5
		c0,0.3,0.3,0.4,0.5,0.3c0.1,0,0.2,0,0.1,0.2c-0.3,0.2-0.6,0.7-0.8,0.9c-0.3-0.2-0.7-0.5-0.6-0.7C38.6,25.7,38.4,22.5,38.4,22.1
		L38.4,22.1z M39.4,18c0.5-0.3,1.8-0.5,2.2-0.4c0.2,0.1,0.4,0,0.4-0.1c0-0.1,0.2-0.1,0.2,0c0,0.1,0,1.5,0,1.6c0,0.1-0.2,0.1-0.2,0
		c0-0.2,0-0.3-0.2-0.5c-0.5-0.7-1.8-0.8-2.5,0.1c-0.2,0.3-0.3,0.8-0.1,0.9c0.3,0.1,1.2,0,1.5,0c0.3-0.1,1.1-0.2,1.2-0.2
		c0.1-0.1,0.2-0.1,0.2,0c0,0.2,0,0.7,0,0.8c0,0.2-0.1,0.1-0.2,0c-0.1-0.1-0.8-0.1-1.1-0.1c-0.5,0-1.3-0.2-1.6-0.1
		c-0.3,0.1-0.1,0.5,0.2,0.8c0.7,0.9,1.9,0.9,2.4,0.2c0.2-0.3,0.2-0.3,0.2-0.5c0-0.1,0.2-0.1,0.2,0c0,0.1,0,1.2,0,1.3
		c0,0.1-0.2,0.1-0.2,0c0-0.2-0.1-0.2-0.4-0.1c-0.7,0.2-1.7,0.3-2.3-0.1c-0.6-0.3-1.1-0.5-1.1-1.8C38.2,18.9,38.9,18.3,39.4,18
		L39.4,18z M43.3,12.3c-0.3,0.1-0.6,0.4-0.6,0.7c-0.1,0.3-1.2,3.5-1.3,3.7c-0.3-1-1.4-3.4-1.7-3.9c-0.3-0.4-0.6-0.4-0.9-0.4
		c-0.3,0-0.2-0.3,0.1-0.2c0.3,0,2,0.2,2.5,0.3c0.2,0,0.2,0.2-0.1,0.3c-0.1,0-0.4,0.2-0.4,0.3c0,0.2,0.6,1.6,0.8,1.8
		c0.1-0.4,0.7-1.9,0.6-2.2c-0.1-0.3-0.2-0.4-0.4-0.4c-0.2,0-0.2-0.2,0.1-0.2c0.3,0,1.1-0.1,1.4-0.1C43.6,12,43.7,12.2,43.3,12.3
		L43.3,12.3z M45.2,12.3l-0.3,0.3h-0.3l-0.3-0.3l0-0.5l0.4-0.4l0.4,0.4V12.3L45.2,12.3z M46,16l-0.6,0.8h-0.5
		c-0.3-0.3-0.4-0.5-0.5-0.7l0-1.8l-0.7-0.4c-0.1,0.2-0.4,0.2-0.3,0l0.9-0.8l0.2,0l0.6,0.6l0,1.9C45.4,15.8,45.6,15.9,46,16L46,16z
		 M49.3,13.8c-0.1,0-1.5,0.2-1.5,0.2c-0.1,0,0.1,1.8,0.1,1.9c0,0.1,0.2,0.4,0.3,0.2c0.1-0.1,0.3,0.1,0.1,0.2
		c-0.1,0.1-0.4,0.7-0.6,0.8c-0.2,0.1-0.5-0.3-0.6-0.6c-0.2-0.5-0.3-1.7-0.3-2.5c0,0-0.7-0.3-0.3-0.4c0.6-0.3,1.2-1.1,1.3-1.3
		c0.1-0.2,0.3-0.1,0.2,0.1c-0.2,0.4-0.2,0.7-0.1,1c0,0.1,1.2,0,1.4,0C49.4,13.5,49.4,13.8,49.3,13.8L49.3,13.8z M47.6,19.8
		c-0.1,0.6,0.4,1.1,0.8,1.3c0.3,0.2,0.9,0.1,1,0.1c0.1,0,0.1-0.1,0.2-0.2c0.1-0.1,0.2,0,0.1,0.1c-0.1,0.1-0.9,0.9-1.1,1
		c-0.2,0.1-0.7,0-0.9-0.3c-0.5-0.6-0.8-0.8-0.7-1.9c0.1-0.7,1.4-1.4,1.6-1.6c0.1,0.1,0.7,0.7,0.9,0.9c-0.1,0.1-0.4,0.3-0.7,0.3
		c-0.3,0-0.5-0.3-0.7-0.5C48,19.2,47.7,19.4,47.6,19.8L47.6,19.8z M52.6,16.9l-0.8,0.8c-0.2-0.2-0.4-0.3-0.4-0.6
		c-0.6,0.1-1,0.5-1.2,0.7c-0.2-0.2-0.6-0.8-0.6-1.2c0-0.4,0.3-1,0.5-1.2c0,0,0,0,0.1,0c-0.1-0.1-0.2-0.1-0.3-0.2
		c-0.1-0.1-0.1-0.3,0-0.4c0.1-0.2,0.6-0.8,1.1-0.9c0.2,0,0.7,0,1.2,0.5c-0.1,0.1-0.1,1.7-0.1,1.9C52.3,16.6,52.6,16.9,52.6,16.9
		L52.6,16.9z M54.2,20.6c-0.2,0-0.5-0.1-0.6-0.1c-0.2-0.1-0.1-0.3,0.1-0.3c0.2,0,0.4,0.1,0.6,0.1C54.3,20.4,54.3,20.6,54.2,20.6
		L54.2,20.6z M54.2,21.2c-0.3,0-0.5-0.1-0.6-0.1c-0.2-0.1-0.1-0.3,0.1-0.3c0.2,0,0.4,0.1,0.6,0.1C54.3,20.9,54.3,21.2,54.2,21.2
		L54.2,21.2z M50.2,24.7c0.2-0.1,0.8-0.7,1-0.8c0.3,0.3,0.6,0.5,0.7,0.7c0.2-0.1,0.6-0.4,0.8-0.5c0.3,0.2,0.6,0.5,0.8,0.6
		c0.2-0.1,0.4,0,0.2,0.2c-0.2,0.2-0.6,0.5-0.7,0.6c-0.2-0.1-0.6-0.6-0.7-0.6c-0.1,0.1-0.2,0.1-0.3,0.2c0,0.2,0,2.2,0,2.4
		c-0.3,0-0.6,0-0.8,0c0-0.3,0-2,0-2.3C51.1,24.8,50.6,24.7,50.2,24.7L50.2,24.7z M50.1,20.9c0-1,0.7-1.8,1.7-2.2
		c0.8,0.3,1.2,1.1,1.2,1.7c0,0.5-0.3,1.1-0.5,1.4c-0.3,0.2-0.7,0.5-1,0.8C50.6,22.7,50.1,21.5,50.1,20.9L50.1,20.9z M46.2,24.1
		c0.3-0.3,0.6-0.6,0.8-0.7c0.3,0.2,0.4,0.4,0.6,0.6c0,0.4-0.1,1.3-0.1,1.6c0,0.3,1.2,0.5,1.3,0.1c0.1-0.5,0-1,0-1.3
		c0-0.2-0.5-0.3-0.7-0.3c0.3-0.3,0.6-0.6,0.8-0.8c0.3,0.2,0.6,0.5,0.8,0.8c0,0.5-0.1,1.5,0,1.8c0.1,0.3,0.1,0.3,0.3,0.5
		c-0.2,0.2-0.4,0.3-0.5,0.5c-0.2-0.1-0.6-0.4-0.6-0.7c-0.3,0.2-1.1,0.5-1.4,0.6c-0.3-0.3-0.5-0.4-0.5-0.8c0-0.4,0.1-1.4,0-1.6
		C46.7,24.2,46.5,24.1,46.2,24.1L46.2,24.1z M45.5,21.4c-0.3-0.2-0.7-0.6-0.9-0.9c-0.4,0.5-0.5,0.9-1.2,1.1c0.4-0.4,0.8-1.1,0.8-1.9
		c0-0.7-0.4-1-0.7-1.1c-0.3,0.1-0.5,0.3-0.7,0.4c-0.2,0.1-0.2-0.2-0.1-0.2c0.4-0.2,1.1-0.8,1.2-0.9c0.3,0.1,0.7,0.3,0.8,0.6
		c0.2-0.2,0.7-0.6,0.8-0.7c0.2,0.3,0.6,0.6,1.1,0.8c-0.5,0.8-1.5,0.3-1.6,0.1c-0.2,0.3-0.2,0.4,0,0.8c0.2,0.5,1,0.9,1.5,1
		C46.3,20.5,45.7,21.2,45.5,21.4L45.5,21.4z M44.4,23.7c0,0-0.6-0.3-0.4-0.4c0.5-0.3,1-0.8,1.1-1c0.1-0.2,0.3-0.1,0.2,0.1
		c-0.1,0.2-0.2,0.7-0.1,0.9c0,0.1,0.4,0.1,0.6,0.1c0.1,0,0.1,0.3,0,0.3c-0.1,0-0.6,0-0.6,0c-0.1,0,0,1.8,0,1.9
		c0.1,0.1,0.5,0.2,0.6,0.1c0.2-0.1,0.3,0,0.1,0.1c-0.1,0.1-0.4,0.6-0.6,0.7c-0.3,0.1-0.6-0.1-0.8-0.3C44.2,25.8,44.4,24.5,44.4,23.7
		L44.4,23.7z M42.8,26.5c-0.3-0.2-0.5-0.2-0.6-0.5c-0.7,0.3-0.9,0.6-1.3,0.9c-0.2-0.2-0.4-0.6-0.4-1c0-0.4,0.4-0.9,0.6-1.1
		c0,0,0,0-0.1-0.1c-0.1-0.1-0.2-0.6-0.1-0.8c0.1-0.2,0.7-1,1.2-1c0.3,0,0.6,0.4,0.8,0.7c-0.1,0.1,0,1.5,0,1.6
		c0.3,0.3,0.4,0.4,0.6,0.3c0.2-0.1,0.2,0,0.1,0.1C43.5,25.6,42.9,26.3,42.8,26.5L42.8,26.5z M42.2,24.8c0-0.3,0-0.6,0-0.7
		c0-0.2-0.4-0.5-0.6-0.5c-0.1,0-0.2,0-0.4,0.3c-0.1,0.1-0.1,0.7,0,0.7C41.6,24.9,41.8,24.8,42.2,24.8L42.2,24.8z M41.4,25
		c-0.4,0.7-0.1,0.8,0.1,1c0.2-0.1,0.5-0.2,0.6-0.4c0-0.1,0-0.3,0-0.6C41.8,25,41.7,25.1,41.4,25L41.4,25z M50.8,21
		c0.2,0.4,0.9,1,1.1,1.1c0.3-0.4,0.5-1,0.4-1.6c0-0.4-0.6-0.9-1.1-1.1C50.6,19.8,50.6,20.4,50.8,21L50.8,21z M50.8,17.1
		c0.2-0.1,0.4-0.2,0.6-0.2c0-0.1,0-0.2,0-0.3c0-0.1,0-0.3,0-0.6c-0.3-0.1-0.7-0.3-1.1-0.5c0.1,0,0.1,0.1,0.2,0.1
		C50.1,16.3,50.6,16.9,50.8,17.1L50.8,17.1z M50.1,15.1c0.3,0.2,1,0.6,1.4,0.7c0-0.3,0-0.6,0-0.8c0-0.2-0.7-0.6-0.8-0.6
		c-0.1,0-0.3,0.2-0.5,0.5C50,15,50,15,50.1,15.1L50.1,15.1z M36,32.2c-0.6,0.1-1.3,0.4-1.5,1c-0.4,0.4-0.3-0.6-1.1-0.2
		c-0.3,0.4,0.5,1.4,0.3,1.4c-0.8,0.2-0.7-1.2-1.2-1.2c-0.7,0.2-2.3,1.7-0.7,2.9c-0.1-0.8,1.5-1.7,2,0.1c1.5-0.1,2.1,0.8,2.2,1.3
		c2.3,0.4,1.6,1.9,1.5,1.9c-0.2-0.3-1.2-1.8-2.8-0.8c-0.4,0.2-1,0.5-1.3,0.2c0,0.5,0.7,1,1.1,0.8c1.4-0.4,1.8,0.9,0.7,1.3
		c0.2,0.4,0.7,0.3,1.1,0.1c0.6-0.4,0.7-0.7,0.9-0.9c0.4,1.8-2,2-2.7,2.1c0.1,0.4,0.4,0.5,0.8,0.6c-2.5,0.1-3,2.4-2.8,3.7
		c0.6,0,1.4-1.2,1.3-0.5c-1.7,1.9-2.3,4.3-1.4,5.9c0.4-0.2,0.6-0.7,0.7-1.1c0.1,0,1,0.4-0.5,2.1c-0.1,0.4-0.6,1.8,0.5,2.1
		c0.4-0.5,0.4-0.9,0.5-1.4c0.3-0.1,0.5,0.9,0.4,1.2c-1.4,0.6-1.3,5,0.4,7.4c-0.8-1.7-0.7-3.9,0-5.7c0.5-1.4,1.6-4.4,1.7-4.4
		c0.6,0.8,1.5,4.2,1.5,5.6c0.9-0.8,1.1-1.6,1.8-2.2c0.3,1.2,0.5,2,0.8,3.1c0.4-1.1,1.3-2.3,0-5.7c0.3-0.3,0.8,1.2,1,1.1
		c0.1,0,0.3-0.8-0.2-2.1c-0.9-0.9-1.2-2.2-1-2.3c0.1-0.1,0.6,1.3,1.1,1.4c0.1-1.1,0.4-2.2,0.3-3.1c0-0.2-0.4-1.4-1.4-2.3
		c-0.6-0.5-0.8-1.7-0.8-1.9c0.6,0.5,0.5,0.9,1,1.2c0.2-0.5,0.1-2.2-0.5-2.9c-0.3-0.6-0.2-0.5,0.2-0.1c0.5,0.6,0.3,0.6,0.7,0.9
		c1-2.4,0.1-2.9,0.2-3.1c0.1-0.2,0.8,1.1,1.4,0.6c-1-0.5-1-1.3-1.1-2.2c-0.1-0.7-0.5-1-0.4-1.1c1,0.8,1.3-0.1,1.3-0.2
		c-0.2,0.1-1.1,0.2-1.2-1.2c0-0.5-0.9-0.8-0.9-0.8c0.5-0.1,2.2-0.2,1.8-1.8c-0.2,0.4-0.7,1-1.7,0.8c0,0,0.7-0.2,0.5-0.9
		C38.9,33.8,37.6,31.9,36,32.2L36,32.2z M38.9,34.4c-1.1,0.2-1.8,1.4-3,0.9c-0.2-0.1-0.5-0.2-0.4-0.4c0.2,0.1,0.6,0.2,0.8,0.2
		c0,0-0.6-0.5-0.1-1.2c-0.7,0.5-1,0.3-1,0.1c0-0.1,0.9-0.8,1.8-0.5C37.7,33.7,38.2,34.2,38.9,34.4L38.9,34.4L38.9,34.4z M37.2,34.4
		c0,0.2-0.3,0.6-0.3,0.6l1.1-0.6c-0.2-0.2-0.9-0.5-1.1-0.6C36.9,33.8,37.2,34,37.2,34.4L37.2,34.4z M30.4,28.3
		c2.9,0.2,5.3,1.5,5.3,1.5V11.3c0,0-4.2-3-11.1-0.3c-2,0.8-6.9,0.1-6.9,0.1V30C22.1,30.3,27.7,28.1,30.4,28.3L30.4,28.3z M28.4,18.3
		c0.6,0.2,1.4,0,1.6,0.8c0.3,0.8-0.2,1.8-0.9,1.8c-0.5,0-1-0.1-1.3-0.1c-0.1,0-0.2,0.1-0.3,0.2c0,0.2-0.2,0.2-0.3,0
		c0-0.2-0.1-1.1-0.1-1.3c0-0.3,0.2-0.3,0.3,0c0,0.3,0.1,0.5,0.3,0.7c0.2,0.2,1.2,0.4,1.6,0.1c0.3-0.3,0.2-0.8-0.1-1
		c-0.3-0.2-1.6-0.5-1.9-0.9c-0.4-0.6,0.3-1.2,0.6-1.3c0.5-0.3,1-0.2,1.2-0.2c0.2,0,0.4,0.1,0.4-0.1c0-0.2,0.2-0.2,0.2,0
		c0.1,0.6,0.1,0.2,0.1,0.8c0,0.3-0.1,0.3-0.2,0.1c-0.1-0.1-0.9-0.8-1.5-0.4C27.7,17.9,27.9,18.2,28.4,18.3L28.4,18.3z M30,22.1
		c-0.2,0.2-0.4,0.4-0.6,0.7c-0.2-0.1-0.5-0.4-0.7-0.5c0.3-0.2,0.5-0.4,0.7-0.6C29.5,21.9,29.7,22.1,30,22.1L30,22.1z M26.5,23.5
		c0.3-0.2,0.8-1.1,0.9-1.3c0.1-0.2,0.2-0.1,0.2,0.1c0,0.3-0.2,1.1-0.1,1.2c0,0.1,0.5,0.1,0.6,0.1c0.1,0,0.1,0.3,0,0.3
		c-0.1,0-0.6,0.1-0.6,0.1c-0.1,0,0,1.1,0.1,1.2c0.2,0.2,0.4,0.3,0.6,0c0.1-0.1,0.3,0,0.1,0.1c-0.1,0.1-0.5,0.6-0.6,0.8
		c-0.1,0.2-0.6,0.1-0.8-0.2c-0.3-0.4-0.1-1.2-0.2-1.9C26.8,24,26.2,23.7,26.5,23.5L26.5,23.5z M26.1,21.3c-0.2,0.2-0.6-0.1-0.8-0.4
		c-0.2-0.4-0.2-1.3-0.1-2.1c0,0-0.1-0.2-0.3-0.2c-0.2-0.1-0.2-0.1,0.1-0.3c0.4-0.2,1-1.1,1.1-1.3c0.1-0.2,0.2,0,0.1,0.2
		c-0.2,0.5-0.1,1-0.1,1.1c0,0.1,0.8,0,0.9,0c0.1,0,0.1,0.3,0,0.3c-0.1,0-1.1,0.1-1.1,0.1c-0.1,0,0.1,1.5,0.2,1.6
		c0,0,0.3,0.3,0.4,0.2c0.1-0.1,0.3,0,0.1,0.1C26.4,20.8,26.3,21.1,26.1,21.3L26.1,21.3z M22.7,23.6c0.4-0.3,0.5-0.5,0.8-0.7
		c0.2,0.3,0.3,0.6,0.5,0.8c0.2-0.2,0.7-0.5,0.9-0.7c0.2,0.1,0.5,0.3,0.5,0.9c0,0.7,0.1,1.7,0.1,1.9c0,0.1,0,0.1,0.2,0
		c0.2,0,0.2,0,0.1,0.2c-0.1,0.1-0.8,0.6-1,0.8c-0.2-0.4-0.3-0.7-0.2-1.1c0.1-0.3,0-1.3,0-1.5c0-0.2-0.3-0.3-0.5-0.4
		c-0.2,0.1-0.2,0.2-0.4,0.3c0,0.3,0,2.2,0,2.5c-0.4,0-0.4,0-0.7,0c0-0.4,0-1.9,0-2.2C23.1,24,22.8,23.8,22.7,23.6L22.7,23.6z
		 M19.7,24.7c0.2-1.3,1.4-1.8,1.8-2c0.1,0.4,0.5,1,0.8,1.3c-0.4,0.3-1.4,1.1-1.7,1.4c0.2,0.4,1,0.6,1.2,0.4c0.2-0.2,0.4-0.1,0.2,0.1
		c-0.3,0.3-0.6,0.8-0.7,1.1C20.7,26.6,19.5,25.9,19.7,24.7L19.7,24.7z M19.4,18.8c0.3-0.5,1-0.9,1.5-1.1c0.2,0.2,0.3,0.5,0.6,0.8
		c-0.2,0.2-0.5,0.4-0.6,0.6c-0.1-0.1-0.7-1-1.1-0.4c-0.2,0.3-0.5,1.3,0.3,1.9c0.4,0.3,0.8,0.4,1.3,0.3c-0.3,0.3-0.3,0.4-0.5,0.7
		c-0.7,0.1-1-0.1-1.4-0.4C18.7,20.5,19,19.4,19.4,18.8L19.4,18.8z M22.7,17.1c-0.1-0.2-0.2-0.4-0.4-0.3c-0.7,0.2-1.4,0.4-1.9,0.1
		c-0.6-0.3-1.1-0.5-1.1-1.7c0-0.8,0.7-1.4,1.1-1.7c0.5-0.3,1.4-0.1,1.8,0c0.2,0.1,0.3,0,0.4-0.2c0-0.1,0.2-0.1,0.2,0
		c0,0.1,0,1.7,0,1.8c0,0.1-0.3,0.1-0.3,0c0-0.2-0.1-0.5-0.1-0.8c-0.1-0.4-1.2-1.2-2-0.2c0,0-0.3,0.6-0.3,1c0,0.3,0.1,0.8,0.3,1
		c0.6,0.9,1.5,0.6,2-0.1c0.2-0.3,0.1-0.6,0.2-0.8c0-0.1,0.2-0.1,0.2,0c0,0.1,0,1.2,0,1.3c0,0.2,0.1,0.3,0.2,0.3
		C23.1,17.2,22.9,17.4,22.7,17.1L22.7,17.1z M23.3,18c0.3,0,0.5,0.6,0.8,0.8c-0.1,0.1-0.1,1.8-0.1,2c0.1,0.1,0.3,0.2,0.3,0.1
		c0.1-0.1,0.2,0,0.1,0.1c-0.1,0.1-0.7,0.6-0.8,0.8c-0.2-0.2-0.3-0.4-0.3-0.7c-0.3,0.1-0.7,0.3-0.9,0.6c-0.4-0.2-0.7-0.5-0.7-0.9
		c0-0.4,0.3-0.6,0.5-0.9c0,0-0.1-0.1-0.2-0.1c-0.1-0.1-0.2-0.7-0.1-0.9C22.2,18.5,22.9,18,23.3,18L23.3,18z M26.5,13.7
		c-0.2,0.2-0.5,0.4-0.7,0.5c-0.2-0.1-0.4-0.5-0.6-0.6c-0.1,0.1-0.2,0.1-0.3,0.2c0,0.2,0,2.3,0,2.5c-0.3,0-0.5,0-0.7,0
		c0-0.3,0-1.9,0-2.2c0-0.3-0.3-0.4-0.7-0.5c0.2-0.3,0.6-0.6,0.8-0.7c0.3,0.3,0.5,0.3,0.7,0.4c0.2-0.1,0.6-0.3,0.8-0.5
		c0.2,0.2,0.4,0.5,0.6,0.6C26.5,13.4,26.6,13.6,26.5,13.7L26.5,13.7z M29.5,15.7c-0.2,0.1-0.6,0.5-0.9,0.5c-0.9,0-2.1-0.7-1.9-1.9
		c0.2-1.3,1.2-1.8,1.6-1.8c0.5,0,0.6,0.5,0.9,0.7c-0.4,0.3-1.1,1-1.5,1.4c0.1,0.2,0.6,1,1.6,0.8C29.7,15.3,29.9,15.5,29.5,15.7
		L29.5,15.7z M33.1,13.5c-0.1,0.1-0.5,0.4-0.9,0.8c0.1,0,0.1,0,0.2,0.1c0.7,0.4,0.9,1,0.2,1.5c-0.4,0.3-1,0.6-1.6,0.7
		c-0.4,0-1.2-0.4-1.3-0.5c0.4-0.3,0.7-0.7,1-0.9c-0.4-0.3-0.8-0.8-0.5-1.3c0.2-0.4,1-1,1.7-1C32.5,12.9,32.8,13.3,33.1,13.5
		L33.1,13.5z M33.5,17l0.4,0.4v0.4l-0.3,0.3h-0.3l-0.3-0.3l0-0.5L33.5,17L33.5,17z M34.3,15c-1,0-0.7-0.4-0.5-0.4
		C34.5,14.6,34.4,14.9,34.3,15L34.3,15z M34.3,15.5c-1-0.1-0.7-0.4-0.5-0.4C34.6,15.2,34.4,15.5,34.3,15.5L34.3,15.5z M34.7,21.1
		l-0.4,0.4l-0.4,0.4c-0.3-0.3-0.4-0.3-0.5-0.5l0-1.7L33,19.4c-0.2,0.2-0.4,0.1-0.2-0.1l0.8-0.7l0.2,0l0.3,0.5l0,1.8
		C34.3,21.1,34.3,21.1,34.7,21.1L34.7,21.1z M31.1,25.6c0-0.4,0.2-0.7,0.5-1c0,0,0,0-0.1,0c-0.1-0.1-0.2-0.8-0.1-0.9
		c0.1-0.2,0.8-0.8,1.2-0.9c0.3,0,0.7,0.6,1,0.9c-0.1,0.1,0.1,1.8,0.1,2c0.1,0.1,0.4,0.2,0.5,0.1c0.1-0.2,0.2,0,0.1,0.1
		c-0.1,0.1-0.6,0.5-0.7,0.6c-0.2-0.2-0.5-0.3-0.7-0.6c-0.4,0.1-0.9,0.4-1.2,0.7C31.3,26.4,31.2,26,31.1,25.6L31.1,25.6z M30.5,20.4
		c-0.3-0.7,0.2-1.4,0.5-1.6c0.2-0.2,0.6-0.5,0.9-0.7c0.3,0.2,0.5,0.3,0.6,0.4c0,0.1-0.1,0.4-0.4,0.4c-0.4,0-0.8-0.1-1,0.2
		c-0.2,0.3-0.1,1,0.2,1.2c0.2,0.2,0.8,0.5,0.9,0.2c0.1-0.3,0.4-0.2,0.2,0.1c-0.1,0.2-0.4,0.6-0.5,0.8C31.4,21.4,30.8,21.1,30.5,20.4
		L30.5,20.4z M30.7,25.5l-0.3,0.4L30,26.2c-0.3-0.3-0.4-0.3-0.5-0.5l0-1.7L29,23.8c-0.2,0.2-0.4,0.1-0.2-0.1l0.8-0.7l0.2,0l0.5,0.7
		l0,1.6C30.5,25.4,30.3,25.4,30.7,25.5L30.7,25.5z M31.9,24.8c-0.6,0.5,0.1,0.9,0.2,1c0.2-0.1,0.4-0.1,0.6-0.2
		c0-0.1-0.1-0.1-0.1-0.2c0-0.1,0-0.3,0-0.5C32.4,24.9,32.2,25,31.9,24.8L31.9,24.8z M32.8,24.7c0-0.3,0-0.6,0-0.7
		c0-0.2-0.6-0.6-0.7-0.6c-0.1,0-0.1,0.1-0.3,0.3c-0.1,0.1,0,0.5,0.1,0.6C32.2,24.6,32.4,24.7,32.8,24.7L32.8,24.7z M31.7,14.3
		c0.2-0.1,0.4-0.3,0.4-0.3c-0.3-0.3-0.7-0.5-1-0.5c-0.2,0-0.6,0.2-0.5,0.4c0.2,0.2,0.3,0.5,0.7,0.5C31.4,14.3,31.6,14.3,31.7,14.3
		L31.7,14.3z M31.4,14.9c-0.3,0.2-0.6,0.5-0.7,0.6c0.1,0.2,0.8,0.7,1.2,0.5c0.4-0.2,0.6-0.6,0.2-0.8C31.8,15.1,31.6,15,31.4,14.9
		L31.4,14.9z M27.6,14.4c0.2-0.1,0.6-0.6,0.9-0.9c-0.2-0.1-0.5-0.3-0.6-0.6C27.5,13.4,27.4,13.6,27.6,14.4L27.6,14.4z M23.3,20.9
		c0-0.1,0-0.2,0-0.3c0-0.1,0-0.4,0-0.7c-0.3,0.2-0.5,0.4-0.8,0.2C22,20.6,22.8,20.9,23,21C23.1,20.9,23.3,20.9,23.3,20.9L23.3,20.9z
		 M23.3,19.8c0-0.2,0-0.4,0-0.5c0-0.2-0.4-0.7-0.5-0.7c-0.1,0-0.4,0.2-0.5,0.5c-0.1,0.1-0.1,0.5,0.1,0.7
		C22.7,20.1,22.9,20.1,23.3,19.8L23.3,19.8z M20.9,23.3c-1.1,0.6-0.9,1.4-0.5,1.8c0.2-0.1,0.9-0.6,1.1-0.9
		C21.4,24.1,21,23.6,20.9,23.3L20.9,23.3z M14.5,25.8h2.3v-2.3h-2.3V25.8L14.5,25.8z M14.5,17.8h2.3v-2.3h-2.3V17.8L14.5,17.8z
		 M11.8,22.5c-2.7,0-2.7,4,0,4C14.4,26.5,14.4,22.5,11.8,22.5L11.8,22.5z M11.8,14.4c-2.6,0-2.7,4,0,4
		C14.4,18.5,14.4,14.4,11.8,14.4L11.8,14.4z M35.4,38c-0.2-0.3-0.4-0.7-0.8-0.9C33,36.4,30,38,30,35.6c0,0-1.1,0.8-0.6,1.6
		C30.6,39.2,33.7,36.8,35.4,38L35.4,38z M21.3,57.1c-0.9,0.9-1.2,0.9-1.1,1.3c0.2,0.5,0.6,0.9,1,1.4c0.5,0.4,0.7,0.8,0.3-0.4
		C21.3,58.5,21.3,57.9,21.3,57.1L21.3,57.1z M15.2,40.5L15.2,40.5c0,1.9-5,4.4-7.2,5.6c3.4,1.2,6.5-2,6.2-1.2
		c-0.5,0.9-4.6,4.4-6.4,6.3c1.4,0.4,2.7-0.7,3.7-1.6c1.1-0.9,2.9-3.3,2.7-2.1c-3,3.7-5.3,11.3-3.9,11.8c0.8-1.7,4.3-10.6,4.5-10.5
		c0.2,0-0.3,2.3-0.3,3.8c-0.2,3.3-0.2,4.9,0.5,8.2c0.4-0.5,0.7-0.5,1.3-0.5c0.1-0.3,0.1-0.2-0.3-0.7c-1-1.3,0.1-3-0.3-4
		c-0.4-0.9-0.6-0.2-0.8-1.1c0.3-0.2,1-0.3,1.3-0.4c0.3-3.4,1.5-5.2,1-3c-0.2,1.1-0.6,2.9-0.4,3c0.2,0.1,0.2,0.1,0.3,0.1
		c0.1,0,5.7-9.3,2.6-2.8c-0.4,0.9-2.1,3.1-2.1,3.1c0.4,0.5,0.9,1,0.9,1.3c0,0.1,7.6-10,2.4-1.9c-0.3,0.5-1.9,2.2-2.3,2.6
		c-0.1,0.1,0.1,1.9,0.1,1.9c0.8-0.5,1.9-1.7,2.4-2.4c-0.1-1,0.2-0.9,0.2-1.9c0.2-0.2,0.6,0.3,0.9,0.6c0.2,0.2,5.2-8.6,2.1-2
		c-0.5,1.1-1.6,2.3-1.7,2.4c0.2,0.2,0.5,1,0.9,1.8c0,0,6.7-9.7,2.7-2.3c-0.3,0.6-2.3,3-2.3,3.1c0.5,1.2,0.9,2.4,0.9,2.4
		c-0.1-0.9-0.3-2.8,1.7-4.4c0.3,1.7,0.7,1.8,1.3,2.3c0.3,0.2,0.7,1.2,0.8,0.4c0.2-2.4-0.6-2.3-1.2-3.4c-0.1-0.2-0.1-0.8,0-0.8
		c4.8,0.1,4.7,4.7,5.5,4.7c-0.4-1.2-0.5-2.3,0-3.2c-1.3-0.9-1-2.5-0.7-3.2c-1.5-1.5-0.6-4.7,0.1-5.4c-0.9-1.4,0.2-2.3,0-3.1
		c-0.4-3-3-2.1-3.6-4.9c-0.4,0.5-1.2,2.2-0.8,2.8c0.4,0.7,1.3,0.7,1.3,1.2c0,0.2,0.1,0.8-0.1,0.9c-0.5,0.1-0.8-0.4-1.4-0.6
		c-1-0.4-3.5,1.3-3.7-0.2c-0.1-0.9,0.3-0.3,0.3-1.1c0-0.9-0.5-0.3-0.5-1.4c0-0.9,1-1.1,1.1-1.5c0.2-0.8,1.7,1.2,2.6-1
		c-0.5,0.1-1.6-0.3-1.5-0.8c0.3-1.4,0.3-4.7-2.8-4c-1.1,0.3-4.3,1.9-4.7,0.1c-1.1,2,1.1,1.7,1.8,1.6c-0.3,0.2-0.6,0.5-1.4,0.3
		c-1.8,1.2-8.2,5.3-10.1,6.3C11.3,42.9,15.2,40.5,15.2,40.5L15.2,40.5z M17.1,62.9c-0.6-0.3-1.3-0.4-1.8-0.8
		c0.4,1.3,0.7,2.5,1.4,3.9C17.1,66.8,17.8,64.8,17.1,62.9L17.1,62.9z"/>
</g>
</svg>
