<?xml version="1.0" encoding="utf-8"?>
<!-- Generator: Adobe Illustrator 21.0.0, SVG Export Plug-In . SVG Version: 6.00 Build 0)  -->
<svg version="1.1" id="Layer_1" xmlns="http://www.w3.org/2000/svg" xmlns:xlink="http://www.w3.org/1999/xlink" x="0px" y="0px"
	 width="309.3px" height="308.3px" viewBox="0 0 309.3 308.3" style="enable-background:new 0 0 309.3 308.3;" xml:space="preserve"
	>
<style type="text/css">
	.st0{fill:#FFFFFF;}
</style>
<g>
	<g>
		<path class="st0" d="M113.4,202.1c-1.3-0.6-2.8-0.9-4-1.8c0.9,2.9,1.5,5.5,3.1,8.6C113.4,210.6,115.1,206.4,113.4,202.1
			 M109.4,153l0.1,0.1c0,4-11.2,9.6-15.9,12.2c7.4,2.5,14.4-4.3,13.5-2.6c-1,1.9-10,9.7-13.9,13.9c3.1,0.8,5.9-1.6,8.1-3.5
			c2.4-2.1,6.5-7.2,5.8-4.7c-6.5,8.1-11.7,24.9-8.5,25.9c1.8-3.8,9.3-23.2,9.8-23.1c0.5,0.1-0.6,5.1-0.8,8.4
			c-0.4,7.3-0.4,10.8,1.2,18c0.8-1.1,1.6-1.1,2.9-1c0.2-0.7,0.1-0.5-0.7-1.6c-2.1-2.8,0.3-6.5-0.7-8.9c-0.8-1.9-1.3-0.4-1.7-2.4
			c0.6-0.5,2.1-0.7,2.8-0.8c0.7-7.5,3.2-11.3,2.3-6.6c-0.5,2.4-1.2,6.4-0.9,6.5c0.3,0.1,0.4,0.1,0.7,0.3c0.1,0.1,12.6-20.4,5.7-6.2
			c-0.9,1.9-4.6,6.9-4.6,6.9c1,1,1.9,2.2,2,2.9c0,0.2,16.7-22,5.4-4.1c-0.7,1.1-4.1,4.7-5,5.8c-0.1,0.1,0.3,4.2,0.3,4.2
			c1.7-1.2,4.2-3.6,5.4-5.2c-0.2-2.3,0.4-2,0.5-4.2c0.5-0.3,1.2,0.6,2.1,1.4c0.4,0.4,11.4-18.9,4.5-4.5c-1.1,2.3-3.6,5.1-3.7,5.3
			c0.5,0.5,1.2,2.1,2,3.9c0,0.1,14.8-21.3,5.8-5.1c-0.7,1.3-5.1,6.6-5.1,6.8c1.1,2.7,2,5.3,2,5.3c-0.3-2.1-0.7-6.2,3.6-9.6
			c0.6,3.7,1.6,3.9,2.8,5c0.6,0.5,1.6,2.6,1.7,0.8c0.4-5.3-1.3-5.1-2.6-7.4c-0.3-0.5-0.2-1.7,0-1.7c10.6,0.3,10.3,10.3,12,10.3
			c-0.8-2.5-1-5-0.1-7.1c-2.8-2-2.1-5.5-1.6-7c-3.2-3.3-1.4-10.3,0.2-11.8c-2.1-3,0.5-5-0.1-6.9c-0.9-6.5-6.7-4.6-8-10.7
			c-0.9,1.1-2.6,4.8-1.8,6.1c0.9,1.4,2.8,1.6,3,2.6c0,0.4,0.2,1.7-0.1,1.9c-1.1,0.2-1.8-0.8-3-1.3c-2.2-0.9-7.7,2.8-8-0.5
			c-0.2-2.1,0.7-0.6,0.6-2.5c-0.1-2-1.1-0.6-1.1-3.1c0-1.9,2.2-2.5,2.4-3.2c0.4-1.9,3.8,2.7,5.7-2.1c-1.1,0.2-3.5-0.6-3.3-1.8
			c0.6-3,0.6-10.4-6.3-8.8c-2.5,0.6-9.3,4.2-10.3,0.3c-2.5,4.4,2.4,3.6,3.9,3.5c-0.6,0.4-1.3,1.1-3.1,0.7
			c-3.9,2.6-18,11.6-22.1,13.8C100.8,158.4,109.3,153,109.4,153 M122.7,189.4c-1.9,1.9-2.6,2-2.5,2.8c0.4,1.2,1.3,2,2.2,3
			c1.1,0.9,1.6,1.8,0.7-0.9C122.6,192.5,122.7,191.2,122.7,189.4 M153.6,147.5c-0.3-0.8-0.9-1.5-1.7-1.9c-3.4-1.6-10,1.9-10-3.3
			c0,0-2.4,1.8-1.3,3.6C143,150.1,149.9,144.9,153.6,147.5 M101.8,95.9c-5.8,0-5.9,8.8,0,8.8C107.6,104.7,107.6,95.9,101.8,95.9
			 M101.8,113.5c-6,0-6,8.8,0,8.8C107.6,122.3,107.6,113.5,101.8,113.5 M107.8,103.3h5.1v-5h-5.1V103.3z M107.8,120.9h5.1v-5h-5.1
			V120.9z M121.8,115.4c-2.3,1.4-1.9,3-1.1,3.9c0.4-0.3,1.9-1.3,2.5-1.9C122.8,117.2,122.1,116,121.8,115.4 M127.1,107.5
			c0-0.5,0-0.9-0.1-1.2c0.1-0.5-0.8-1.5-1-1.5c-0.3,0-0.9,0.5-1.2,1c-0.2,0.3-0.2,1.1,0.2,1.5C125.7,108.2,126.1,108.2,127.1,107.5
			 M127.2,110c0-0.2,0-0.4,0-0.6c0-0.2,0-0.8,0-1.4c-0.7,0.4-1,0.8-1.7,0.3c-1.2,1,0.6,1.6,1,1.9C126.7,110.1,127,110.1,127.2,110
			 M136.5,95.9c0.4-0.3,1.4-1.4,2-2c-0.4-0.2-1-0.7-1.2-1.3C136.2,93.5,136,94.1,136.5,95.9 M144.7,96.9c-0.7,0.5-1.3,1-1.6,1.3
			c0.2,0.5,1.8,1.6,2.7,1.2c0.9-0.4,1.3-1.3,0.5-1.7C145.7,97.4,145.2,97.2,144.7,96.9 M145.4,95.6c0.4-0.3,0.8-0.6,0.9-0.7
			c-0.6-0.6-1.6-1.1-2.1-1.2c-0.5,0-1.4,0.3-1,0.8c0.3,0.5,0.7,1,1.5,1.1C144.9,95.6,145.2,95.6,145.4,95.6 M147.8,118.4
			c0-0.6,0.1-1.2,0-1.6c0.1-0.5-1.3-1.3-1.6-1.3c-0.3,0-0.3,0.2-0.6,0.7c-0.2,0.3,0,1.2,0.1,1.3
			C146.5,118.2,147.1,118.4,147.8,118.4 M145.9,118.5c-1.2,1,0.2,2,0.5,2.3c0.4-0.2,1-0.3,1.4-0.4c-0.1-0.2-0.1-0.3-0.1-0.5
			c0-0.2,0-0.6,0.1-1C146.9,118.9,146.6,118.9,145.9,118.5 M143.2,120.1l-0.8,0.8l-0.7,0.7c-0.6-0.6-1-0.7-1.1-1.1l0-3.7l-1.1-0.6
			c-0.5,0.4-0.9,0.2-0.5-0.2l1.7-1.6l0.4-0.1l1.1,1.6l0,3.5C142.8,120,142.4,120,143.2,120.1 M142.8,108.9c-0.6-1.6,0.5-3.1,1-3.6
			c0.4-0.3,1.4-1.2,2-1.6c0.6,0.4,1.1,0.6,1.4,0.8c-0.1,0.3-0.2,0.9-0.9,0.9c-1,0-1.7-0.2-2.2,0.3c-0.5,0.6-0.1,2.1,0.5,2.7
			c0.5,0.5,1.8,1.1,2.1,0.5c0.3-0.7,0.8-0.3,0.3,0.3c-0.3,0.4-0.9,1.3-1.2,1.8C144.8,111.1,143.4,110.6,142.8,108.9 M144.2,120.3
			c0-0.9,0.5-1.6,1.1-2.3c0,0-0.1-0.1-0.1-0.1c-0.2-0.2-0.5-1.7-0.2-2.1c0.3-0.4,1.7-1.8,2.6-1.9c0.6-0.1,1.6,1.3,2.1,1.9
			c-0.2,0.2,0.2,4,0.2,4.4c0.2,0.3,0.9,0.5,1.1,0.2c0.3-0.3,0.5,0,0.3,0.3c-0.3,0.2-1.2,1-1.5,1.4c-0.4-0.3-1.1-0.7-1.6-1.3
			c-1,0.2-1.9,0.9-2.7,1.4C144.6,122,144.3,121.2,144.2,120.3 M152,110.6l-0.8,0.8l-1,0.8c-0.6-0.6-1-0.7-1-1.2l0-3.8l-0.9-0.5
			c-0.5,0.5-0.9,0.3-0.5-0.2l1.7-1.6l0.4-0.1l0.8,1.1l0,4C151.2,110.5,151.2,110.4,152,110.6 M151.1,98.2c-2.1-0.2-1.5-0.9-1.2-0.9
			C151.8,97.5,151.4,98.3,151.1,98.2 M151.1,97c-2.1,0.1-1.5-0.9-1.2-0.9C151.7,96.2,151.4,97,151.1,97 M149.4,101.5l0.9,0.9v1
			l-0.7,0.6h-0.6l-0.5-0.6l0-1.1L149.4,101.5z M148.5,93.9c-0.2,0.3-1,0.9-2,1.7c0.1,0,0.3,0.1,0.4,0.1c1.5,0.9,2,2.1,0.5,3.3
			c-0.8,0.7-2.1,1.4-3.6,1.4c-0.9,0-2.6-0.8-2.9-1.1c0.8-0.7,1.6-1.5,2.2-2c-0.9-0.7-1.8-1.7-1.1-2.8c0.5-0.8,2.2-2.2,3.7-2.1
			C147.2,92.4,147.9,93.4,148.5,93.9 M140.6,98.7c-0.4,0.2-1.2,1.1-1.9,1.1c-2-0.1-4.5-1.5-4.1-4.2c0.4-2.8,2.6-3.9,3.5-3.9
			c1.1,0.1,1.3,1,1.9,1.6c-0.9,0.8-2.4,2.2-3.3,3.1c0.2,0.5,1.2,2.2,3.4,1.7C141.1,97.9,141.5,98.3,140.6,98.7 M134,94.3
			c-0.4,0.4-1.2,0.9-1.5,1.1c-0.4-0.2-0.9-1-1.2-1.2c-0.1,0.1-0.4,0.2-0.6,0.4c0,0.5,0,5,0,5.5c-0.6,0-1.2,0.1-1.6,0
			c-0.1-0.7,0-4.3,0-4.9c-0.1-0.7-0.7-0.8-1.5-1c0.5-0.6,1.4-1.2,1.8-1.5c0.7,0.6,1.2,0.6,1.5,1c0.5-0.3,1.3-0.8,1.6-1.1
			c0.3,0.4,1,1.1,1.2,1.4C134,93.7,134.4,93.9,134,94.3 M127.1,103.7c0.6-0.1,1.2,1.2,1.7,1.8c-0.2,0.2-0.2,4-0.2,4.4
			c0.1,0.2,0.6,0.5,0.8,0.3c0.3-0.3,0.5,0,0.2,0.2c-0.2,0.2-1.5,1.3-1.8,1.7c-0.4-0.3-0.6-0.8-0.7-1.5c-0.8,0.2-1.5,0.6-1.9,1.3
			c-0.9-0.4-1.5-1.1-1.5-2c0-0.9,0.6-1.4,1.2-1.9c-0.1-0.1-0.2-0.2-0.3-0.3c-0.2-0.2-0.4-1.5-0.2-1.9
			C124.7,104.9,126.1,103.7,127.1,103.7 M125.8,101.6c-0.3-0.4-0.4-0.8-0.9-0.6c-1.5,0.4-3.1,0.9-4.2,0.2c-1.2-0.8-2.3-1-2.3-3.8
			c0-1.7,1.5-3.1,2.5-3.7c1.1-0.6,3.1-0.2,3.9,0c0.4,0.1,0.7,0.1,0.8-0.5c0-0.3,0.5-0.2,0.5,0c0,0.2,0,3.7,0,4c0,0.3-0.6,0.3-0.6,0
			c0-0.4-0.1-1.1-0.3-1.8c-0.2-0.9-2.6-2.6-4.3-0.3c0,0.1-0.7,1.3-0.6,2.2c0.1,0.7,0.2,1.7,0.6,2.3c1.4,1.9,3.3,1.3,4.3-0.3
			c0.4-0.6,0.3-1.3,0.3-1.7c0-0.2,0.5-0.3,0.5,0c0,0.3,0,2.6,0,2.8c0,0.3,0.3,0.6,0.4,0.8C126.7,101.9,126.3,102.3,125.8,101.6
			 M118.5,105.3c0.7-1,2.3-2,3.3-2.4c0.3,0.4,0.8,1,1.3,1.7c-0.5,0.4-1,0.9-1.3,1.3c-0.2-0.3-1.5-2.2-2.4-0.8
			c-0.5,0.7-1,2.8,0.7,4.1c0.8,0.6,1.7,0.8,2.8,0.6c-0.6,0.7-0.7,1-1,1.6c-1.6,0.3-2.3-0.2-3.1-0.9
			C117,109.2,117.5,106.8,118.5,105.3 M119.2,118.3c0.4-2.8,3.1-3.9,3.9-4.5c0.1,0.8,1.1,2.2,1.7,2.8c-0.9,0.8-3,2.5-3.8,3.1
			c0.4,0.8,2.1,1.4,2.7,0.8c0.4-0.4,0.9-0.3,0.5,0.3c-0.6,0.7-1.2,1.7-1.5,2.3C121.4,122.6,118.8,121,119.2,118.3 M125.7,115.9
			c0.8-0.6,1.2-1.1,1.7-1.6c0.5,0.7,0.7,1.4,1.1,1.7c0.5-0.5,1.5-1,1.9-1.5c0.4,0.2,1.1,0.6,1.1,2c0,1.4,0.2,3.7,0.2,4.2
			c0,0.3,0.1,0.2,0.5,0.1c0.4-0.1,0.5,0.1,0.2,0.4c-0.3,0.2-1.7,1.2-2.1,1.6c-0.5-0.9-0.6-1.6-0.4-2.5c0.2-0.8,0-2.8,0-3.3
			c0-0.5-0.7-0.6-1-0.9c-0.4,0.3-0.5,0.4-0.8,0.7c0,0.6-0.1,4.9,0,5.5c-1,0-0.9,0-1.4,0c0-0.8,0-4.1-0.1-4.9
			C126.6,116.9,126,116.3,125.7,115.9 M133.1,110.9c-0.4,0.4-1.3-0.2-1.7-0.8c-0.5-0.9-0.4-3-0.3-4.6c0.1,0-0.3-0.4-0.6-0.5
			c-0.4-0.1-0.5-0.3,0.2-0.6c0.8-0.3,2.1-2.4,2.3-2.8c0.2-0.4,0.4,0,0.2,0.4c-0.5,1-0.3,2.2-0.2,2.5c0.1,0.2,1.6-0.1,2-0.1
			c0.2,0,0.2,0.7,0,0.7c-0.3,0-2.4,0.3-2.4,0.3c-0.1,0.1,0.2,3.4,0.4,3.6c0,0,0.7,0.6,0.9,0.4c0.3-0.3,0.6,0,0.2,0.3
			C134,109.9,133.6,110.5,133.1,110.9 M134,115.8c0.6-0.5,1.7-2.5,1.9-2.9c0.1-0.5,0.4-0.3,0.4,0.2c-0.1,0.7-0.4,2.3-0.3,2.6
			c0.1,0.2,1.1,0.1,1.4,0.1c0.2,0,0.2,0.7,0,0.7c-0.3,0-1.4,0.2-1.4,0.2c-0.2,0.1-0.1,2.4,0.1,2.7c0.5,0.4,0.8,0.7,1.4,0.1
			c0.3-0.3,0.6,0,0.3,0.3c-0.2,0.2-1,1.2-1.2,1.7c-0.2,0.5-1.3,0.1-1.7-0.4c-0.6-0.9-0.3-2.6-0.4-4.3
			C134.6,116.8,133.4,116.2,134,115.8 M141.7,112.7c-0.5,0.5-0.9,1-1.4,1.5c-0.4-0.3-1-0.8-1.5-1.2c0.8-0.3,1.2-0.8,1.4-1.3
			C140.6,112.3,141.2,112.6,141.7,112.7 M138.2,104.4c1.2,0.4,3,0.1,3.6,1.7c0.6,1.7-0.5,3.9-1.9,4c-1.2,0.1-2.3-0.3-2.9-0.2
			c-0.3,0-0.5,0.1-0.6,0.5c0,0.4-0.5,0.5-0.6,0c-0.1-0.5-0.2-2.4-0.2-2.9c0-0.6,0.5-0.6,0.6,0c0.1,0.6,0.3,1,0.7,1.6
			c0.4,0.4,2.7,1,3.5,0.3c0.7-0.6,0.5-1.8-0.2-2.2c-0.7-0.5-3.6-1.1-4.1-2c-0.8-1.4,0.7-2.6,1.3-3c1-0.6,2.2-0.4,2.6-0.4
			c0.4,0,0.9,0.1,1-0.3c0-0.4,0.4-0.4,0.4,0.1c0.1,1.3,0.3,0.5,0.2,1.8c0,0.6-0.2,0.6-0.5,0.1c-0.2-0.3-1.9-1.8-3.4-0.9
			C136.7,103.4,137.1,104,138.2,104.4 M142.7,126.2c6.3,0.4,11.7,3.3,11.7,3.3V88.9c0,0-9.3-6.5-24.3-0.7
			c-4.4,1.7-15.2,0.3-15.2,0.3V130C124.3,130.7,136.6,125.8,142.7,126.2 M157.6,139.6c0,0.5-0.7,1.3-0.7,1.3l2.5-1.3
			c-0.5-0.3-1.9-1.1-2.5-1.3C156.9,138.3,157.6,138.9,157.6,139.6 M161.3,139.6c-2.3,0.4-4,3-6.7,1.9c-0.3-0.2-1.1-0.4-1-0.9
			c0.5,0.3,1.2,0.4,1.7,0.5c0,0-1.4-1.2-0.2-2.6c-1.6,1-2.1,0.7-2.1,0.2c0-0.2,2.1-1.8,4-1C158.5,138.1,159.8,139.2,161.3,139.6
			L161.3,139.6z M154.8,134.8c-1.3,0.1-2.9,0.9-3.3,2.3c-0.8,0.8-0.8-1.3-2.4-0.4c-0.7,0.9,1.1,3,0.7,3.1c-1.8,0.5-1.5-2.6-2.5-2.7
			c-1.4,0.5-5.1,3.8-1.5,6.5c-0.1-1.8,3.2-3.7,4.4,0.2c3.4-0.3,4.5,1.8,4.9,2.9c5,0.9,3.5,4.2,3.4,4.2c-0.5-0.7-2.6-4-6.1-1.7
			c-0.8,0.5-2.2,1-2.9,0.3c0.1,1.1,1.5,2.1,2.4,1.8c3.1-0.9,3.9,2,1.5,2.8c0.5,0.8,1.5,0.7,2.4,0.2c1.3-0.8,1.5-1.5,2-2
			c0.8,4-4.3,4.4-5.9,4.7c0.3,0.9,0.8,1,1.8,1.4c-5.4,0.2-6.5,5.3-6.2,8.2c1.2,0.1,3.1-2.6,2.9-1c-3.8,4.1-5.1,9.5-3.1,13
			c1-0.4,1.3-1.4,1.6-2.3c0.1-0.1,2.1,0.8-1,4.5c-0.2,1-1.3,3.9,1.1,4.6c0.9-1.1,0.8-2,1-3.2c0.7-0.3,1.2,2,0.9,2.7
			c-3.2,1.3-2.8,11,0.9,16.2c-1.7-3.8-1.5-8.6,0-12.5c1.1-3,3.6-9.7,3.7-9.7c1.4,1.7,3.2,9.2,3.2,12.2c2-1.7,2.4-3.6,4-4.9
			c0.8,2.7,1.1,4.5,1.7,6.9c0.8-2.3,2.9-4.9-0.1-12.5c0.6-0.6,1.7,2.6,2.1,2.5c0.3-0.1,0.7-1.7-0.3-4.6c-2.1-1.9-2.5-4.8-2.2-5
			c0.3-0.2,1.2,3,2.3,3.1c0.2-2.4,0.8-4.9,0.6-6.8c0-0.5-0.9-3-3.2-5.1c-1.3-1.2-1.8-3.7-1.7-4.2c1.3,1.2,1,2.1,2.1,2.5
			c0.5-1,0.1-4.8-1.2-6.5c-0.8-1.3-0.4-1.1,0.5-0.3c1.2,1.4,0.6,1.3,1.6,1.9c2.2-5.3,0.2-6.3,0.4-6.7c0.1-0.3,1.7,2.5,3.1,1.4
			c-2.2-1.2-2.2-2.9-2.4-4.9c-0.2-1.5-1.2-2.1-0.8-2.5c2.2,1.7,2.8-0.2,2.9-0.5c-0.4,0.2-2.4,0.5-2.6-2.6c-0.1-1.2-1.9-1.7-1.9-1.7
			c1.1-0.2,4.8-0.4,3.9-4c-0.4,0.9-1.5,2.2-3.8,1.7c0,0,1.5-0.4,1.2-2C161.3,138.3,158.5,134.3,154.8,134.8 M185.7,97.3
			c0.6,0.5,2.2,1.2,3,1.5c0-0.7,0-1.4-0.1-1.7c0.1-0.5-1.6-1.3-1.8-1.3c-0.3,0-0.7,0.5-1.1,1C185.6,97.1,185.6,97.2,185.7,97.3
			 M187.4,101.7c0.5-0.3,0.9-0.4,1.3-0.4c0-0.2,0-0.4,0-0.7c0-0.2,0-0.8,0-1.4c-0.7-0.2-1.6-0.6-2.4-1.1c0.1,0.1,0.2,0.1,0.4,0.2
			C185.8,99.9,187,101.3,187.4,101.7 M187.4,110.2c0.4,0.9,1.9,2.1,2.3,2.3c0.6-0.8,1-2.2,0.8-3.4c-0.1-0.9-1.3-1.9-2.3-2.3
			C187,107.6,187,109,187.4,110.2 M166.8,118.9c-0.8,1.5-0.1,1.8,0.3,2.1c0.5-0.3,1-0.5,1.4-0.8c0-0.3,0-0.8,0-1.3
			C167.6,119.1,167.3,119.3,166.8,118.9 M168.5,118.5c0-0.7,0-1.3-0.1-1.6c0.1-0.5-1-1.2-1.2-1.2c-0.3,0-0.5,0.1-0.9,0.7
			c-0.2,0.3-0.1,1.5,0,1.6C167.2,118.7,167.7,118.6,168.5,118.5 M169.8,122.3c-0.6-0.4-1-0.5-1.2-1.2c-1.4,0.6-2,1.4-2.8,2
			c-0.5-0.5-0.9-1.3-0.9-2.2c0-0.9,0.8-2,1.3-2.5c-0.1-0.1-0.1-0.1-0.2-0.1c-0.2-0.2-0.5-1.4-0.2-1.7c0.3-0.5,1.6-2.2,2.6-2.3
			c0.7-0.1,1.2,0.8,1.8,1.4c-0.1,0.2-0.1,3.2-0.1,3.6c0.6,0.7,0.9,0.8,1.3,0.6c0.4-0.3,0.5,0,0.3,0.3
			C171.3,120.4,170.1,121.9,169.8,122.3 M173.2,116.2c0.1,0-1.4-0.6-0.8-0.9c1.1-0.6,2.3-1.8,2.5-2.2c0.2-0.5,0.6-0.3,0.4,0.2
			c-0.2,0.5-0.4,1.6-0.3,2c0.1,0.2,0.9,0.2,1.3,0.2c0.2,0,0.2,0.7,0,0.7c-0.3,0-1.4,0-1.4,0c-0.2,0.1,0,3.8,0,4.2
			c0.1,0.3,1,0.5,1.3,0.2c0.3-0.3,0.7,0,0.3,0.3c-0.2,0.2-0.9,1.2-1.4,1.5c-0.6,0.2-1.4-0.1-1.8-0.7
			C172.9,120.7,173.2,117.9,173.2,116.2 M175.8,111c-0.7-0.4-1.6-1.2-2-1.9c-0.9,1.1-1.1,2.1-2.7,2.5c0.9-0.8,1.8-2.5,1.7-4.1
			c-0.1-1.5-0.9-2.2-1.6-2.5c-0.6,0.3-1.1,0.7-1.5,0.8c-0.3,0.1-0.4-0.4-0.2-0.5c0.8-0.4,2.5-1.7,2.7-1.9c0.7,0.1,1.6,0.8,1.7,1.3
			c0.5-0.3,1.5-1.4,1.8-1.6c0.3,0.6,1.3,1.3,2.4,1.7c-1,1.7-3.2,0.7-3.5,0.3c-0.4,0.6-0.4,1-0.1,1.7c0.5,1,2.3,2,3.2,2.2
			C177.6,109.3,176.3,110.7,175.8,111 M177.3,117.1c0.7-0.7,1.4-1.2,1.8-1.6c0.7,0.5,0.9,0.8,1.3,1.4c0,0.9-0.2,2.9-0.2,3.6
			c0,0.7,2.7,1.1,2.8,0.1c0.1-1,0-2.3,0-2.8c0-0.5-1.1-0.7-1.6-0.6c0.7-0.8,1.3-1.3,1.8-1.7c0.6,0.5,1.3,1.2,1.7,1.8
			c0,1-0.2,3.4-0.1,4c0.2,0.6,0.1,0.7,0.6,1c-0.5,0.5-0.9,0.7-1.2,1c-0.5-0.1-1.4-0.9-1.3-1.6c-0.6,0.4-2.4,1.2-3.1,1.3
			c-0.7-0.7-1.1-0.9-1.2-1.7c0-0.8,0.2-3-0.1-3.6C178.3,117.2,177.9,117.1,177.3,117.1 M185.8,110c0.1-2.1,1.5-4,3.8-4.8
			c1.8,0.6,2.6,2.4,2.6,3.7c0,1-0.6,2.3-1.1,3.1c-0.7,0.5-1.4,1.2-2.1,1.8C186.9,113.9,185.8,111.3,185.8,110 M186.1,118.3
			c0.5-0.3,1.8-1.5,2.3-1.8c0.7,0.6,1.2,1.2,1.6,1.6c0.5-0.3,1.3-0.8,1.7-1.1c0.7,0.5,1.4,1.1,1.7,1.4c0.3-0.3,0.8-0.1,0.4,0.3
			c-0.4,0.4-1.2,1.1-1.6,1.4c-0.5-0.3-1.3-1.2-1.6-1.4c-0.1,0.1-0.4,0.2-0.6,0.4c0,0.5,0,4.8,0,5.3c-0.7,0-1.3,0.1-1.8,0
			c0-0.7,0-4.4,0-5C188.1,118.6,186.9,118.3,186.1,118.3 M194.7,110.7c-0.6,0-1.1-0.1-1.4-0.2c-0.5-0.1-0.3-0.7,0.1-0.7
			c0.4,0,1,0.1,1.2,0.2C195,110.1,195.1,110.7,194.7,110.7 M194.8,109.4c-0.5,0-1.1-0.1-1.4-0.2c-0.5-0.1-0.3-0.7,0.1-0.7
			c0.4,0,1,0.1,1.3,0.2C195,108.9,195.1,109.4,194.8,109.4 M191.4,101.2l-1.7,1.8c-0.5-0.3-0.8-0.7-0.9-1.3c-1.3,0.2-2.1,1-2.7,1.5
			c-0.5-0.5-1.3-1.7-1.3-2.6c0-0.9,0.7-2.1,1.1-2.6c0,0,0.1,0,0.1,0.1c-0.3-0.2-0.5-0.3-0.7-0.5c-0.2-0.2-0.2-0.6,0-0.9
			c0.3-0.4,1.4-1.7,2.4-1.9c0.5-0.1,1.4,0.1,2.7,1.2c-0.2,0.2-0.2,3.8-0.2,4.2C190.6,100.6,191.4,101.2,191.4,101.2 M180.4,107.7
			c-0.3,1.3,0.9,2.4,1.8,2.9c0.7,0.4,1.9,0.2,2.2,0.1c0.3,0,0.2-0.1,0.4-0.3c0.2-0.2,0.5,0,0.3,0.2c-0.2,0.2-2,1.9-2.5,2.3
			c-0.5,0.1-1.5,0.1-2.1-0.7c-1.1-1.3-1.8-1.8-1.5-4.2c0.2-1.6,3-3.1,3.6-3.4c0.2,0.2,1.5,1.6,2,2c-0.2,0.3-0.9,0.6-1.6,0.6
			c-0.7,0-1.1-0.6-1.6-1.1C181.3,106.3,180.6,106.7,180.4,107.7 M184,94.5c-0.3,0-3.4,0.4-3.4,0.4c-0.2,0.1,0.2,3.9,0.3,4.2
			c0.1,0.3,0.4,0.8,0.7,0.5c0.3-0.3,0.7,0.2,0.3,0.5c-0.2,0.2-0.9,1.5-1.2,1.7c-0.5,0.3-1.2-0.7-1.4-1.3c-0.4-1-0.6-3.7-0.6-5.4
			c0.1,0-1.4-0.6-0.7-0.9c1.4-0.6,2.7-2.4,2.8-2.9c0.2-0.5,0.6-0.3,0.4,0.2c-0.4,0.9-0.4,1.6-0.2,2.2c0.1,0.1,2.7,0.1,3.1,0.1
			C184.2,93.9,184.2,94.5,184,94.5 M176.8,99.3l-1.3,1.7h-1.2c-0.6-0.6-1-1.1-1.1-1.5l-0.1-4l-1.5-0.8c-0.3,0.4-0.8,0.4-0.6,0.1
			l2-1.8l0.4,0l1.3,1.3l0,4.1C175.5,98.9,175.9,99.1,176.8,99.3 M175.1,91.2l-0.7,0.6h-0.6l-0.6-0.6l0-1.2l1-0.8l1,0.9V91.2z
			 M171,91.1c-0.7,0.2-1.2,0.9-1.4,1.6c-0.1,0.7-2.6,7.7-2.8,8.2c-0.6-2.2-3-7.4-3.8-8.5c-0.7-1-1.3-0.8-1.9-0.8
			c-0.6,0-0.4-0.6,0.1-0.5c0.7,0.1,4.5,0.4,5.6,0.6c0.4,0.1,0.4,0.4-0.1,0.6c-0.3,0.1-0.9,0.4-0.9,0.7c0,0.4,1.4,3.5,1.8,4
			c0.3-0.8,1.6-4.1,1.4-4.9c-0.3-0.7-0.4-0.8-0.9-0.9c-0.5-0.1-0.5-0.4,0.1-0.5c0.7-0.1,2.5-0.3,3-0.2
			C171.7,90.6,171.7,90.9,171,91.1 M162.4,103.7c1.2-0.7,3.9-1.1,4.8-0.8c0.5,0.1,0.9,0,0.9-0.2c0-0.3,0.4-0.2,0.4,0
			c0,0.2,0,3.2,0,3.5c0,0.3-0.4,0.3-0.4,0c0-0.4,0-0.6-0.4-1.1c-1.1-1.6-4.1-1.8-5.5,0.2c-0.5,0.7-0.7,1.8-0.1,2
			c0.6,0.2,2.7,0,3.4-0.1c0.7-0.1,2.4-0.4,2.6-0.5c0.2-0.1,0.5-0.3,0.5,0.1c0,0.3,0,1.5,0,1.8c0,0.4-0.3,0.2-0.4,0
			c-0.2-0.1-1.8-0.3-2.5-0.3c-1.2-0.1-2.9-0.5-3.5-0.3c-0.6,0.2-0.1,1.1,0.4,1.7c1.5,2,4.2,2,5.3,0.4c0.4-0.6,0.4-0.7,0.4-1.1
			c0-0.3,0.4-0.3,0.4,0c0,0.3,0,2.7,0,3s-0.5,0.3-0.5,0c0-0.5-0.3-0.5-0.9-0.3c-1.6,0.4-3.7,0.6-4.9-0.2c-1.3-0.8-2.5-1-2.5-3.9
			C159.7,105.7,161.3,104.3,162.4,103.7 M160.2,112.6c0.4,0,1.6,0.1,2,0.1c-0.1,0.9-0.1,7,0,7.6c0.1,0.6,0.6,0.8,1.1,0.6
			c0.3-0.1,0.5,0.1,0.2,0.4c-0.6,0.4-1.3,1.5-1.7,1.9c-0.7-0.5-1.5-1.1-1.4-1.6C160.5,120.6,160.2,113.4,160.2,112.6 M169.1,126.2
			c4.2,0,20.6,4.5,28.5,4V88.9c0,0-11.7,1.7-21.8-2.1c-8.2-3-19.6,2.3-19.6,2.3c0,1.4,0,40.5,0,40.5S160.5,126.2,169.1,126.2
			 M199.1,113.7v7.9c0,0,4.4,0,9.3-3.2c1.5-0.9,3.6-0.6,4.7,0.3h0c0,0-0.7-5.2-5-4.5C200,115.4,199.1,113.7,199.1,113.7
			 M213.1,102.3c0.1,0.5,0.1,0.9,0.2,1.1C213.2,103.2,213.1,102.8,213.1,102.3c0,0-0.2-4.6-5.2-4.6c-1.6,0-3.6,2-8.6-0.2v7.9
			c2,0.6,7.6-2.6,9.9-3.6C210.7,101.1,213,101.6,213.1,102.3 M207.6,185c-0.3-12.4-8-26.3-5.9-23.7c5.2,6.4,6.9,20.4,10.4,32.4
			c0,0,2.3,1.2,1.8-14c-0.1-3.1-1.4-7.2-2.9-10c-3-5.7-9.1-15.2-9-15.3c1.5-1.2,5.1,7,8.2,10.2c2,2.1,7.7,4.1,8,3.9
			c-4.5-8.7-15.4-17-14.3-18c8,7.5,10.6,7.9,10.9,7.5l-7.2-7c-2-2.7-4.8-4.9-4.4-4.8c3.2,0.7-1.7-2.7-5.5-3.7
			c-0.7-0.2-1.8-0.2-1.8-0.6c-0.1-0.6,0.9-0.3,1.7-0.6c0.5-0.2,1-0.6,1.1-1.3c-1.5,0.3-2.9,0-4.2-0.6c-2.6-1.2-7.2-2.6-9.3-1.7
			c-1.2,0.5-1.5,0.4-2.8,1.4c-0.6-0.2-2.2-1.3-4.5,1.5c-0.7,0.9-1.6,1.8-1.6,2.6c-0.1,1.8,0,0.1,0.5,1.8c0.2,0.7-0.7,2.1-4,3.2
			c-1.3,0.4-1,1.7-1,1.7c0.6-0.3,1.7-1,3.2-0.3c3.1,1.4,3.7-0.8,5.6-2.5c0,0-0.5,2,0,2.2c2.4,0.5,1.6,2.3,1.3,2.6
			c-3,2.7-1.8,3.7-2.8,5.4c-1,1.6-2.6,2.2-4.9,2.1c-3.2-0.1,4.2-5-2.9-7c1.1,1.9,1.6,3.4-0.9,4.8c-1.6,0.9-0.8,5.5-4.8,3.4
			c0,0-0.3,3.4-0.8,3.6c5.5,4.8,2.4,7.4,2.7,14.2c1.7,4.4-0.2,6.4-0.6,6.7c0.3,2.9,0.5,4.6,2.4,7c1.3,1.7-0.1,4.4,1.2,6.3
			c1.3-4.4,2.6-2.6,3-8.8c0.5-1,2.6-2.9,3.8-3c0,3.7,1.4,7.1,1.1,8.7c0,0,3.1-0.6,4.1-0.2c0.8,0.3,1.4,1.3,1.4,1.9
			c-1.1,0.7-1.1,0.4-2.7,1.6c-2.8,2.1-4.1,6.2-4.1,6.2c0,0,6.6-5.3,7.1-6.2c0.4-0.8,0.7-1.9,1.1-3.1c0-0.1-3.4-2.1-4.4-4
			c-3-5.8,4.6,3.4,4.8,2.6c0.4-2,1.8-3.9,1.8-3.9c-0.5-0.6-1.7-0.9-3.5-4.1c-4.1-7.3,4.8,3.1,4.8,3.1c2.4-1.4,2.4,0.5,2.7,2.4
			c0,0.2,4,3.1,4.2,3.3c1.1-1,1.9-2.5,2.4-3.4c0.1-0.1-7.2-6.6-8.4-8.7c-10-17.2,8.1,7.6,9,6.9c0.5-1.3,0.6-3.2,0.6-5.7
			c0-0.1-3.4-2.4-5.6-6c-8.4-13.9,5.5,4.1,5.5,4c-0.2-3-2.6-15.9-0.9-12c0.9,2,3.6,10.2,3.1,18.6C202.3,186.9,206.1,185.4,207.6,185
			 M191.8,198.7c0,0-1.3-1-1.4-0.8c-0.2,0.6-0.5,1.2-0.9,2C189.2,200.6,190.2,200.1,191.8,198.7 M191.3,193.5
			c-0.2,1.1-0.2,2-0.5,3.3c0,0.1,1.3,0.7,1.9,1.2c0.8-0.8,1.6-1.2,2.5-2.3c-0.2-0.1-3.7-3.2-3.7-3
			C191.4,193.1,191.4,193,191.3,193.5 M202.1,200.7c1.5-1.3,2.4-3.5,4.4-4.2c-1.5-1.4-3,1.4-3.7,0.4c1.4-2.2,2.3-3.9,2.4-6.6
			c0.1-1.5,1.8-2.8,2.2-3.7c-1.6,0.2-6,2.8-6.9,4.3c-3,3.9-2.8,7.6-15.1,13c-0.6,0,2.3-2.1,3.1-4.5c0.4-1.1,2-6.4,0.9-9
			c-2.6,2.6-2,3.4-2.7,5.4c-1.8,5.1-2.8,5.5-7.5,8.6c-0.6,0.4-4.1,5.9-8.7,6.1c0.5-0.1,0.2-1.3,1.7-2.3c5.1-3.4,3.2-10.6,9.9-11.8
			c-3.3-1.2-5.6,2.1-6.2,1.7c2.7-3.7,0.3-6.9,0.7-9.9c-0.9,0.5-1.8,1.6-1.9,2.5c-0.5,5.4-3,6.4-3.3,8.7c0.5,3.9-2.6,6.9-4.9,9.6
			c-0.4-2.3,0.1-4.3,3-6.1c1.6-1-0.1-4.1-0.1-4.1c-0.6,3.4-2.5,4.4-3.7,4.6c-1,0.1,3.6-4.7,3.1-9.2c-0.2-2-0.8-1.1-1.1-3.3
			c-4,4.5-1.1,7.2-5.2,12.4c-2,2.4-2.7,6.7-2.9,6.8c0-6.4,0.2-4.5,3.1-9.7c2.3-4.3-0.1-8.3-0.4-10.8c-5.1,3.5-4.7,10.3-4.8,8.8
			c-0.1-1.4-0.8-4-0.1-6.3c1.1-3.8-1.3-9.7-1.3-9.7c-7.2,11.2-1.2,24.4-1.6,24.2c-3.1-4.9-5.4-5.1-6.1-8.8
			c-0.4-2-4.1-13.2-10.8-13.4c3.4,2.9,2.6,3.3,2.8,8.2c-2.2,12.1,14.7,13.3,13.6,19.6c-2.3-3.7-5.8-5.3-11.2-8.2
			c-2.4-1.9-5-2.7-5.2-5.6c0.3-2.1,0.4-1.7,0-4.4c-0.3-2-2.2-0.8-3.6-4.9c-3,2.8-1.9,5.9-1.7,7.7c0.1,0.5,0.4,2.4-0.1,3.5
			c-1.1-0.8-1.8-2.3-3-3.8c-2.2-2.8-2.2-6.2-3.3-8.6c-0.5-1.1-1.2-2.6-1.7-2.6l-0.1,0c-0.5,4.4-0.3,8.2,1.7,11.5c0,0-0.6,0.9-1,1.2
			c-1.9-0.5-4.6-2.1-5.7-5.2c-2.4,2-0.7,4.5-0.8,4.5c-5.3-2.7,0.1-13.2-7.5-12.9c1.9,2,0.7,4.6,0.5,7c0,3.9,5,7,5,7
			c-5.6-1.9-6.7,0.7-6.7,0.7c0,0,8.2,3.6,21.2,4.9c1.7,0.2,4,2.1,3.7,2.1c-1.7-0.1-5-2.3-9.7,1.9c2.8,0.1,4.7,4.6,9.3,2
			c11.7-3.3,16.1,2.5,18,4c-0.4,0.7-9-5.4-15.9-1.3c-3.6,2.2-9.5,0.2-14-3.2c1.8,4.7,9.7,10,12.3,10c3.2,0,7.3-4.2,11.9-3.9
			c7.4,0.4,8.4,7,7.6,6.5c0,0-5.8-9.6-13.3,0.7c3.5-1.6,8.2-1.2,12.3,0.7c0.6,0.3-1,2-2.1,3.2c-0.7,0.8-3.8,5.4-7.2,0.9
			c-0.5-0.7-2.1-4.9-12.7-4c4,1.8,8.4,6.5,10.6,8.7c5.5,5.5,13.9-6.6,14.2-5.3c0,2.7,1.4,4,2.1,5.5c1.9,3.7-2.4,3.1-4.6,2.1
			c0,0,4.4,6.8,8,3c4-4.2-5.3-7.4-2.3-10.7c1.7-1.9,7.5,4.2,10.2,4.2c7.2,0.8,6.8-6,10.6-5.8c-3.6-3.6-7.4-1.6-8.1-0.7
			c-2.4,2.8-5.2,0.9-7.1-0.6c-1.1-1.4-2.8-1.6-4.4-1.2c-0.7,0.1,1.5-2.6,4.4-2.1c6.6,1.3,13.2-1.1,14.8-2c2.7-1.5,4.1-4,7.1-6.9
			c-0.9,0.2-6.4,3.2-8.2,4.1c-5.3,2.7-8.6-0.8-9.2-0.8c-1,0-0.8-0.8,0.8-1.3c5.4-1.2,9.2-6,14.4-7.9
			C190,203.7,197.2,205.4,202.1,200.7 M200,210c2.2-3.1,3.4-6.4,4.1-10c-1.3,1.6-3.1,3.1-5,3.8C197.9,207.9,198.5,212.2,200,210
			 M219.7,175.8c-5.4,58-53.9,67.9-64.3,69.7c-0.5,0.1-58.4-7.2-64.3-69.7c0,0,0-92.2,0-92.2s55.3-7.1,128.6,0L219.7,175.8z
			 M223,176.4l0-96c-77.1-7.4-135.4,0-135.4,0s0,96,0,96c6.1,65.1,67.1,72.7,67.7,72.6C166.2,247,217.4,236.8,223,176.4"/>
		<path class="st0" d="M266,204.2c-1.4,3.2-0.4,7.3,4.9,9.6c4.4,2,10,2.1,12.3-3c1.2-2.8,0.9-7.2-4.9-9.8
			C274.3,199.3,268.3,198.9,266,204.2 M178.7,279c0,0.6,0.1,1.2,0.2,1.8c0.7,2.8,3.1,4.7,5.3,4.1c1.6-0.4,2.8-2.2,2.8-4.4
			c0-0.6-0.1-1.2-0.2-1.8c-0.7-2.8-3.1-4.7-5.3-4.1C179.9,275.1,178.7,276.8,178.7,279 M145.9,278.6c1-0.9,1.5-2.2,1.7-3.8
			c0.1-1.7-0.6-3.3-2.2-3.4c-1.3-0.1-2.5,0.9-2.6,2.6C142.6,275.7,143.8,277.3,145.9,278.6 M143.5,281.7c-1.3,1-1.8,2.3-2,3.8
			c-0.2,1.9,0.8,3.5,2.3,3.6c1.3,0.1,2.4-0.8,2.5-2.4C146.5,284.3,145,282.7,143.5,281.7 M103.1,33.4c0.5-0.9,0.7-2.1-0.1-3.9
			c-0.9-2.1-3.1-3.6-6.1-2.3c-1.7,0.7-1.7,0.9-1.4,1.6l2.7,6.3c0.2,0.5,0.3,0.8,0.5,0.9c0.1,0,0.5-0.1,1.9-0.7
			C101.6,34.9,102.6,34.3,103.1,33.4 M220.2,41.4c2.2-4.3,2.6-9.9-2.3-12.4c-2.7-1.4-7.1-1.3-10,4.4c-2,3.8-2.6,9.8,2.5,12.4
			C213.5,47.4,217.6,46.5,220.2,41.4 M292.4,158.2L292.4,158.2c-0.1-0.2-0.8-0.5-1.7-0.8l-5-2.1c-0.7-0.3-0.7-0.2-0.7,0.6l-0.2,3.6
			c0,0.8,0.1,0.9,0.9,0.7l4.8-1.3C291.3,158.6,292.1,158.4,292.4,158.2 M294.9,157.8c0.2,0.7,0.7,1.2,1,1.6c0,0.2-0.1,0.4-0.3,0.4
			c-1.3,0.3-2.7,0.7-4,1.1l-11.9,3.4c-2.5,0.7-3,1.1-3.2,2.3l-0.1,0.8c-0.2,0.2-0.6,0.1-0.7,0c0.1-1.2,0.2-2.2,0.3-3.5
			c0.1-1.4,0.1-2.5,0.1-3.3c0.1-0.2,0.6-0.2,0.7,0l0.1,0.8c0,0.6,0.2,1,0.5,1c0.3,0,0.9-0.1,1.6-0.3l4-1.1c0.6-0.2,0.7-0.3,0.8-1.2
			l0.2-4.4c0-0.7,0-0.9-0.6-1.1l-3-1.2c-1.3-0.5-2.1-0.7-2.4-0.8c-0.3,0-0.5,0.1-0.6,0.8l-0.1,1c-0.2,0.2-0.6,0.2-0.7-0.1
			c0.1-0.8,0.1-1.7,0.2-3c0.1-1,0-2,0.1-2.8c0.1-0.2,0.6-0.2,0.7,0l0,1c0,0.7,0.3,1.4,1.3,1.8c1.3,0.6,3.2,1.5,6.4,2.9l7.7,3.4
			C293.9,157.6,294.4,157.8,294.9,157.8 M294.7,140c0,0.4-0.1,0.6,0,0.8c-0.7,0.1-2.5,0.5-4.2,1c-0.2-0.1-0.3-0.5-0.2-0.8
			c1.9-0.7,4-2.3,3.4-6.5c-0.6-4.4-4-7.8-9.9-6.9c-6.1,0.9-8.8,5.2-8.2,9.9c0.5,3.7,3.2,5,5,5.4c0.2,0.2,0.2,0.6,0,0.8
			c-1.5,0-3.5-0.5-4.2-0.8c-0.1-0.3-0.3-0.7-0.4-1c-0.3-0.6-1.1-2.6-1.3-4.5c-0.4-2.6-0.2-5.1,0.9-7.5c1.3-2.5,3.6-4.7,7.3-5.2
			c3.2-0.5,6.1,0.6,8.2,2.5c1.9,1.9,3.1,4.4,3.6,7.4C294.9,136.3,294.9,138.6,294.7,140 M290.4,116.2c0,0.2-0.5,0.4-0.7,0.3
			l-0.3-0.7c-0.6-1.6-1.1-1.5-4.1-0.6l-9.9,2.9c-3,0.9-3.3,1.1-3,2.8l0.1,0.7c-0.1,0.2-0.6,0.3-0.7,0.1c-0.4-1.4-0.6-2.4-0.9-3.5
			c-0.3-1.2-0.7-2.1-1.1-3.5c0-0.2,0.5-0.4,0.7-0.3l0.3,0.7c0.7,1.6,1.1,1.5,4.1,0.7l9.9-2.9c3-0.9,3.4-1.1,3.1-2.8l-0.2-0.7
			c0.1-0.2,0.6-0.3,0.7-0.2c0.4,1.4,0.6,2.4,1,3.5C289.7,113.9,290,114.9,290.4,116.2 M285.4,100.7c0,0.2-0.4,0.5-0.6,0.4l-0.3-0.5
			c-0.9-1.4-1.3-1.3-4.1,0l-9.4,4.6c-2.7,1.3-3.1,1.6-2.5,3.2l0.2,0.7c0,0.2-0.5,0.4-0.7,0.3c-0.6-1.3-1-2.2-1.5-3.2
			c-0.5-1.1-1-2-1.6-3.1c0-0.2,0.4-0.5,0.6-0.4l0.3,0.5c1,1.5,1.3,1.3,4.1,0l3.7-1.8c0.8-0.4,0.8-0.5,0.2-1.7l-3.7-7.5
			c-0.6-1.3-0.7-1.3-1.5-0.9l-3.7,1.8c-2.7,1.3-3,1.7-2.5,3.2l0.3,0.8c0,0.2-0.5,0.4-0.7,0.3c-0.6-1.4-1-2.3-1.5-3.4
			c-0.6-1.1-1-2-1.6-3c0-0.2,0.4-0.5,0.6-0.4l0.3,0.4c1,1.3,1.3,1.3,4-0.1l9.4-4.6c2.7-1.3,3.1-1.7,2.5-3.2l-0.3-0.7
			c0-0.2,0.5-0.4,0.7-0.3c0.6,1.3,1,2.2,1.5,3.3c0.5,1,1,1.9,1.6,3c0,0.2-0.4,0.5-0.6,0.4l-0.3-0.5c-0.9-1.4-1.3-1.3-4.1,0l-3,1.5
			c-0.8,0.4-0.8,0.5-0.2,1.7l3.7,7.5c0.6,1.3,0.7,1.3,1.5,0.9l3-1.5c2.8-1.3,3.1-1.6,2.5-3.2l-0.2-0.5c0-0.2,0.5-0.4,0.7-0.3
			c0.5,1.2,0.9,2.1,1.5,3.2C284.3,98.7,284.8,99.5,285.4,100.7 M270.5,74.5c-0.5,0.4-1.9,1.7-3.2,2.9c-0.3,0-0.5-0.3-0.5-0.6
			c1.3-1.6,2.3-4-0.2-7.3c-2.7-3.5-7.2-4.9-12-1.2c-4.9,3.7-5.2,8.8-2.3,12.6c2.3,3,5.2,2.8,7,2.3c0.2,0.1,0.4,0.5,0.4,0.7
			c-1.3,0.7-3.3,1.3-4,1.3c-0.3-0.2-0.6-0.5-0.8-0.6c-0.6-0.4-2.2-1.8-3.3-3.3c-1.6-2.1-2.7-4.4-2.8-7c-0.1-2.8,0.9-5.9,3.9-8.1
			c2.6-2,5.7-2.5,8.4-1.7c2.6,0.7,4.9,2.4,6.7,4.8c0.9,1.2,2,3.2,2.6,4.5C270.3,74.1,270.4,74.3,270.5,74.5 M244.8,45.8
			c-0.8,1.1-1.6,2.2-2.2,3.1c-0.2,0.1-0.6-0.1-0.6-0.4c0.6-1.2,1-2.3,0-3.4c-0.4-0.5-1.2-1.1-2.2-1.8l-1.4-1.1
			c-0.7-0.5-0.7-0.5-1.4,0.4l-3.7,4.9c-0.5,0.6-0.4,0.7,0.3,1.2l1.6,1.2c1,0.7,1.7,1.2,2.1,1.4c0.3,0.1,0.6,0.1,1.2-0.4l0.9-0.8
			c0.2-0.1,0.6,0.2,0.6,0.5c-0.4,0.6-1.2,1.4-1.9,2.3c-0.6,0.8-1.2,1.8-1.6,2.3c-0.2,0.1-0.5-0.2-0.6-0.5l0.5-1.1
			c0.2-0.5,0.3-1-0.1-1.4c-0.3-0.3-0.8-0.8-1.7-1.5l-1.6-1.2c-0.7-0.5-0.8-0.6-1.2,0l-2.4,3.2c-1.8,2.4-2.1,2.8-0.8,4l0.7,0.7
			c0.1,0.2-0.3,0.6-0.5,0.5c-1.3-1.1-2.1-1.7-3-2.4c-1-0.8-1.8-1.3-3-2.1c-0.1-0.2,0.1-0.6,0.4-0.6l0.6,0.4c1.5,0.9,1.7,0.6,3.6-1.8
			l6.3-8.4c1.8-2.4,2-2.8,0.8-4l-0.3-0.3c-0.1-0.2,0.3-0.6,0.5-0.5c0.9,0.8,1.7,1.4,2.6,2.1l4.3,3.2
			C243.1,44.7,244.5,45.7,244.8,45.8 M223.2,41.9c-2.7,5.2-8.6,7-13.6,4.5c-5.8-2.9-7.1-8.8-4.8-13.5c2.6-5.2,8.5-7.2,13.9-4.5
			C224.7,31.5,225.5,37.4,223.2,41.9 M191.3,18.8l-0.8,0c-1.5,0-2.8,1.6-4.7,3.8l-2.4,2.8c-1.7,1.9-1.8,2.2-2.3,4.4l-0.3,1.5
			c-0.6,3.1-0.5,3.5,1,4l1.1,0.3c0.1,0.2,0,0.7-0.2,0.7c-1.8-0.4-2.7-0.6-3.9-0.9c-1.2-0.2-2.2-0.4-3.8-0.6
			c-0.2-0.1-0.1-0.6,0.1-0.7L176,34c1.7,0.2,1.8-0.2,2.4-3.3l0.3-1.5c0.3-1.6,0.3-2-0.2-3.7l-2.1-7.2c-0.6-2.1-1-2.3-1.8-2.6
			l-0.8-0.3c-0.1-0.2,0-0.6,0.2-0.7c0.9,0.2,1.9,0.5,3.3,0.7c1.3,0.3,2.4,0.4,3.1,0.5c0.2,0.1,0.2,0.6-0.1,0.7l-0.4,0
			c-1-0.1-1.3,0-1.3,0.3c-0.1,0.3,0.4,2.1,0.4,2.4c0.6,2.3,1.3,4.8,2,7c1.2-1.3,2.5-2.8,3.6-4.3c1.1-1.3,2.5-3.1,2.6-3.4
			c0-0.2-0.4-0.5-1.1-0.7l-0.5-0.2c-0.2-0.2-0.1-0.6,0.2-0.7c1,0.3,1.8,0.4,2.7,0.6c0.9,0.2,1.7,0.3,2.7,0.4
			C191.6,18.3,191.5,18.7,191.3,18.8 M166.4,13.3c-0.3,1.2-0.6,3.5-0.5,4.4c-0.1,0.2-0.6,0.2-0.8,0c-0.1-0.7-0.3-1.8-0.7-2.1
			c-0.7-0.5-1.8-0.8-3.4-0.8l-2.1,0c-0.9,0-0.9,0-0.9,1l-0.3,12.9c-0.1,3.1,0,3.5,1.7,3.7l0.9,0.1c0.2,0.1,0.1,0.6-0.1,0.7
			c-1.7-0.1-2.6-0.2-3.8-0.2c-1.2,0-2.2,0-4,0c-0.2-0.1-0.2-0.6,0-0.7l1.1-0.1c1.7-0.1,1.8-0.5,1.9-3.6l0.3-13c0-0.9,0-0.9-0.8-1
			l-1.6,0c-1.3,0-2.9,0-3.6,0.6c-0.7,0.6-1,1.3-1.4,2c-0.2,0.2-0.6,0-0.8-0.2c0.5-1.3,1-3.2,1.2-4.3c0.1-0.1,0.5-0.1,0.6,0
			c0.2,0.9,1.1,0.9,2.5,1l11.8,0.3c1.6,0,1.8,0,2.3-0.8C166,13.1,166.3,13.1,166.4,13.3 M142.6,33.7c-1.5,0.1-2.4,0.2-3.6,0.3
			c-1.2,0.1-2.2,0.3-3.6,0.5c-0.2-0.1-0.3-0.5-0.1-0.7l0.7-0.2c1.7-0.4,1.7-0.8,1.3-3.9L136,19.5c-0.4-3.1-0.5-3.5-2.2-3.5l-0.7,0
			c-0.2-0.1-0.2-0.6,0-0.7c1.5-0.1,2.4-0.2,3.7-0.4c1.2-0.1,2.1-0.3,3.6-0.5c0.2,0.1,0.3,0.6,0.1,0.7l-0.7,0.1
			c-1.7,0.4-1.7,0.8-1.3,3.9l1.2,10.3c0.4,3.1,0.5,3.5,2.2,3.5h0.7C142.7,33.1,142.7,33.6,142.6,33.7 M124.1,37.5
			c-2.4,0.6-4,0.2-4.7,0c-0.5-0.5-1.3-2.5-1.7-3.8c0.1-0.2,0.5-0.4,0.7-0.3c0.8,1.3,2.6,3.8,5.9,3c2.4-0.6,3.2-2.4,2.7-4.1
			c-0.3-1.2-0.9-2.6-3.3-3.4l-3.1-1.1c-1.6-0.6-3.7-1.8-4.2-4.1c-0.7-2.7,0.9-5.4,4.6-6.3c0.9-0.2,1.9-0.3,2.7-0.3
			c0.4,0,0.8,0,1-0.1c0.4,0.6,1.1,2.1,1.3,3.3c-0.1,0.2-0.5,0.4-0.7,0.3c-0.7-1.3-1.9-2.9-4.6-2.3c-2.8,0.7-2.9,2.7-2.6,4
			c0.4,1.6,2.1,2.5,3.3,2.9l2.6,0.9c2.1,0.7,4.2,1.9,4.9,4.6C129.6,33.9,127.8,36.6,124.1,37.5 M115.1,39.7
			c-0.2,0.2-0.6,0.4-1.1,0.6c-2.3,1-3.9,0.9-7-1c-1.1-0.7-3-2.1-4.4-2.9c-0.7-0.4-1.2-0.5-2.3,0c-1.2,0.5-1.2,0.6-1,1.1l1.4,3.4
			c1.2,2.8,1.4,3.1,3,2.7l0.6-0.2c0.2,0.1,0.4,0.5,0.2,0.7c-1.2,0.5-2.1,0.8-3.2,1.3c-1.1,0.5-2.1,0.9-3.3,1.5
			c-0.2,0-0.4-0.4-0.3-0.7l0.6-0.4c1.5-0.9,1.4-1.2,0.2-4l-4.1-9.6c-1.1-2.6-1.4-3-2.5-2.6L91,29.9c-0.2-0.1-0.4-0.5-0.3-0.7
			c1.4-0.8,3.2-1.7,5.9-2.8c1.7-0.7,3.3-1.3,4.8-1.1c1.6,0.1,3,0.9,3.8,2.8c1.1,2.5-0.3,4.8-1.4,5.9c-0.1,0.2,0.2,0.4,0.4,0.6
			c3.6,2.5,6,4.1,8.4,4.8c0.6,0.2,1.4,0.2,2.2,0C115.1,39.3,115.2,39.5,115.1,39.7 M91.1,49.7c0.3-0.5,0.4-1.8,0.2-3.5
			c0.1-0.2,0.5-0.4,0.7-0.2c0.4,1,1,3.2,1.1,4.1c-2.2,1.4-4.4,2.8-6.6,4.2l-2.2,1.4c-1.1,0.7-1.9,1.2-3.3,2.2
			c-0.2,0-0.5-0.3-0.4-0.6l0.8-0.6c1.3-1,1.2-1.5-0.5-4l-5.7-8.8c-1.6-2.5-1.9-2.9-3.5-2.1L71.2,42c-0.2,0-0.4-0.5-0.3-0.6
			c1.1-0.6,1.9-1.2,2.9-1.8l4.6-3c1.6-1,3-1.9,3.3-2.2c0.4,0.3,1.7,2,2.5,3c0,0.2-0.4,0.5-0.6,0.4c-1.1-0.9-1.9-1.6-3.4-1.1
			c-0.6,0.2-1.4,0.7-2.5,1.4L76,39.2c-0.7,0.5-0.7,0.5-0.1,1.5l3.2,4.9c0.4,0.7,0.5,0.6,1.2,0.2l1.4-0.9c1-0.7,1.8-1.2,2-1.5
			c0.2-0.3,0.3-0.5,0-1.2L83.3,41c0-0.2,0.4-0.5,0.7-0.4c0.4,0.6,0.9,1.6,1.5,2.5c0.6,0.9,1.3,1.7,1.6,2.3c0,0.2-0.4,0.5-0.6,0.4
			L85.6,45c-0.4-0.4-0.8-0.6-1.4-0.4c-0.4,0.1-1,0.5-2,1.1l-1.4,0.9c-0.7,0.5-0.8,0.5-0.4,1.2l2.2,3.4c0.8,1.3,1.5,2.1,2.1,2.2
			c0.5,0.1,1.2,0,3.3-1.4C90.1,50.9,90.7,50.3,91.1,49.7 M70.5,68c0,0.1-0.1,0.2-0.2,0.3c-0.1,0.1-0.2,0.2-0.4,0.2
			c-1.1-0.7-2.5-1.3-3.7-1.8l-12.5-5.5c-1.6-0.7-2.4-0.8-3.3-0.1l-0.4,0.3c-0.3,0-0.5-0.3-0.5-0.6c0.6-0.5,1.3-1.2,2.2-2
			c0.9-0.9,1.6-1.6,2.5-2.5c0.2-0.1,0.6,0.2,0.5,0.5l-0.3,0.3c-0.7,0.9-0.7,1.2-0.6,1.4c0.2,0.2,1.7,1,3.9,1.9
			c3.3,1.5,6.6,2.9,10,4.3c-0.7-2-1.9-5-2.5-6.6c-0.8-2-2.1-5.3-2.6-6.6c-0.3-0.6-0.5-0.8-0.6-1c-0.1-0.1-0.5-0.1-1.3,0.5l-0.4,0.3
			c-0.3,0-0.5-0.3-0.5-0.6c0.6-0.5,1.4-1.3,2.2-2.1c0.7-0.7,1.3-1.3,2-2c0.2-0.1,0.6,0.3,0.5,0.5L64,47.9c-0.5,0.5-0.5,1.1-0.4,1.8
			c0.4,1.5,1.2,4,2.3,7.1l1.4,3.7C68.4,63.2,69.8,66.5,70.5,68 M55.2,78.2c2.5,1.9,2.8,2.1,4,0.8l0.5-0.5c0.2-0.1,0.6,0.3,0.5,0.5
			c-0.9,1.1-1.5,1.9-2.2,2.8c-0.7,1-1.3,1.8-2.1,3c-0.2,0.1-0.6-0.2-0.6-0.4l0.4-0.6c0.9-1.5,0.6-1.8-1.9-3.6l-8.3-6.3
			c-2.5-1.9-2.9-2.1-4-0.8l-0.5,0.5c-0.2,0.1-0.6-0.3-0.5-0.5c0.9-1.1,1.5-1.9,2.3-2.9c0.7-0.9,1.3-1.7,2.1-2.9
			c0.2-0.1,0.6,0.2,0.6,0.4L45,68.3c-0.9,1.5-0.6,1.8,1.9,3.7L55.2,78.2z M36.2,80.4l-0.1,0.4c-0.3,0.9-0.4,1.5-0.2,1.7
			c0.7,0.9,3.9,2.6,5.1,3.2L47,89c0.8,0.4,3.8,2.1,4.5,2.3c0.1,0.1,0.2,0.4,0,0.6c-0.6,0.1-1.9,0.3-5.6,1.2l-10,2.3
			c-1.2,0.3-4.2,0.9-5.1,1.1l0,0.1c0.3,0.3,0.8,0.6,1.6,1l5.6,3c1.2,0.7,4.6,2.4,5.6,2.4c0.4,0,0.8-0.4,1.2-1l0.5-0.8
			c0.3,0,0.6,0.1,0.6,0.4c-0.7,1.1-1.2,2-1.7,3c-0.6,1.1-0.9,1.8-1.4,2.7c-0.2,0.1-0.6-0.1-0.7-0.3l0.3-0.7c0.2-0.6,0.3-1.1,0.1-1.4
			c-0.7-0.9-3.9-2.5-5.1-3.2l-7.4-4c-0.7-0.4-1.3-0.7-2.1-0.4c-0.6,0.2-1.1,0.7-1.5,1.3L26.2,99c-0.2,0.1-0.6-0.1-0.6-0.4
			c0.7-1,1.4-2.4,1.6-2.9c0.2-0.4,0.4-0.9,0.6-1.2c1.6,0.2,6.6-1,8-1.3l4.1-1c2.9-0.7,5-1.2,6.9-1.7l0-0.1c-0.1-0.2-0.5-0.4-1-0.7
			l-5.5-3c-1.2-0.7-4.6-2.4-5.6-2.4c-0.3,0-0.7,0.4-1.4,1.3l-0.3,0.4c-0.2,0.1-0.6-0.1-0.6-0.4c0.7-1.1,1.2-2,1.7-3
			c0.6-1.1,0.9-1.8,1.4-2.7C35.8,80,36.2,80.2,36.2,80.4 M23.2,109.9c0.8,0.7,4.1,1.5,5.6,2l3.2,0.9c2.4,0.7,4.9,1.8,6.2,3.8
			c1,1.6,1.1,3.8,0.6,5.9c-0.5,1.9-1.4,3.8-3,4.8c-1.6,1.1-3.9,1.3-7.2,0.4l-6.6-1.8c-2.9-0.8-3.4-0.9-4,0.7l-0.2,0.7
			c-0.2,0.1-0.6,0-0.7-0.2c0.4-1.4,0.7-2.3,1-3.5c0.3-1.1,0.5-2.1,0.9-3.5c0.1-0.1,0.6-0.1,0.7,0.1l-0.1,0.7
			c-0.3,1.7,0.2,1.9,3.1,2.7l6.1,1.7c4.5,1.2,7.9,0.7,9.1-3.6c1.1-4.1-1.6-6.5-5.9-7.7l-3.2-0.9c-1.7-0.5-5-1.3-6-1.1
			c-0.4,0.1-0.7,0.6-1,1.2l-0.2,0.7c-0.2,0.1-0.6,0-0.7-0.2c0.4-1,0.7-2.1,1-3.2c0.3-1.2,0.5-1.9,0.7-3c0.2-0.2,0.6-0.1,0.7,0.1
			l-0.1,0.7C22.8,109,22.9,109.6,23.2,109.9 M14.8,152.9c0-1.9,0-3.6-0.1-3.9c0.5-0.2,2.6-0.3,3.9-0.5c0.2,0.1,0.2,0.6,0.1,0.7
			c-1.4,0.4-2.4,0.7-2.8,2.2c-0.1,0.6-0.2,1.5-0.2,2.8l0,2.1c0,0.9,0.1,0.9,1.2,0.9h5.8c0.8,0,0.8-0.1,0.8-1v-1.7
			c0-1.2-0.1-2.1-0.2-2.5c-0.1-0.3-0.3-0.6-1-0.7l-1.2-0.2c-0.2-0.1-0.2-0.6,0-0.8c0.7,0,1.8,0.1,2.9,0.1c1,0,2.2-0.1,2.8-0.1
			c0.2,0.1,0.2,0.6,0,0.8l-1.1,0.3c-0.5,0.1-1,0.3-1.1,0.9c-0.1,0.4-0.1,1.1-0.1,2.2v1.7c0,0.9,0,1,0.8,1l4.1,0c1.5,0,2.5-0.1,3-0.6
			c0.4-0.4,0.7-1,0.7-3.5c0-2.2-0.1-3.1-0.4-3.7c-0.3-0.5-1.3-1.3-2.8-2.1c-0.1-0.2-0.1-0.6,0.2-0.7c1,0.2,3.3,0.9,4,1.3
			c-0.1,2.6-0.1,5.2-0.1,7.8v2.6c0,1.3,0,2.2,0.1,4c-0.1,0.2-0.6,0.2-0.7,0.1l-0.1-1c-0.1-1.7-0.6-1.8-3.6-1.8l-10.5,0
			c-3,0-3.5,0.1-3.7,1.8l-0.1,0.5c-0.1,0.2-0.6,0.1-0.7-0.1c0.1-1.3,0.1-2.2,0.1-3.4L14.8,152.9z M15.6,171.7
			c0.1-0.2,0.6-0.3,0.7-0.2l0.2,0.6c0.5,1.6,0.9,1.6,3.9,1l10.3-2c3-0.6,3.4-0.7,3.2-2.4l0-0.7c0.1-0.2,0.6-0.2,0.7-0.1
			c0.2,1.4,0.4,2.4,0.6,3.5c0.2,1.2,0.5,2.2,0.8,3.4c-0.1,0.2-0.5,0.3-0.7,0.2l-0.2-0.5c-0.6-1.7-0.9-1.6-3.9-1.1l-4,0.8
			c-0.9,0.2-0.9,0.2-0.6,1.6L28,184c0.3,1.4,0.3,1.4,1.2,1.3l4-0.8c3-0.6,3.4-0.8,3.2-2.4l-0.1-0.8c0.1-0.2,0.6-0.2,0.7-0.1
			c0.2,1.6,0.4,2.5,0.6,3.6c0.2,1.2,0.5,2.2,0.7,3.3c-0.1,0.2-0.5,0.3-0.7,0.2l-0.2-0.5c-0.6-1.5-0.9-1.5-3.9-1l-10.3,2
			c-3,0.6-3.4,0.9-3.3,2.4l0.1,0.8c-0.1,0.2-0.6,0.2-0.7,0.1c-0.2-1.4-0.4-2.4-0.6-3.6c-0.2-1.1-0.4-2.1-0.7-3.3
			c0.1-0.2,0.6-0.3,0.7-0.2l0.2,0.5c0.5,1.6,0.9,1.6,3.9,1l3.3-0.6c0.9-0.2,0.9-0.2,0.6-1.6l-1.6-8.2c-0.3-1.4-0.3-1.4-1.2-1.3
			l-3.3,0.6c-3,0.6-3.4,0.7-3.3,2.4l0.1,0.6c-0.1,0.2-0.6,0.2-0.7,0.1c-0.2-1.3-0.4-2.3-0.6-3.5C16.1,173.9,15.9,172.9,15.6,171.7
			 M21.8,200.6c1.2-0.1,3.5-0.8,4.3-1.2c0.3,0,0.4,0.5,0.3,0.7c-0.6,0.4-1.6,0.9-1.7,1.5c-0.2,0.8,0,1.9,0.6,3.4l0.8,1.9
			c0.3,0.8,0.3,0.8,1.2,0.4l12-4.8c2.8-1.1,3.2-1.4,2.7-3l-0.3-0.9c0-0.2,0.5-0.3,0.7-0.2c0.6,1.6,0.9,2.5,1.3,3.6
			c0.4,1.1,0.8,2,1.6,3.7c0,0.2-0.5,0.4-0.7,0.3l-0.5-0.9c-0.7-1.5-1.2-1.5-4.1-0.3l-12.1,4.9c-0.8,0.3-0.9,0.3-0.5,1.2l0.6,1.5
			c0.5,1.2,1.1,2.6,2,3c0.9,0.4,1.6,0.4,2.4,0.5c0.3,0.2,0.3,0.6,0.1,0.8c-1.4,0-3.3,0.3-4.4,0.6c-0.1-0.1-0.3-0.4-0.2-0.5
			c0.8-0.5,0.4-1.4-0.1-2.6l-4.4-10.9c-0.6-1.5-0.7-1.7-1.6-1.8C21.8,201,21.7,200.6,21.8,200.6 M43,153.2
			C43,91.2,93.3,40.9,155.3,40.9c62.1,0,112.4,50.3,112.4,112.4s-50.3,112.4-112.4,112.4C93.3,265.6,43,215.3,43,153.2 M119.6,284.8
			l1.3,0.2c1.4,0.2,1.7-0.2,2.3-2.6l1.3-5.4c0.6-2.4,0.4-2.9-0.9-3.4l-1-0.4c-0.2-0.3,0-1,0.3-1c1.2,0.3,2.6,0.7,4.5,1.2
			c2,0.5,3.5,0.8,4.6,1c0.3,0.2,0.1,0.9-0.2,1.1l-1-0.1c-1.4-0.2-1.8,0.2-2.3,2.6l-1.3,5.4c-0.6,2.4-0.4,2.9,0.9,3.4l1.3,0.5
			c0.2,0.3,0,1-0.3,1c-1.2-0.3-2.7-0.8-4.9-1.3c-2.2-0.5-3.7-0.8-4.9-1.1C119.1,285.7,119.3,285,119.6,284.8 M137.7,285
			c0.2-2.3,1.9-3.8,4.1-4.8c-1.8-1.3-3.2-3-3-5.3c0.3-3.1,2.9-5.3,6.7-5c3.8,0.3,5.9,2.4,5.6,5.6c-0.2,2.2-2,3.5-3.9,4.4
			c2,1.6,3.3,3.4,3.1,5.9c-0.3,2.9-2.6,5.1-7,4.7C140,290.2,137.4,288.4,137.7,285 M160.9,281.4c0.1,1.6,0.7,3.5,2.1,4.3
			c0.4,0.3,0.9,0.2,1.3,0.1c0.2,0.2,0.2,0.6,0.1,0.8c-0.6,0.4-1.5,0.9-2.5,1c-3.1,0.2-5.1-1.7-5.3-4.6c-0.3-3.9,2.8-6.7,6.7-7
			c4.4-0.3,6.9,2.6,7.1,6.8c0.2,3.3-0.8,7.2-3.9,10.2c-2,2-5.1,3.7-9,4.1c-0.3-0.1-0.4-0.7-0.2-1c2-0.7,3.5-1.6,4.5-2.5
			c1.5-1.4,4.4-4.9,4-11.2c-0.2-3.2-1.5-5.1-2.9-5C161.5,277.6,160.8,279.3,160.9,281.4 M174.5,280.2c0.1-3.4,2.7-6.5,6.5-7.5
			c2.2-0.6,4.4-0.4,6.3,0.6c1.9,0.9,3.2,2.5,3.7,4.4c0.1,0.6,0.2,1.1,0.2,1.7c-0.1,3.4-2.8,6.5-6.5,7.5c-4.5,1.2-9-1-10-4.9
			C174.6,281.4,174.5,280.8,174.5,280.2 M265.3,203.5c2.6-5.9,8.4-7.6,13.2-5.4c5.3,2.4,7.6,8.2,5.2,13.7c-2.7,6.1-8.6,7.2-13.2,5.2
			C265.1,214.4,263,208.6,265.3,203.5 M285.3,175.2c-5.5-1.2-10.4,0.6-11.7,6.4c-0.4,1.8-0.3,2.9,0.2,3.3c0.2,0.2,0.6,0.4,1.6,0.6
			l1.1,0.3c2.4,0.5,2.6,0.5,3.2-1.2l0.4-1.2c0.2-0.2,0.7-0.1,0.7,0.2c-0.2,0.8-0.6,2.4-1,4.1c-0.2,1.1-0.4,2.1-0.6,3
			c-0.2,0.2-0.6,0.1-0.7-0.1l0-0.5c0.1-1.2-0.7-1.4-2.1-1.8l-1.6-0.4c-1.1-0.3-1.9-0.2-2.2,0.2c-0.1,0.1-0.3,0-0.3-0.1
			c0.1-0.3,0.1-0.9,0.1-1.4c-0.1-1.6,0.1-3.7,0.4-5.3c0.8-3.4,2.4-6.3,5.1-8c2.1-1.3,4.5-1.7,7-1.2c2.4,0.5,4.7,1.9,6.2,4.1
			c1.6,2.4,2.3,5.5,1.3,9.8c-0.4,1.6-1,3.1-1.2,3.5c-0.2,0.5-0.6,1.3-0.7,1.7c-0.9-0.2-2.5-0.4-4.2-0.5c-0.2-0.1-0.1-0.7,0.1-0.8
			c3.3-0.1,4.7-2,5.3-4.9C292.9,179.4,289.6,176.2,285.3,175.2 M305.3,153.2c0-82.8-67.2-150-150-150c-82.8,0-150,67.2-150,150
			s67.2,150,150,150C238.2,303.2,305.3,236.1,305.3,153.2"/>
	</g>
</g>
</svg>
